SplineFontDB: 3.0
FontName: Rufina-Regular
FullName: Rufina
FamilyName: Rufina
Weight: Book
Copyright: Copyright (c) 2011-2012, Martin Sommaruga (martin@estudiotrama.com), with Reserved Font Name 'Rufina'
Version: 1.001
ItalicAngle: 0
UnderlinePosition: -50
UnderlineWidth: 50
Ascent: 800
Descent: 200
sfntRevision: 0x00010042
LayerCount: 2
Layer: 0 1 "Back"  1
Layer: 1 1 "Fore"  0
XUID: [1021 194 762397309 5374066]
FSType: 0
OS2Version: 3
OS2_WeightWidthSlopeOnly: 0
OS2_UseTypoMetrics: 1
CreationTime: 1298553240
ModificationTime: 1351749401
PfmFamily: 17
TTFWeight: 400
TTFWidth: 5
LineGap: 0
VLineGap: 0
Panose: 2 0 5 3 0 0 0 2 0 4
OS2TypoAscent: 945
OS2TypoAOffset: 0
OS2TypoDescent: -290
OS2TypoDOffset: 0
OS2TypoLinegap: 0
OS2WinAscent: 945
OS2WinAOffset: 0
OS2WinDescent: 290
OS2WinDOffset: 0
HheadAscent: 945
HheadAOffset: 0
HheadDescent: -290
HheadDOffset: 0
OS2SubXSize: 650
OS2SubYSize: 600
OS2SubXOff: 0
OS2SubYOff: 75
OS2SupXSize: 650
OS2SupYSize: 600
OS2SupXOff: 0
OS2SupYOff: 350
OS2StrikeYSize: 50
OS2StrikeYPos: 292
OS2Vendor: 'PYRS'
OS2CodePages: 20000001.00000000
OS2UnicodeRanges: 8000002f.4000004a.00000000.00000000
Lookup: 258 0 0 "'kern' Horizontal Kerning lookup 0"  {"'kern' Horizontal Kerning lookup 0 per glyph data 0"  "'kern' Horizontal Kerning lookup 0 kerning class 1"  } ['kern' ('DFLT' <'dflt' > ) ]
DEI: 91125
KernClass2: 73+ 63 "'kern' Horizontal Kerning lookup 0 kerning class 1" 
 5 space
 10 exclamdown
 40 comma period quotesinglbase quotedblbase
 15 colon semicolon
 9 backslash
 4 zero
 4 four
 5 three
 5 seven
 4 nine
 10 registered
 20 hyphen endash emdash
 5 slash
 9 trademark
 29 guillemotright guilsinglright
 9 ampersand
 22 quoteleft quotedblleft
 24 quoteright quotedblright
 20 quotedbl quotesingle
 8 asterisk
 27 guillemotleft guilsinglleft
 1 R
 50 A Agrave Aacute Acircumflex Atilde Adieresis Aring
 1 P
 1 B
 1 J
 37 U Ugrave Uacute Ucircumflex Udieresis
 53 O Q Ograve Oacute Ocircumflex Otilde Odieresis Oslash

StartChar: exclam
Encoding: 33 33 4
Width: 269
GlyphClass: 2
Flags: W
LayerCount: 2
Fore
SplineSet
137 -12 m 128,-1,1
 112 -12 112 -12 95.5 4.5 c 128,-1,2
 79 21 79 21 79 45.5 c 128,-1,3
 79 70 79 70 95.5 87.5 c 128,-1,4
 112 105 112 105 136.5 105 c 128,-1,5
 161 105 161 105 178 87.5 c 128,-1,6
 195 70 195 70 195 46 c 128,-1,7
 195 22 195 22 178.5 5 c 128,-1,0
 162 -12 162 -12 137 -12 c 128,-1,1
149 189 m 1,8,-1
 136 188 l 2,9,10
 124 188 124 188 117 195.5 c 128,-1,11
 110 203 110 203 109 211 c 0,12,13
 102 254 102 254 93.5 358.5 c 128,-1,14
 85 463 85 463 85 552 c 128,-1,15
 85 641 85 641 104 660 c 0,16,17
 116 673 116 673 142 673 c 128,-1,18
 168 673 168 673 194 669 c 1,19,20
 177 588 177 588 163 429 c 1,21,-1
 149 189 l 1,8,-1
EndSplineSet
EndChar

StartChar: quotedbl
Encoding: 34 34 5
Width: 350
GlyphClass: 2
Flags: W
LayerCount: 2
Fore
SplineSet
142 677 m 1,0,-1
 120 452 l 1,1,-1
 76 452 l 1,2,-1
 55 677 l 1,3,-1
 142 677 l 1,0,-1
295 677 m 1,4,-1
 273 452 l 1,5,-1
 229 452 l 1,6,-1
 208 677 l 1,7,-1
 295 677 l 1,4,-1
EndSplineSet
EndChar

StartChar: numbersign
Encoding: 35 35 6
Width: 708
GlyphClass: 2
Flags: W
LayerCount: 2
Fore
SplineSet
667 466 m 1,0,-1
 657 410 l 1,1,-1
 509 410 l 1,2,-1
 481 256 l 1,3,-1
 629 256 l 1,4,-1
 620 200 l 1,5,-1
 472 200 l 1,6,-1
 435 0 l 1,7,-1
 378 0 l 1,8,-1
 413 200 l 1,9,-1
 262 200 l 1,10,-1
 225 0 l 1,11,-1
 168 0 l 1,12,-1
 203 200 l 1,13,-1
 41 200 l 1,14,-1
 51 256 l 1,15,-1
 212 256 l 1,16,-1
 240 410 l 1,17,-1
 79 410 l 1,18,-1
 89 466 l 1,19,-1
 248 466 l 1,20,-1
 285 668 l 1,21,-1
 341 668 l 1,22,-1
 307 466 l 1,23,-1
 458 466 l 1,24,-1
 495 668 l 1,25,-1
 551 668 l 1,26,-1
 517 466 l 1,27,-1
 667 466 l 1,0,-1
450 410 m 1,28,-1
 299 410 l 1,29,-1
 271 256 l 1,30,-1
 422 256 l 1,31,-1
 450 410 l 1,28,-1
EndSplineSet
EndChar

StartChar: dollar
Encoding: 36 36 7
Width: 569
GlyphClass: 2
Flags: W
LayerCount: 2
Fore
SplineSet
273 800 m 1,0,-1
 319 800 l 1,1,-1
 319 683 l 1,2,3
 399 683 399 683 455.5 648 c 128,-1,4
 512 613 512 613 512 557 c 0,5,6
 512 527 512 527 491 509.5 c 128,-1,7
 470 492 470 492 449 492 c 128,-1,8
 428 492 428 492 411 497 c 1,9,10
 415 518 415 518 415 552 c 128,-1,11
 415 586 415 586 391.5 618.5 c 128,-1,12
 368 651 368 651 319 657 c 1,13,-1
 319 382 l 1,14,15
 346 374 346 374 388.5 355 c 128,-1,16
 431 336 431 336 443.5 327 c 128,-1,17
 456 318 456 318 474 302 c 128,-1,18
 492 286 492 286 501 270 c 0,19,20
 523 229 523 229 523 181 c 0,21,22
 523 105 523 105 467 53.5 c 128,-1,23
 411 2 411 2 319 -9 c 1,24,-1
 319 -130 l 1,25,-1
 273 -130 l 1,26,-1
 273 -12 l 1,27,28
 145 -10 145 -10 76 38 c 0,29,30
 36 66 36 66 36 105 c 0,31,32
 36 154 36 154 107 172 c 1,33,34
 122 90 122 90 168 54 c 128,-1,35
 214 18 214 18 273 14 c 1,36,-1
 273 293 l 1,37,38
 140 346 140 346 106 386 c 1,39,40
 66 430 66 430 66 497.5 c 128,-1,41
 66 565 66 565 118 617.5 c 128,-1,42
 170 670 170 670 273 681 c 1,43,-1
 273 800 l 1,0,-1
398 56 m 128,-1,45
 430 88 430 88 430 139.5 c 128,-1,46
 430 191 430 191 401.5 220 c 128,-1,47
 373 249 373 249 319 273 c 1,48,-1
 319 16 l 1,49,44
 366 24 366 24 398 56 c 128,-1,45
193 612 m 128,-1,51
 164 576 164 576 164 527 c 128,-1,52
 164 478 164 478 192.5 450 c 128,-1,53
 221 422 221 422 273 400 c 1,54,-1
 273 656 l 1,55,50
 222 648 222 648 193 612 c 128,-1,51
EndSplineSet
EndChar

StartChar: percent
Encoding: 37 37 8
Width: 733
GlyphClass: 2
Flags: W
LayerCount: 2
Fore
SplineSet
39 517 m 128,-1,1
 39 579 39 579 83.5 623 c 128,-1,2
 128 667 128 667 190 667 c 128,-1,3
 252 667 252 667 296.5 623 c 128,-1,4
 341 579 341 579 341 517 c 128,-1,5
 341 455 341 455 296.5 411 c 128,-1,6
 252 367 252 367 190 367 c 128,-1,7
 128 367 128 367 83.5 411 c 128,-1,0
 39 455 39 455 39 517 c 128,-1,1
93 517 m 128,-1,9
 93 475 93 475 121.5 444.5 c 128,-1,10
 150 414 150 414 190 414 c 128,-1,11
 230 414 230 414 258.5 444.5 c 128,-1,12
 287 475 287 475 287 517 c 128,-1,13
 287 559 287 559 258.5 589.5 c 128,-1,14
 230 620 230 620 190 620 c 128,-1,15
 150 620 150 620 121.5 589.5 c 128,-1,8
 93 559 93 559 93 517 c 128,-1,9
107 1 m 1,16,-1
 578 682 l 1,17,-1
 617 655 l 1,18,-1
 164 1 l 1,19,-1
 107 1 l 1,16,-1
393 147 m 128,-1,21
 393 209 393 209 437.5 253 c 128,-1,22
 482 297 482 297 544 297 c 128,-1,23
 606 297 606 297 650.5 253 c 128,-1,24
 695 209 695 209 695 147 c 128,-1,25
 695 85 695 85 650.5 41 c 128,-1,26
 606 -3 606 -3 544 -3 c 128,-1,27
 482 -3 482 -3 437.5 41 c 128,-1,20
 393 85 393 85 393 147 c 128,-1,21
447 147 m 128,-1,29
 447 105 447 105 475.5 74.5 c 128,-1,30
 504 44 504 44 544 44 c 128,-1,31
 584 44 584 44 612.5 74.5 c 128,-1,32
 641 105 641 105 641 147 c 128,-1,33
 641 189 641 189 612.5 219.5 c 128,-1,34
 584 250 584 250 544 250 c 128,-1,35
 504 250 504 250 475.5 219.5 c 128,-1,28
 447 189 447 189 447 147 c 128,-1,29
EndSplineSet
EndChar

StartChar: ampersand
Encoding: 38 38 9
Width: 798
GlyphClass: 2
Flags: W
LayerCount: 2
Fore
SplineSet
743 36 m 0,0,1
 760 36 760 36 780 39 c 1,2,3
 780 26 780 26 764 12 c 0,4,5
 735 -12 735 -12 671 -12 c 0,6,7
 573 -12 573 -12 487 64 c 1,8,9
 410 -11 410 -11 280 -11 c 0,10,11
 185 -11 185 -11 118.5 34 c 128,-1,12
 52 79 52 79 51 163 c 0,13,14
 51 225 51 225 96 274 c 128,-1,15
 141 323 141 323 216 345 c 1,16,17
 133 418 133 418 133 509 c 0,18,19
 133 579 133 579 181 626.5 c 128,-1,20
 229 674 229 674 308.5 674 c 128,-1,21
 388 674 388 674 436.5 633.5 c 128,-1,22
 485 593 485 593 485 530 c 0,23,24
 485 521 485 521 484 512 c 0,25,26
 477 447 477 447 425.5 404.5 c 128,-1,27
 374 362 374 362 326 360 c 1,28,-1
 320 364 l 1,29,30
 372 309 372 309 514 167 c 1,31,32
 537 224 537 224 537 280.5 c 128,-1,33
 537 337 537 337 530 376 c 1,34,35
 543 383 543 383 553 383 c 0,36,37
 578 383 578 383 578 327 c 0,38,39
 578 220 578 220 541 141 c 1,40,-1
 544 138 l 1,41,42
 651 36 651 36 743 36 c 0,0,1
159 169 m 0,43,44
 159 108 159 108 200.5 68.5 c 128,-1,45
 242 29 242 29 301 29 c 0,46,47
 399 29 399 29 461 88 c 1,48,49
 427 126 427 126 353 201 c 128,-1,50
 279 276 279 276 244 317 c 1,51,-1
 240 321 l 1,52,53
 159 264 159 264 159 169 c 0,43,44
303 382 m 1,54,55
 393 423 393 423 393 544 c 0,56,57
 393 587 393 587 370 617 c 128,-1,58
 347 647 347 647 306 647 c 128,-1,59
 265 647 265 647 240.5 616.5 c 128,-1,60
 216 586 216 586 216 531 c 0,61,62
 216 503 216 503 229.5 475.5 c 128,-1,63
 243 448 243 448 254.5 435 c 128,-1,64
 266 422 266 422 303 382 c 1,54,55
EndSplineSet
EndChar

StartChar: quotesingle
Encoding: 39 39 10
Width: 197
GlyphClass: 2
Flags: W
LayerCount: 2
Fore
SplineSet
142 677 m 1,0,-1
 120 452 l 1,1,-1
 76 452 l 1,2,-1
 55 677 l 1,3,-1
 142 677 l 1,0,-1
EndSplineSet
EndChar

StartChar: parenleft
Encoding: 40 40 11
Width: 285
GlyphClass: 2
Flags: W
LayerCount: 2
Fore
SplineSet
60 78.5 m 128,-1,1
 39 166 39 166 39 255 c 128,-1,2
 39 344 39 344 59 431 c 128,-1,3
 79 518 79 518 107 579 c 0,4,5
 164 703 164 703 211 758 c 2,6,-1
 231 782 l 1,7,-1
 254 765 l 1,8,9
 136 545 136 545 136 254 c 0,10,11
 136 116 136 116 168 -23 c 128,-1,12
 200 -162 200 -162 257 -255 c 1,13,-1
 234 -272 l 1,14,15
 206 -240 206 -240 169.5 -182 c 128,-1,16
 133 -124 133 -124 107 -66.5 c 128,-1,0
 81 -9 81 -9 60 78.5 c 128,-1,1
EndSplineSet
EndChar

StartChar: parenright
Encoding: 41 41 12
Width: 285
GlyphClass: 2
Flags: W
LayerCount: 2
Fore
SplineSet
149 254 m 0,0,1
 149 545 149 545 31 765 c 1,2,-1
 54 782 l 1,3,4
 78 758 78 758 116 696.5 c 128,-1,5
 154 635 154 635 179 577.5 c 128,-1,6
 204 520 204 520 225 432 c 128,-1,7
 246 344 246 344 246 255 c 128,-1,8
 246 166 246 166 226 79.5 c 128,-1,9
 206 -7 206 -7 178 -68 c 0,10,11
 119 -193 119 -193 71 -248 c 1,12,-1
 51 -272 l 1,13,-1
 28 -255 l 1,14,15
 85 -162 85 -162 117 -23 c 128,-1,16
 149 116 149 116 149 254 c 0,0,1
EndSplineSet
EndChar

StartChar: asterisk
Encoding: 42 42 13
Width: 450
GlyphClass: 2
Flags: W
LayerCount: 2
Fore
SplineSet
386 596 m 1,0,-1
 258 515 l 1,1,-1
 385 432 l 1,2,-1
 353 388 l 1,3,-1
 249 484 l 1,4,-1
 254 346 l 1,5,-1
 198 346 l 1,6,-1
 202 484 l 1,7,-1
 97 385 l 1,8,-1
 65 429 l 1,9,-1
 198 515 l 1,10,-1
 62 596 l 1,11,-1
 95 643 l 1,12,-1
 202 541 l 1,13,-1
 196 682 l 1,14,-1
 254 682 l 1,15,-1
 249 541 l 1,16,-1
 353 640 l 1,17,-1
 386 596 l 1,0,-1
EndSplineSet
EndChar

StartChar: plus
Encoding: 43 43 14
Width: 547
GlyphClass: 2
Flags: W
LayerCount: 2
Fore
SplineSet
498 264 m 1,0,-1
 498 201 l 1,1,-1
 305 201 l 1,2,-1
 305 0 l 1,3,-1
 237 0 l 1,4,-1
 237 201 l 1,5,-1
 48 201 l 1,6,-1
 48 264 l 1,7,-1
 237 264 l 1,8,-1
 237 456 l 1,9,-1
 305 456 l 1,10,-1
 305 264 l 1,11,-1
 498 264 l 1,0,-1
EndSplineSet
EndChar

StartChar: comma
Encoding: 44 44 15
Width: 247
GlyphClass: 2
Flags: W
LayerCount: 2
Fore
SplineSet
190 28 m 0,0,1
 190 -29 190 -29 145 -79 c 128,-1,2
 100 -129 100 -129 68 -143 c 1,3,-1
 52 -121 l 1,4,5
 84 -104 84 -104 106 -72 c 128,-1,6
 128 -40 128 -40 132 -5 c 1,7,8
 122 -11 122 -11 103 -11 c 128,-1,9
 84 -11 84 -11 71 5.5 c 128,-1,10
 58 22 58 22 58 49.5 c 128,-1,11
 58 77 58 77 77.5 93 c 128,-1,12
 97 109 97 109 126 109 c 128,-1,13
 155 109 155 109 172.5 89 c 128,-1,14
 190 69 190 69 190 28 c 0,0,1
EndSplineSet
EndChar

StartChar: hyphen
Encoding: 45 45 16
Width: 426
GlyphClass: 2
Flags: W
LayerCount: 2
Fore
SplineSet
358 301 m 1,0,-1
 358 235 l 1,1,-1
 68 235 l 1,2,-1
 68 301 l 1,3,-1
 358 301 l 1,0,-1
EndSplineSet
EndChar

StartChar: period
Encoding: 46 46 17
Width: 233
GlyphClass: 2
Flags: W
LayerCount: 2
Fore
SplineSet
159 5.5 m 128,-1,1
 142 -12 142 -12 116.5 -12 c 128,-1,2
 91 -12 91 -12 74 5 c 128,-1,3
 57 22 57 22 57 47.5 c 128,-1,4
 57 73 57 73 74 90.5 c 128,-1,5
 91 108 91 108 116 108 c 128,-1,6
 141 108 141 108 158.5 90 c 128,-1,7
 176 72 176 72 176 47.5 c 128,-1,0
 176 23 176 23 159 5.5 c 128,-1,1
EndSplineSet
EndChar

StartChar: slash
Encoding: 47 47 18
Width: 357
GlyphClass: 2
Flags: W
LayerCount: 2
Fore
SplineSet
110 0 m 1,0,-1
 46 0 l 1,1,-1
 247 668 l 1,2,-1
 311 668 l 1,3,-1
 110 0 l 1,0,-1
EndSplineSet
EndChar

StartChar: zero
Encoding: 48 48 19
Width: 611
GlyphClass: 2
Flags: W
LayerCount: 2
Fore
SplineSet
486.5 61.5 m 128,-1,1
 418 -11 418 -11 305.5 -11 c 128,-1,2
 193 -11 193 -11 124.5 61.5 c 128,-1,3
 56 134 56 134 56 244 c 128,-1,4
 56 354 56 354 124.5 426.5 c 128,-1,5
 193 499 193 499 305.5 499 c 128,-1,6
 418 499 418 499 486.5 426.5 c 128,-1,7
 555 354 555 354 555 244 c 128,-1,0
 555 134 555 134 486.5 61.5 c 128,-1,1
200 73.5 m 128,-1,9
 235 13 235 13 305.5 13 c 128,-1,10
 376 13 376 13 411 73.5 c 128,-1,11
 446 134 446 134 446 244 c 0,12,13
 446 474 446 474 305.5 474 c 128,-1,14
 165 474 165 474 165 244 c 0,15,8
 165 134 165 134 200 73.5 c 128,-1,9
EndSplineSet
EndChar

StartChar: one
Encoding: 49 49 20
Width: 342
GlyphClass: 2
Flags: W
LayerCount: 2
Fore
SplineSet
54 487 m 1,0,-1
 288 487 l 1,1,-1
 288 463 l 1,2,-1
 219 458 l 1,3,-1
 219 29 l 1,4,-1
 288 24 l 1,5,-1
 288 0 l 1,6,-1
 54 0 l 1,7,-1
 54 24 l 1,8,-1
 123 29 l 1,9,-1
 123 459 l 1,10,-1
 54 463 l 1,11,-1
 54 487 l 1,0,-1
EndSplineSet
EndChar

StartChar: two
Encoding: 50 50 21
Width: 510
GlyphClass: 2
Flags: W
LayerCount: 2
Fore
SplineSet
59 0 m 1,0,-1
 59 47 l 1,1,2
 151 93 151 93 234 174 c 0,3,4
 277 216 277 216 304 268 c 128,-1,5
 331 320 331 320 331 368.5 c 128,-1,6
 331 417 331 417 308 443.5 c 128,-1,7
 285 470 285 470 242 470 c 128,-1,8
 199 470 199 470 171.5 437 c 128,-1,9
 144 404 144 404 144 361 c 0,10,11
 144 345 144 345 147 327 c 1,12,13
 127 318 127 318 112 318 c 128,-1,14
 97 318 97 318 86 324 c 0,15,16
 61 338 61 338 61 374 c 0,17,18
 61 430 61 430 116 464.5 c 128,-1,19
 171 499 171 499 247.5 499 c 128,-1,20
 324 499 324 499 377.5 465 c 128,-1,21
 431 431 431 431 431 359 c 0,22,23
 431 310 431 310 401.5 261 c 128,-1,24
 372 212 372 212 327 176 c 0,25,26
 242 108 242 108 167 76 c 1,27,-1
 458 76 l 1,28,-1
 458 0 l 1,29,-1
 59 0 l 1,0,-1
EndSplineSet
EndChar

StartChar: three
Encoding: 51 51 22
Width: 542
GlyphClass: 2
Flags: W
LayerCount: 2
Fore
SplineSet
152 -117 m 0,0,1
 187 -164 187 -164 253 -164 c 128,-1,2
 319 -164 319 -164 354 -119.5 c 128,-1,3
 389 -75 389 -75 389 -4 c 128,-1,4
 389 67 389 67 342.5 108.5 c 128,-1,5
 296 150 296 150 219 150 c 0,6,7
 195 150 195 150 174 146 c 1,8,-1
 174 174 l 1,9,10
 257 178 257 178 314.5 224.5 c 128,-1,11
 372 271 372 271 372 356 c 0,12,13
 372 411 372 411 341.5 441.5 c 128,-1,14
 311 472 311 472 265 472 c 128,-1,15
 219 472 219 472 186 434 c 1,16,17
 162 408 162 408 162 366 c 0,18,19
 162 350 162 350 166 331 c 1,20,21
 145 322 145 322 129.5 322 c 128,-1,22
 114 322 114 322 103 328 c 0,23,24
 78 342 78 342 78 378 c 0,25,26
 78 433 78 433 134.5 467 c 128,-1,27
 191 501 191 501 256 501 c 128,-1,28
 321 501 321 501 364.5 487 c 128,-1,29
 408 473 408 473 440 436 c 128,-1,30
 472 399 472 399 472 343.5 c 128,-1,31
 472 288 472 288 431.5 238.5 c 128,-1,32
 391 189 391 189 320 177 c 1,33,34
 395 169 395 169 443.5 125 c 128,-1,35
 492 81 492 81 492 0 c 128,-1,36
 492 -81 492 -81 425.5 -136.5 c 128,-1,37
 359 -192 359 -192 252.5 -192 c 128,-1,38
 146 -192 146 -192 92.5 -155.5 c 128,-1,39
 39 -119 39 -119 39 -62 c 0,40,41
 39 -27 39 -27 62 -10 c 0,42,43
 75 0 75 0 92.5 0 c 128,-1,44
 110 0 110 0 128 -5 c 1,45,46
 126 -20 126 -20 126 -33 c 0,47,48
 126 -81 126 -81 152 -117 c 0,0,1
EndSplineSet
EndChar

StartChar: four
Encoding: 52 52 23
Width: 593
GlyphClass: 2
Flags: W
LayerCount: 2
Fore
SplineSet
564 74 m 1,0,-1
 564 22 l 1,1,-1
 429 22 l 1,2,-1
 429 -180 l 1,3,-1
 334 -180 l 1,4,-1
 334 22 l 1,5,-1
 33 22 l 1,6,-1
 19 55 l 1,7,-1
 348 488 l 1,8,-1
 429 488 l 1,9,-1
 429 74 l 1,10,-1
 564 74 l 1,0,-1
334 73 m 1,11,-1
 334 402 l 1,12,-1
 90 73 l 1,13,-1
 334 73 l 1,11,-1
EndSplineSet
EndChar

StartChar: five
Encoding: 53 53 24
Width: 533
GlyphClass: 2
Flags: W
LayerCount: 2
Fore
SplineSet
190 189 m 0,0,1
 139 189 139 189 94 175 c 1,2,-1
 125 488 l 1,3,-1
 472 488 l 1,4,-1
 466 410 l 1,5,-1
 161 410 l 1,6,-1
 142 228 l 1,7,8
 195 238 195 238 243.5 238 c 128,-1,9
 292 238 292 238 331.5 227.5 c 128,-1,10
 371 217 371 217 405.5 194.5 c 128,-1,11
 440 172 440 172 460 129 c 128,-1,12
 480 86 480 86 480 27 c 0,13,14
 480 -67 480 -67 413 -129 c 128,-1,15
 346 -191 346 -191 243.5 -191 c 128,-1,16
 141 -191 141 -191 89 -154 c 128,-1,17
 37 -117 37 -117 37 -62 c 0,18,19
 37 -26 37 -26 60 -8 c 0,20,21
 73 1 73 1 89 1 c 128,-1,22
 105 1 105 1 122 -5 c 1,23,24
 119 -21 119 -21 119 -37 c 0,25,26
 119 -80 119 -80 144 -114 c 1,27,28
 177 -162 177 -162 242.5 -162 c 128,-1,29
 308 -162 308 -162 341.5 -113 c 128,-1,30
 375 -64 375 -64 376 10 c 1,31,32
 376 189 376 189 190 189 c 0,0,1
EndSplineSet
EndChar

StartChar: six
Encoding: 54 54 25
Width: 574
GlyphClass: 2
Flags: W
LayerCount: 2
Fore
SplineSet
119 75 m 128,-1,1
 61 161 61 161 61 322 c 128,-1,2
 61 483 61 483 135.5 582.5 c 128,-1,3
 210 682 210 682 329 682 c 0,4,5
 402 682 402 682 454 648.5 c 128,-1,6
 506 615 506 615 506 561 c 0,7,8
 506 533 506 533 486.5 515.5 c 128,-1,9
 467 498 467 498 446.5 498 c 128,-1,10
 426 498 426 498 413 504 c 1,11,12
 417 524 417 524 417 546 c 0,13,14
 417 589 417 589 393.5 621.5 c 128,-1,15
 370 654 370 654 325 654 c 0,16,17
 163 654 163 654 163 309 c 0,18,19
 163 175 163 175 196.5 97.5 c 128,-1,20
 230 20 230 20 300 20 c 0,21,22
 355 20 355 20 383 65 c 128,-1,23
 411 110 411 110 411 190.5 c 128,-1,24
 411 271 411 271 378 308.5 c 128,-1,25
 345 346 345 346 290 346 c 0,26,27
 254 346 254 346 211 330 c 1,28,-1
 200 358 l 1,29,30
 258 394 258 394 331.5 394 c 128,-1,31
 405 394 405 394 460.5 345.5 c 128,-1,32
 516 297 516 297 516 204 c 128,-1,33
 516 111 516 111 455.5 50 c 128,-1,34
 395 -11 395 -11 286 -11 c 128,-1,0
 177 -11 177 -11 119 75 c 128,-1,1
EndSplineSet
EndChar

StartChar: seven
Encoding: 55 55 26
Width: 469
GlyphClass: 2
Flags: W
LayerCount: 2
Fore
SplineSet
462 488 m 1,0,-1
 132 -195 l 1,1,-1
 93 -176 l 1,2,-1
 374 410 l 1,3,-1
 29 410 l 1,4,-1
 37 488 l 1,5,-1
 462 488 l 1,0,-1
EndSplineSet
EndChar

StartChar: eight
Encoding: 56 56 27
Width: 567
GlyphClass: 2
Flags: W
LayerCount: 2
Fore
SplineSet
444 45.5 m 128,-1,1
 379 -11 379 -11 274.5 -11 c 128,-1,2
 170 -11 170 -11 113.5 35 c 128,-1,3
 57 81 57 81 57 150.5 c 128,-1,4
 57 220 57 220 100.5 269.5 c 128,-1,5
 144 319 144 319 218 340 c 1,6,7
 154 374 154 374 121 412.5 c 128,-1,8
 88 451 88 451 88 512 c 0,9,10
 88 591 88 591 144 637 c 128,-1,11
 200 683 200 683 294 683 c 128,-1,12
 388 683 388 683 436.5 641.5 c 128,-1,13
 485 600 485 600 485 535 c 128,-1,14
 485 470 485 470 440 425 c 128,-1,15
 395 380 395 380 346 375 c 1,16,17
 428 333 428 333 468.5 293 c 128,-1,18
 509 253 509 253 509 187 c 0,19,0
 509 102 509 102 444 45.5 c 128,-1,1
376.5 54.5 m 128,-1,21
 417 89 417 89 417 149 c 128,-1,22
 417 209 417 209 377 245.5 c 128,-1,23
 337 282 337 282 258 322 c 1,24,25
 209 294 209 294 183 248.5 c 128,-1,26
 157 203 157 203 157 149 c 128,-1,27
 157 95 157 95 193.5 57.5 c 128,-1,28
 230 20 230 20 283 20 c 128,-1,20
 336 20 336 20 376.5 54.5 c 128,-1,21
207.5 621.5 m 128,-1,30
 173 589 173 589 173 534.5 c 128,-1,31
 173 480 173 480 207.5 449 c 128,-1,32
 242 418 242 418 311 391 c 1,33,34
 394 432 394 432 394 538 c 0,35,36
 394 594 394 594 363 624 c 128,-1,37
 332 654 332 654 287 654 c 128,-1,29
 242 654 242 654 207.5 621.5 c 128,-1,30
EndSplineSet
EndChar

StartChar: nine
Encoding: 57 57 28
Width: 563
GlyphClass: 2
Flags: W
LayerCount: 2
Fore
SplineSet
146 -55 m 0,0,1
 146 -99 146 -99 174.5 -131.5 c 128,-1,2
 203 -164 203 -164 246.5 -164 c 128,-1,3
 290 -164 290 -164 317.5 -146 c 128,-1,4
 345 -128 345 -128 361.5 -95 c 128,-1,5
 378 -62 378 -62 388 -28.5 c 128,-1,6
 398 5 398 5 402 52 c 0,7,8
 409 120 409 120 409 200 c 0,9,10
 409 473 409 473 277 473 c 0,11,12
 221 473 221 473 189.5 427 c 128,-1,13
 158 381 158 381 158 302 c 0,14,15
 158 145 158 145 276 145 c 0,16,17
 316 145 316 145 361 161 c 1,18,-1
 371 133 l 1,19,20
 312 97 312 97 236 97 c 128,-1,21
 160 97 160 97 106.5 145.5 c 128,-1,22
 53 194 53 194 53 286.5 c 128,-1,23
 53 379 53 379 115 440.5 c 128,-1,24
 177 502 177 502 287 502 c 128,-1,25
 397 502 397 502 454 420 c 128,-1,26
 511 338 511 338 511 193 c 0,27,28
 511 11 511 11 440.5 -90.5 c 128,-1,29
 370 -192 370 -192 253 -192 c 0,30,31
 173 -192 173 -192 118 -158 c 128,-1,32
 63 -124 63 -124 63 -67 c 0,33,34
 63 -31 63 -31 88 -18 c 1,35,36
 99 -11 99 -11 114 -11 c 128,-1,37
 129 -11 129 -11 149 -20 c 1,38,39
 146 -38 146 -38 146 -55 c 0,0,1
EndSplineSet
EndChar

StartChar: colon
Encoding: 58 58 29
Width: 255
GlyphClass: 2
Flags: W
LayerCount: 2
Fore
SplineSet
170 5.5 m 128,-1,1
 153 -12 153 -12 127.5 -12 c 128,-1,2
 102 -12 102 -12 85 5 c 128,-1,3
 68 22 68 22 68 47.5 c 128,-1,4
 68 73 68 73 85 90.5 c 128,-1,5
 102 108 102 108 127 108 c 128,-1,6
 152 108 152 108 169.5 90 c 128,-1,7
 187 72 187 72 187 47.5 c 128,-1,0
 187 23 187 23 170 5.5 c 128,-1,1
170 341.5 m 128,-1,9
 153 324 153 324 127.5 324 c 128,-1,10
 102 324 102 324 85 341 c 128,-1,11
 68 358 68 358 68 383.5 c 128,-1,12
 68 409 68 409 85 426.5 c 128,-1,13
 102 444 102 444 127 444 c 128,-1,14
 152 444 152 444 169.5 426 c 128,-1,15
 187 408 187 408 187 383.5 c 128,-1,8
 187 359 187 359 170 341.5 c 128,-1,9
EndSplineSet
EndChar

StartChar: semicolon
Encoding: 59 59 30
Width: 281
GlyphClass: 2
Flags: W
LayerCount: 2
Fore
SplineSet
185 341.5 m 128,-1,1
 168 324 168 324 142.5 324 c 128,-1,2
 117 324 117 324 100 341 c 128,-1,3
 83 358 83 358 83 383.5 c 128,-1,4
 83 409 83 409 100 426.5 c 128,-1,5
 117 444 117 444 142 444 c 128,-1,6
 167 444 167 444 184.5 426 c 128,-1,7
 202 408 202 408 202 383.5 c 128,-1,0
 202 359 202 359 185 341.5 c 128,-1,1
208 28 m 0,8,9
 208 -29 208 -29 163 -79 c 128,-1,10
 118 -129 118 -129 86 -143 c 1,11,-1
 70 -121 l 1,12,13
 102 -104 102 -104 124 -72 c 128,-1,14
 146 -40 146 -40 150 -5 c 1,15,16
 140 -11 140 -11 121 -11 c 128,-1,17
 102 -11 102 -11 89 5.5 c 128,-1,18
 76 22 76 22 76 49.5 c 128,-1,19
 76 77 76 77 95.5 93 c 128,-1,20
 115 109 115 109 144 109 c 128,-1,21
 173 109 173 109 190.5 89 c 128,-1,22
 208 69 208 69 208 28 c 0,8,9
EndSplineSet
EndChar

StartChar: less
Encoding: 60 60 31
Width: 539
GlyphClass: 2
Flags: W
LayerCount: 2
Fore
SplineSet
479 406 m 1,0,-1
 116 235 l 1,1,-1
 479 57 l 1,2,-1
 452 2 l 1,3,-1
 41 208 l 1,4,-1
 41 255 l 1,5,-1
 454 459 l 1,6,-1
 479 406 l 1,0,-1
EndSplineSet
EndChar

StartChar: equal
Encoding: 61 61 32
Width: 602
GlyphClass: 2
Flags: W
LayerCount: 2
Fore
SplineSet
526 328 m 1,0,-1
 526 265 l 1,1,-1
 76 265 l 1,2,-1
 76 328 l 1,3,-1
 526 328 l 1,0,-1
526 200 m 1,4,-1
 526 137 l 1,5,-1
 76 137 l 1,6,-1
 76 200 l 1,7,-1
 526 200 l 1,4,-1
EndSplineSet
EndChar

StartChar: greater
Encoding: 62 62 33
Width: 539
GlyphClass: 2
Flags: W
LayerCount: 2
Fore
SplineSet
423 235 m 1,0,-1
 60 406 l 1,1,-1
 85 459 l 1,2,-1
 498 255 l 1,3,-1
 498 208 l 1,4,-1
 87 2 l 1,5,-1
 60 57 l 1,6,-1
 423 235 l 1,0,-1
EndSplineSet
EndChar

StartChar: question
Encoding: 63 63 34
Width: 437
GlyphClass: 2
Flags: W
LayerCount: 2
Fore
SplineSet
223 5.5 m 128,-1,1
 206 -12 206 -12 180.5 -12 c 128,-1,2
 155 -12 155 -12 138 5 c 128,-1,3
 121 22 121 22 121 47.5 c 128,-1,4
 121 73 121 73 138 90.5 c 128,-1,5
 155 108 155 108 180 108 c 128,-1,6
 205 108 205 108 222.5 90 c 128,-1,7
 240 72 240 72 240 47.5 c 128,-1,0
 240 23 240 23 223 5.5 c 128,-1,1
206 262 m 1,8,9
 205 259 205 259 205 251 c 128,-1,10
 205 243 205 243 214 219 c 1,11,12
 192 212 192 212 176 212 c 0,13,14
 134 212 134 212 134 260 c 0,15,16
 134 322 134 322 194 382 c 2,17,-1
 245 433 l 2,18,19
 305 493 305 493 305 559 c 0,20,21
 305 662 305 662 224 662 c 0,22,23
 178 662 178 662 148 622 c 0,24,25
 126 593 126 593 126 545 c 0,26,27
 126 529 126 529 129 511 c 1,28,29
 111 505 111 505 95 505 c 128,-1,30
 79 505 79 505 66 512 c 0,31,32
 42 527 42 527 42 561 c 0,33,34
 42 620 42 620 95 656 c 128,-1,35
 148 692 148 692 225 692 c 0,36,37
 400 692 400 692 400 549 c 0,38,39
 400 504 400 504 369.5 459 c 128,-1,40
 339 414 339 414 303 384 c 0,41,42
 206 303 206 303 206 262 c 1,8,9
EndSplineSet
EndChar

StartChar: at
Encoding: 64 64 35
Width: 813
GlyphClass: 2
Flags: W
LayerCount: 2
Fore
SplineSet
352 141 m 0,0,1
 311 141 311 141 282.5 164.5 c 128,-1,2
 254 188 254 188 255 229 c 1,3,4
 262 341 262 341 478 341 c 1,5,-1
 481 405 l 2,6,7
 481 409 481 409 481 413 c 0,8,9
 481 497 481 497 416 497 c 0,10,11
 381 497 381 497 362 473 c 128,-1,12
 343 449 343 449 343 416 c 0,13,14
 343 406 343 406 345 394 c 1,15,16
 334 388 334 388 319 388 c 128,-1,17
 304 388 304 388 292 397.5 c 128,-1,18
 280 407 280 407 280 424 c 1,19,20
 283 473 283 473 326 495 c 128,-1,21
 369 517 369 517 414 517 c 0,22,23
 487 517 487 517 515 488.5 c 128,-1,24
 543 460 543 460 543 402 c 0,25,26
 543 398 543 398 543 394 c 2,27,-1
 536 227 l 2,28,29
 534 182 534 182 576 182 c 0,30,31
 620 182 620 182 652.5 239.5 c 128,-1,32
 685 297 685 297 685 397 c 0,33,34
 685 520 685 520 620 584.5 c 128,-1,35
 555 649 555 649 439 649 c 0,36,37
 362 649 362 649 302 621.5 c 128,-1,38
 242 594 242 594 207 548 c 0,39,40
 137 456 137 456 137 323 c 128,-1,41
 137 190 137 190 206 107 c 128,-1,42
 275 24 275 24 411 24 c 0,43,44
 484 24 484 24 550 44 c 128,-1,45
 616 64 616 64 646 84 c 2,46,-1
 675 104 l 1,47,-1
 689 80 l 1,48,49
 680 71 680 71 646.5 51.5 c 128,-1,50
 613 32 613 32 583 20 c 0,51,52
 503 -12 503 -12 411 -12 c 0,53,54
 254 -12 254 -12 155 83 c 128,-1,55
 56 178 56 178 56 324 c 0,56,57
 56 466 56 466 152 570 c 0,58,59
 199 621 199 621 275.5 651 c 128,-1,60
 352 681 352 681 449 681 c 0,61,62
 586 681 586 681 676 608.5 c 128,-1,63
 766 536 766 536 766 404 c 0,64,65
 766 343 766 343 745.5 292.5 c 128,-1,66
 725 242 725 242 692 212 c 0,67,68
 625 150 625 150 554 150 c 0,69,70
 498 150 498 150 478 186 c 0,71,72
 474 195 474 195 472 207 c 1,73,74
 435 141 435 141 352 141 c 0,0,1
328 225 m 0,75,76
 328 200 328 200 342 186 c 128,-1,77
 356 172 356 172 384 172 c 128,-1,78
 412 172 412 172 441.5 197 c 128,-1,79
 471 222 471 222 474 260 c 1,80,-1
 477 322 l 1,81,82
 328 322 328 322 328 225 c 0,75,76
EndSplineSet
EndChar

StartChar: A
Encoding: 65 65 36
Width: 677
GlyphClass: 2
Flags: W
LayerCount: 2
Fore
SplineSet
699 0 m 1,0,-1
 429 0 l 1,1,-1
 429 21 l 1,2,-1
 507 33 l 1,3,-1
 419 263 l 1,4,-1
 194 263 l 1,5,-1
 110 50 l 1,6,-1
 199 24 l 1,7,-1
 199 0 l 1,8,-1
 -10 0 l 1,9,-1
 -10 24 l 1,10,-1
 66 50 l 1,11,-1
 312 668 l 1,12,-1
 361 668 l 1,13,-1
 622 33 l 1,14,-1
 699 24 l 1,15,-1
 699 0 l 1,0,-1
404 300 m 1,16,-1
 306 543 l 1,17,-1
 208 300 l 1,18,-1
 404 300 l 1,16,-1
EndSplineSet
EndChar

StartChar: B
Encoding: 66 66 37
Width: 631
GlyphClass: 2
Flags: W
LayerCount: 2
Fore
SplineSet
319 668 m 2,0,1
 440 668 440 668 494.5 629 c 128,-1,2
 549 590 549 590 549 518 c 128,-1,3
 549 446 549 446 510.5 403.5 c 128,-1,4
 472 361 472 361 398 353 c 1,5,6
 495 336 495 336 539 295.5 c 128,-1,7
 583 255 583 255 583 181 c 0,8,9
 583 89 583 89 507 44.5 c 128,-1,10
 431 0 431 0 310 0 c 2,11,-1
 48 0 l 1,12,-1
 48 24 l 1,13,-1
 123 33 l 1,14,-1
 123 635 l 1,15,-1
 36 644 l 1,16,-1
 36 668 l 1,17,-1
 319 668 l 2,0,1
361 324 m 0,18,19
 323 332 323 332 287 332 c 128,-1,20
 251 332 251 332 228 331 c 1,21,-1
 228 28 l 1,22,23
 253 21 253 21 273.5 21 c 128,-1,24
 294 21 294 21 322.5 24 c 128,-1,25
 351 27 351 27 388.5 40.5 c 128,-1,26
 426 54 426 54 451 93 c 128,-1,27
 476 132 476 132 476 189 c 0,28,29
 476 300 476 300 361 324 c 0,18,19
228 641 m 1,30,-1
 228 361 l 1,31,-1
 270 361 l 2,32,33
 439 361 439 361 439 515 c 0,34,35
 439 582 439 582 404.5 611.5 c 128,-1,36
 370 641 370 641 293 641 c 2,37,-1
 228 641 l 1,30,-1
EndSplineSet
EndChar

StartChar: C
Encoding: 67 67 38
Width: 708
GlyphClass: 2
Flags: W
LayerCount: 2
Fore
SplineSet
436 675 m 1,0,1
 436 675 436 675 642 666 c 1,2,-1
 648 484 l 1,3,-1
 616 484 l 1,4,-1
 582 615 l 1,5,6
 528 638 528 638 454 638 c 0,7,8
 333 638 333 638 253.5 558.5 c 128,-1,9
 174 479 174 479 174 327 c 128,-1,10
 174 175 174 175 251.5 102.5 c 128,-1,11
 329 30 329 30 450 30 c 0,12,13
 531 30 531 30 595 54 c 1,14,-1
 632 169 l 1,15,-1
 660 168 l 1,16,-1
 654 18 l 1,17,18
 539 -6 539 -6 456.5 -6 c 128,-1,19
 374 -6 374 -6 320.5 3 c 128,-1,20
 267 12 267 12 216 35 c 128,-1,21
 165 58 165 58 129.5 94 c 128,-1,22
 94 130 94 130 72.5 187.5 c 128,-1,23
 51 245 51 245 51 328 c 128,-1,24
 51 411 51 411 83.5 481.5 c 128,-1,25
 116 552 116 552 172 593 c 0,26,27
 283 675 283 675 436 675 c 1,0,1
EndSplineSet
EndChar

StartChar: D
Encoding: 68 68 39
Width: 802
GlyphClass: 2
Flags: W
LayerCount: 2
Fore
SplineSet
438 632 m 128,-1,1
 418 634 418 634 389.5 635.5 c 128,-1,2
 361 637 361 637 322.5 637 c 128,-1,3
 284 637 284 637 231 632 c 1,4,-1
 231 35 l 1,5,-1
 341 32 l 1,6,7
 444 36 444 36 493 58 c 0,8,9
 626 119 626 119 627 334 c 0,10,11
 627 418 627 418 608 478 c 128,-1,12
 589 538 589 538 567.5 567 c 128,-1,13
 546 596 546 596 502 613 c 128,-1,0
 458 630 458 630 438 632 c 128,-1,1
162 667 m 1,14,-1
 356 672 l 1,15,16
 445 672 445 672 512 657 c 128,-1,17
 579 642 579 642 635 606 c 0,18,19
 749 533 749 533 749 335 c 0,20,21
 749 0 749 0 341 0 c 2,22,-1
 39 0 l 1,23,-1
 39 26 l 1,24,-1
 126 34 l 1,25,-1
 126 633 l 1,26,-1
 39 644 l 1,27,-1
 39 670 l 1,28,29
 100 667 100 667 162 667 c 1,14,-1
EndSplineSet
EndChar

StartChar: E
Encoding: 69 69 40
Width: 597
GlyphClass: 2
Flags: W
LayerCount: 2
Fore
SplineSet
39 0 m 1,0,-1
 39 24 l 1,1,-1
 126 33 l 1,2,-1
 126 635 l 1,3,-1
 39 646 l 1,4,-1
 39 668 l 1,5,-1
 518 668 l 1,6,-1
 519 526 l 1,7,-1
 493 526 l 1,8,-1
 459 632 l 1,9,-1
 229 635 l 1,10,-1
 229 366 l 1,11,-1
 431 366 l 1,12,-1
 462 440 l 1,13,-1
 482 440 l 1,14,-1
 482 254 l 1,15,-1
 461 254 l 1,16,-1
 431 330 l 1,17,-1
 229 330 l 1,18,-1
 229 32 l 1,19,-1
 489 35 l 1,20,-1
 536 149 l 1,21,-1
 562 149 l 1,22,-1
 550 0 l 1,23,-1
 39 0 l 1,0,-1
EndSplineSet
EndChar

StartChar: F
Encoding: 70 70 41
Width: 564
GlyphClass: 2
Flags: W
LayerCount: 2
Fore
SplineSet
229 313 m 1,0,-1
 229 33 l 1,1,-1
 316 24 l 1,2,-1
 316 0 l 1,3,-1
 39 0 l 1,4,-1
 39 24 l 1,5,-1
 126 33 l 1,6,-1
 126 634 l 1,7,-1
 39 646 l 1,8,-1
 39 668 l 1,9,-1
 524 668 l 1,10,-1
 525 526 l 1,11,-1
 499 526 l 1,12,-1
 465 632 l 1,13,-1
 229 635 l 1,14,-1
 229 349 l 1,15,-1
 437 349 l 1,16,-1
 468 423 l 1,17,-1
 488 423 l 1,18,-1
 488 237 l 1,19,-1
 467 237 l 1,20,-1
 437 313 l 1,21,-1
 229 313 l 1,0,-1
EndSplineSet
EndChar

StartChar: G
Encoding: 71 71 42
Width: 747
GlyphClass: 2
Flags: W
LayerCount: 2
Fore
SplineSet
656 18 m 1,0,1
 560 -6 560 -6 436 -6 c 0,2,3
 228 -6 228 -6 130 94 c 0,4,5
 94 130 94 130 72.5 187.5 c 128,-1,6
 51 245 51 245 51 328 c 128,-1,7
 51 411 51 411 83.5 481.5 c 128,-1,8
 116 552 116 552 172 593 c 0,9,10
 283 675 283 675 436 675 c 1,11,-1
 642 666 l 1,12,-1
 648 484 l 1,13,-1
 616 484 l 1,14,-1
 582 615 l 1,15,16
 528 638 528 638 454 638 c 0,17,18
 333 638 333 638 253.5 558.5 c 128,-1,19
 174 479 174 479 174 327 c 128,-1,20
 174 175 174 175 251.5 102.5 c 128,-1,21
 329 30 329 30 450 30 c 0,22,23
 509 30 509 30 558 42 c 1,24,-1
 558 255 l 1,25,-1
 475 264 l 1,26,-1
 475 288 l 1,27,-1
 716 288 l 1,28,-1
 716 264 l 1,29,-1
 656 255 l 1,30,-1
 656 18 l 1,0,1
EndSplineSet
EndChar

StartChar: H
Encoding: 72 72 43
Width: 813
GlyphClass: 2
Flags: W
LayerCount: 2
Fore
SplineSet
774 0 m 1,0,-1
 497 0 l 1,1,-1
 497 24 l 1,2,-1
 584 33 l 1,3,-1
 584 330 l 1,4,-1
 229 330 l 1,5,-1
 229 33 l 1,6,-1
 316 24 l 1,7,-1
 316 0 l 1,8,-1
 39 0 l 1,9,-1
 39 24 l 1,10,-1
 126 33 l 1,11,-1
 126 635 l 1,12,-1
 39 644 l 1,13,-1
 39 668 l 1,14,-1
 316 668 l 1,15,-1
 316 644 l 1,16,-1
 229 635 l 1,17,-1
 229 366 l 1,18,-1
 584 366 l 1,19,-1
 584 635 l 1,20,-1
 497 644 l 1,21,-1
 497 668 l 1,22,-1
 774 668 l 1,23,-1
 774 644 l 1,24,-1
 687 635 l 1,25,-1
 687 33 l 1,26,-1
 774 24 l 1,27,-1
 774 0 l 1,0,-1
EndSplineSet
EndChar

StartChar: I
Encoding: 73 73 44
Width: 355
GlyphClass: 2
Flags: W
LayerCount: 2
Fore
SplineSet
316 0 m 1,0,-1
 39 0 l 1,1,-1
 39 24 l 1,2,-1
 126 33 l 1,3,-1
 126 635 l 1,4,-1
 39 644 l 1,5,-1
 39 668 l 1,6,-1
 316 668 l 1,7,-1
 316 644 l 1,8,-1
 229 635 l 1,9,-1
 229 33 l 1,10,-1
 316 24 l 1,11,-1
 316 0 l 1,0,-1
EndSplineSet
EndChar

StartChar: J
Encoding: 74 74 45
Width: 341
GlyphClass: 2
Flags: W
LayerCount: 2
Fore
SplineSet
119 -3 m 2,0,-1
 119 635 l 1,1,-1
 32 644 l 1,2,-1
 32 668 l 1,3,-1
 309 668 l 1,4,-1
 309 644 l 1,5,-1
 222 635 l 1,6,-1
 222 53 l 2,7,8
 222 -166 222 -166 101 -224 c 0,9,10
 54 -246 54 -246 -7 -246 c 128,-1,11
 -68 -246 -68 -246 -108 -225 c 128,-1,12
 -148 -204 -148 -204 -148 -154 c 0,13,14
 -148 -133 -148 -133 -129.5 -117.5 c 128,-1,15
 -111 -102 -111 -102 -90 -102 c 128,-1,16
 -69 -102 -69 -102 -56 -106 c 1,17,18
 -62 -127 -62 -127 -62 -145 c 0,19,20
 -62 -212 -62 -212 2 -212 c 0,21,22
 119 -212 119 -212 119 -3 c 2,0,-1
EndSplineSet
EndChar

StartChar: K
Encoding: 75 75 46
Width: 704
GlyphClass: 2
Flags: W
LayerCount: 2
Fore
SplineSet
447 668 m 1,0,-1
 650 668 l 1,1,-1
 650 645 l 1,2,-1
 568 618 l 1,3,-1
 309 372 l 1,4,-1
 637 35 l 1,5,-1
 717 28 l 1,6,-1
 717 0 l 1,7,-1
 427 0 l 1,8,-1
 427 28 l 1,9,-1
 498 34 l 1,10,-1
 229 320 l 1,11,-1
 229 33 l 1,12,-1
 316 24 l 1,13,-1
 316 0 l 1,14,-1
 39 0 l 1,15,-1
 39 24 l 1,16,-1
 126 33 l 1,17,-1
 126 635 l 1,18,-1
 39 644 l 1,19,-1
 39 668 l 1,20,-1
 316 668 l 1,21,-1
 316 644 l 1,22,-1
 229 635 l 1,23,-1
 229 349 l 1,24,-1
 518 622 l 1,25,-1
 447 644 l 1,26,-1
 447 668 l 1,0,-1
EndSplineSet
EndChar

StartChar: L
Encoding: 76 76 47
Width: 568
GlyphClass: 2
Flags: W
LayerCount: 2
Fore
SplineSet
39 668 m 1,0,-1
 316 668 l 1,1,-1
 316 644 l 1,2,-1
 229 635 l 1,3,-1
 229 32 l 1,4,-1
 481 35 l 1,5,-1
 528 149 l 1,6,-1
 554 149 l 1,7,-1
 542 0 l 1,8,-1
 39 0 l 1,9,-1
 39 24 l 1,10,-1
 126 33 l 1,11,-1
 126 635 l 1,12,-1
 39 644 l 1,13,-1
 39 668 l 1,0,-1
EndSplineSet
EndChar

StartChar: M
Encoding: 77 77 48
Width: 908
GlyphClass: 2
Flags: W
LayerCount: 2
Fore
SplineSet
858 668 m 1,0,-1
 858 645 l 1,1,-1
 773 635 l 1,2,-1
 795 30 l 1,3,-1
 872 24 l 1,4,-1
 872 0 l 1,5,-1
 618 0 l 1,6,-1
 618 21 l 1,7,-1
 694 30 l 1,8,-1
 668 546 l 1,9,-1
 467 0 l 1,10,-1
 414 0 l 1,11,-1
 174 541 l 1,12,-1
 155 49 l 1,13,-1
 239 24 l 1,14,-1
 239 0 l 1,15,-1
 34 0 l 1,16,-1
 34 24 l 1,17,-1
 117 53 l 1,18,-1
 137 635 l 1,19,-1
 52 645 l 1,20,-1
 52 668 l 1,21,-1
 229 668 l 1,22,-1
 467 111 l 1,23,-1
 672 668 l 1,24,-1
 858 668 l 1,0,-1
EndSplineSet
EndChar

StartChar: N
Encoding: 78 78 49
Width: 798
GlyphClass: 2
Flags: W
LayerCount: 2
Fore
SplineSet
549 668 m 1,0,-1
 751 668 l 1,1,-1
 751 644 l 1,2,-1
 681 621 l 1,3,-1
 681 0 l 1,4,-1
 626 0 l 1,5,-1
 168 549 l 1,6,-1
 168 49 l 1,7,-1
 251 24 l 1,8,-1
 251 0 l 1,9,-1
 45 0 l 1,10,-1
 45 24 l 1,11,-1
 125 49 l 1,12,-1
 125 635 l 1,13,-1
 38 645 l 1,14,-1
 38 668 l 1,15,-1
 202 668 l 1,16,-1
 626 155 l 1,17,-1
 626 621 l 1,18,-1
 549 644 l 1,19,-1
 549 668 l 1,0,-1
EndSplineSet
EndChar

StartChar: O
Encoding: 79 79 50
Width: 771
GlyphClass: 2
Flags: W
LayerCount: 2
Fore
SplineSet
630 87.5 m 128,-1,1
 539 -11 539 -11 386 -11 c 128,-1,2
 233 -11 233 -11 141.5 87.5 c 128,-1,3
 50 186 50 186 50 336 c 128,-1,4
 50 486 50 486 141.5 584.5 c 128,-1,5
 233 683 233 683 386 683 c 128,-1,6
 539 683 539 683 630 584.5 c 128,-1,7
 721 486 721 486 721 336 c 128,-1,0
 721 186 721 186 630 87.5 c 128,-1,1
387 20 m 0,8,9
 599 20 599 20 599 336 c 0,10,11
 599 488 599 488 550.5 570 c 128,-1,12
 502 652 502 652 386 652 c 128,-1,13
 270 652 270 652 221 570.5 c 128,-1,14
 172 489 172 489 172 336 c 0,15,16
 172 20 172 20 387 20 c 0,8,9
EndSplineSet
EndChar

StartChar: P
Encoding: 80 80 51
Width: 595
GlyphClass: 2
Flags: W
LayerCount: 2
Fore
SplineSet
569 501 m 0,0,1
 569 445 569 445 545 405 c 128,-1,2
 521 365 521 365 480 344 c 0,3,4
 403 306 403 306 296 306 c 0,5,6
 270 306 270 306 226 310 c 1,7,-1
 226 29 l 1,8,-1
 303 24 l 1,9,-1
 303 0 l 1,10,-1
 48 0 l 1,11,-1
 48 24 l 1,12,-1
 123 29 l 1,13,-1
 123 635 l 1,14,-1
 36 646 l 1,15,-1
 36 670 l 1,16,-1
 223 670 l 1,17,-1
 342 673 l 1,18,19
 569 673 569 673 569 501 c 0,0,1
270 337 m 0,20,21
 361 337 361 337 410 381 c 128,-1,22
 459 425 459 425 459 499.5 c 128,-1,23
 459 574 459 574 424 608.5 c 128,-1,24
 389 643 389 643 312 643 c 0,25,26
 278 643 278 643 226 639 c 1,27,-1
 226 339 l 1,28,29
 241 337 241 337 270 337 c 0,20,21
EndSplineSet
EndChar

StartChar: Q
Encoding: 81 81 52
Width: 772
GlyphClass: 2
Flags: W
LayerCount: 2
Fore
SplineSet
286 -90 m 1,0,1
 318 -77 318 -77 370.5 -77 c 128,-1,2
 423 -77 423 -77 525.5 -116.5 c 128,-1,3
 628 -156 628 -156 662 -156 c 0,4,5
 711 -156 711 -156 741 -98 c 1,6,-1
 764 -108 l 1,7,8
 720 -229 720 -229 603 -229 c 0,9,10
 537 -229 537 -229 380.5 -174.5 c 128,-1,11
 224 -120 224 -120 154 -120 c 1,12,-1
 157 -105 l 1,13,14
 267 -76 267 -76 370 -14 c 1,15,16
 223 -8 223 -8 137 89.5 c 128,-1,17
 51 187 51 187 51 336.5 c 128,-1,18
 51 486 51 486 142 584.5 c 128,-1,19
 233 683 233 683 387 683 c 128,-1,20
 541 683 541 683 631.5 584 c 128,-1,21
 722 485 722 485 722 339 c 128,-1,22
 722 193 722 193 642.5 96.5 c 128,-1,23
 563 0 563 0 427 -13 c 1,24,25
 333 -68 333 -68 285 -88 c 1,26,-1
 286 -90 l 1,0,1
388 16 m 0,27,28
 600 16 600 16 600 334 c 0,29,30
 600 488 600 488 551.5 570 c 128,-1,31
 503 652 503 652 387 652 c 128,-1,32
 271 652 271 652 222 570 c 128,-1,33
 173 488 173 488 173 334 c 0,34,35
 173 16 173 16 388 16 c 0,27,28
EndSplineSet
EndChar

StartChar: R
Encoding: 82 82 53
Width: 658
GlyphClass: 2
Flags: W
LayerCount: 2
Fore
SplineSet
226 352 m 1,0,-1
 276 352 l 2,1,2
 455 352 455 352 455 502 c 0,3,4
 455 576 455 576 420 609.5 c 128,-1,5
 385 643 385 643 308 643 c 0,6,7
 278 643 278 643 226 639 c 1,8,-1
 226 352 l 1,0,-1
224 670 m 1,9,-1
 338 673 l 1,10,11
 565 673 565 673 565 502 c 0,12,13
 565 428 565 428 514.5 380.5 c 128,-1,14
 464 333 464 333 384 333 c 0,15,16
 377 333 377 333 359 335 c 1,17,-1
 359 333 l 1,18,19
 466 318 466 318 506.5 263.5 c 128,-1,20
 547 209 547 209 547 97 c 0,21,22
 547 27 547 27 573 16 c 1,23,24
 585 8 585 8 606.5 8 c 128,-1,25
 628 8 628 8 662 21 c 1,26,-1
 662 -4 l 1,27,28
 609 -23 609 -23 565 -23 c 0,29,30
 467 -23 467 -23 444 61 c 0,31,32
 438 83 438 83 437.5 123 c 128,-1,33
 437 163 437 163 434 194 c 128,-1,34
 431 225 431 225 420 256 c 0,35,36
 395 323 395 323 282 323 c 2,37,-1
 226 323 l 1,38,-1
 226 29 l 1,39,-1
 303 22 l 1,40,-1
 303 0 l 1,41,-1
 48 0 l 1,42,-1
 48 21 l 1,43,-1
 123 29 l 1,44,-1
 123 637 l 1,45,-1
 36 647 l 1,46,-1
 36 673 l 1,47,48
 100 670 100 670 173 670 c 2,49,-1
 224 670 l 1,9,-1
EndSplineSet
EndChar

StartChar: S
Encoding: 83 83 54
Width: 569
GlyphClass: 2
Flags: W
LayerCount: 2
Fore
SplineSet
421 635 m 1,0,1
 367 654 367 654 310 654 c 128,-1,2
 253 654 253 654 210 621.5 c 128,-1,3
 167 589 167 589 167 525 c 0,4,5
 167 463 167 463 220 430 c 0,6,7
 249 412 249 412 267.5 404 c 128,-1,8
 286 396 286 396 321.5 383 c 128,-1,9
 357 370 357 370 370 364.5 c 128,-1,10
 383 359 383 359 408.5 347.5 c 128,-1,11
 434 336 434 336 446.5 327 c 128,-1,12
 459 318 459 318 477 302 c 128,-1,13
 495 286 495 286 504 270 c 0,14,15
 526 229 526 229 526 181 c 0,16,17
 526 96 526 96 457 42 c 128,-1,18
 388 -12 388 -12 278 -12 c 0,19,20
 194 -12 194 -12 121 16 c 0,21,22
 85 29 85 29 62 52 c 128,-1,23
 39 75 39 75 39 105 c 0,24,25
 39 154 39 154 110 172 c 1,26,27
 121 112 121 112 152 75 c 128,-1,28
 183 38 183 38 216.5 26 c 128,-1,29
 250 14 250 14 298.5 14 c 128,-1,30
 347 14 347 14 390 45.5 c 128,-1,31
 433 77 433 77 433 149 c 0,32,33
 433 204 433 204 383 239 c 0,34,35
 343 266 343 266 284.5 290 c 128,-1,36
 226 314 226 314 206 322.5 c 128,-1,37
 186 331 186 331 154.5 349.5 c 128,-1,38
 123 368 123 368 108 386 c 0,39,40
 69 433 69 433 69 494 c 0,41,42
 69 588 69 588 136 636 c 128,-1,43
 203 684 203 684 321 684 c 0,44,45
 392 684 392 684 486 668 c 1,46,-1
 486 521 l 1,47,-1
 455 521 l 1,48,-1
 421 635 l 1,0,1
EndSplineSet
EndChar

StartChar: T
Encoding: 84 84 55
Width: 626
GlyphClass: 2
Flags: W
LayerCount: 2
Fore
SplineSet
605 516 m 1,0,-1
 575 516 l 1,1,-1
 541 631 l 1,2,-1
 364 633 l 1,3,-1
 364 33 l 1,4,-1
 457 24 l 1,5,-1
 457 0 l 1,6,-1
 168 0 l 1,7,-1
 168 24 l 1,8,-1
 261 33 l 1,9,-1
 261 633 l 1,10,-1
 84 631 l 1,11,-1
 50 516 l 1,12,-1
 21 516 l 1,13,-1
 21 667 l 1,14,-1
 313 669 l 1,15,-1
 605 667 l 1,16,-1
 605 516 l 1,0,-1
EndSplineSet
EndChar

StartChar: U
Encoding: 85 85 56
Width: 726
GlyphClass: 2
Flags: W
LayerCount: 2
Fore
SplineSet
208 240 m 2,0,1
 208 128 208 128 251.5 75.5 c 128,-1,2
 295 23 295 23 389 23 c 128,-1,3
 483 23 483 23 528.5 73 c 128,-1,4
 574 123 574 123 574 243 c 2,5,-1
 574 629 l 1,6,-1
 500 639 l 1,7,-1
 500 668 l 1,8,-1
 698 668 l 1,9,-1
 698 637 l 1,10,-1
 617 629 l 1,11,-1
 617 234 l 2,12,13
 617 159 617 159 596.5 113.5 c 128,-1,14
 576 68 576 68 551 44 c 128,-1,15
 526 20 526 20 482 4 c 128,-1,16
 438 -12 438 -12 379 -12 c 0,17,18
 241 -12 241 -12 173.5 43.5 c 128,-1,19
 106 99 106 99 106 220 c 2,20,-1
 106 635 l 1,21,-1
 27 642 l 1,22,-1
 27 668 l 1,23,-1
 298 668 l 1,24,-1
 298 642 l 1,25,-1
 208 635 l 1,26,-1
 208 240 l 2,0,1
EndSplineSet
EndChar

StartChar: V
Encoding: 86 86 57
Width: 672
GlyphClass: 2
Flags: W
LayerCount: 2
Fore
SplineSet
-25 668 m 1,0,-1
 245 668 l 1,1,-1
 245 647 l 1,2,-1
 165 636 l 1,3,-1
 368 125 l 1,4,-1
 563 618 l 1,5,-1
 475 644 l 1,6,-1
 475 668 l 1,7,-1
 684 668 l 1,8,-1
 684 644 l 1,9,-1
 608 617 l 1,10,-1
 360 -6 l 1,11,-1
 315 -6 l 1,12,-1
 52 636 l 1,13,-1
 -25 647 l 1,14,-1
 -25 668 l 1,0,-1
EndSplineSet
EndChar

StartChar: W
Encoding: 87 87 58
Width: 1034
GlyphClass: 2
Flags: W
LayerCount: 2
Fore
SplineSet
-20 668 m 1,0,-1
 250 668 l 1,1,-1
 250 647 l 1,2,-1
 170 638 l 1,3,-1
 353 125 l 1,4,-1
 497 489 l 1,5,-1
 441 638 l 1,6,-1
 364 647 l 1,7,-1
 364 668 l 1,8,-1
 634 668 l 1,9,-1
 634 647 l 1,10,-1
 554 638 l 1,11,-1
 737 125 l 1,12,-1
 927 618 l 1,13,-1
 839 644 l 1,14,-1
 839 668 l 1,15,-1
 1048 668 l 1,16,-1
 1048 644 l 1,17,-1
 972 617 l 1,18,-1
 729 -6 l 1,19,-1
 684 -6 l 1,20,-1
 518 432 l 1,21,-1
 345 -6 l 1,22,-1
 300 -6 l 1,23,-1
 57 638 l 1,24,-1
 -20 647 l 1,25,-1
 -20 668 l 1,0,-1
EndSplineSet
EndChar

StartChar: X
Encoding: 88 88 59
Width: 716
GlyphClass: 2
Flags: W
LayerCount: 2
Fore
SplineSet
469 668 m 1,0,-1
 691 668 l 1,1,-1
 691 638 l 1,2,-1
 612 616 l 1,3,-1
 402 358 l 1,4,-1
 636 33 l 1,5,-1
 717 24 l 1,6,-1
 717 0 l 1,7,-1
 426 0 l 1,8,-1
 426 24 l 1,9,-1
 507 33 l 1,10,-1
 339 276 l 1,11,-1
 161 51 l 1,12,-1
 247 30 l 1,13,-1
 247 0 l 1,14,-1
 22 0 l 1,15,-1
 22 30 l 1,16,-1
 97 50 l 1,17,-1
 314 316 l 1,18,-1
 69 637 l 1,19,-1
 -3 644 l 1,20,-1
 -3 668 l 1,21,-1
 261 668 l 1,22,-1
 261 647 l 1,23,-1
 191 638 l 1,24,-1
 375 395 l 1,25,-1
 553 616 l 1,26,-1
 469 638 l 1,27,-1
 469 668 l 1,0,-1
EndSplineSet
EndChar

StartChar: Y
Encoding: 89 89 60
Width: 653
GlyphClass: 2
Flags: W
LayerCount: 2
Fore
SplineSet
470 0 m 1,0,-1
 193 0 l 1,1,-1
 193 24 l 1,2,-1
 280 33 l 1,3,-1
 280 287 l 1,4,-1
 44 635 l 1,5,-1
 -32 646 l 1,6,-1
 -32 668 l 1,7,-1
 238 668 l 1,8,-1
 238 647 l 1,9,-1
 161 636 l 1,10,-1
 359 339 l 1,11,-1
 530 621 l 1,12,-1
 455 644 l 1,13,-1
 455 668 l 1,14,-1
 658 668 l 1,15,-1
 658 644 l 1,16,-1
 582 620 l 1,17,-1
 383 295 l 1,18,-1
 383 33 l 1,19,-1
 470 24 l 1,20,-1
 470 0 l 1,0,-1
EndSplineSet
EndChar

StartChar: Z
Encoding: 90 90 61
Width: 656
GlyphClass: 2
Flags: W
LayerCount: 2
Fore
SplineSet
54 521 m 1,0,-1
 54 668 l 1,1,-1
 609 670 l 1,2,-1
 609 639 l 1,3,-1
 177 51 l 1,4,-1
 546 49 l 1,5,-1
 580 159 l 1,6,-1
 606 159 l 1,7,-1
 606 13 l 1,8,-1
 43 11 l 1,9,-1
 43 39 l 1,10,-1
 479 630 l 1,11,-1
 114 632 l 1,12,-1
 80 521 l 1,13,-1
 54 521 l 1,0,-1
EndSplineSet
EndChar

StartChar: bracketleft
Encoding: 91 91 62
Width: 334
GlyphClass: 2
Flags: W
LayerCount: 2
Fore
SplineSet
90 801 m 1,0,-1
 320 801 l 1,1,-1
 320 742 l 1,2,-1
 163 742 l 1,3,-1
 163 -231 l 1,4,-1
 320 -231 l 1,5,-1
 320 -290 l 1,6,-1
 90 -290 l 1,7,-1
 90 801 l 1,0,-1
EndSplineSet
EndChar

StartChar: backslash
Encoding: 92 92 63
Width: 357
GlyphClass: 2
Flags: W
LayerCount: 2
Fore
SplineSet
311 0 m 1,0,-1
 247 0 l 1,1,-1
 46 668 l 1,2,-1
 110 668 l 1,3,-1
 311 0 l 1,0,-1
EndSplineSet
EndChar

StartChar: bracketright
Encoding: 93 93 64
Width: 334
GlyphClass: 2
Flags: W
LayerCount: 2
Fore
SplineSet
244 801 m 1,0,-1
 244 -290 l 1,1,-1
 14 -290 l 1,2,-1
 14 -231 l 1,3,-1
 171 -231 l 1,4,-1
 171 742 l 1,5,-1
 14 742 l 1,6,-1
 14 801 l 1,7,-1
 244 801 l 1,0,-1
EndSplineSet
EndChar

StartChar: asciicircum
Encoding: 94 94 65
Width: 428
GlyphClass: 2
Flags: W
LayerCount: 2
Fore
SplineSet
52 555 m 1,0,-1
 189 741 l 1,1,-1
 239 741 l 1,2,-1
 375 555 l 1,3,-1
 344 536 l 1,4,-1
 214 662 l 1,5,-1
 83 536 l 1,6,-1
 52 555 l 1,0,-1
EndSplineSet
EndChar

StartChar: underscore
Encoding: 95 95 66
Width: 634
GlyphClass: 2
Flags: W
LayerCount: 2
Fore
SplineSet
567 -159 m 1,0,-1
 67 -159 l 1,1,-1
 67 -100 l 1,2,-1
 567 -100 l 1,3,-1
 567 -159 l 1,0,-1
EndSplineSet
EndChar

StartChar: grave
Encoding: 96 96 67
Width: 390
GlyphClass: 2
Flags: W
LayerCount: 2
Fore
SplineSet
109 675 m 1,0,1
 95 690 95 690 95 700 c 0,2,3
 95 725 95 725 148 759 c 1,4,5
 160 742 160 742 277 571 c 1,6,7
 273 566 273 566 255 550 c 1,8,9
 188 602 188 602 109 675 c 1,0,1
EndSplineSet
EndChar

StartChar: a
Encoding: 97 97 68
Width: 513
GlyphClass: 2
Flags: W
LayerCount: 2
Fore
SplineSet
138 108 m 0,0,1
 138 43 138 43 191 31 c 0,2,3
 203 28 203 28 214 28 c 0,4,5
 252 28 252 28 293 60.5 c 128,-1,6
 334 93 334 93 336 148 c 1,7,-1
 336 234 l 1,8,9
 138 232 138 232 138 108 c 0,0,1
178 -12 m 0,10,11
 121 -12 121 -12 80.5 19.5 c 128,-1,12
 40 51 40 51 40 108 c 0,13,14
 41 185 41 185 117.5 223 c 128,-1,15
 194 261 194 261 336 261 c 1,16,-1
 336 347 l 2,17,18
 336 474 336 474 244 474 c 0,19,20
 197 474 197 474 168 435 c 0,21,22
 148 408 148 408 148 368 c 0,23,24
 148 351 148 351 152 332 c 1,25,26
 138 322 138 322 123.5 322 c 128,-1,27
 109 322 109 322 95 328 c 0,28,29
 63 340 63 340 63 374 c 0,30,31
 63 420 63 420 96 450 c 0,32,33
 150 499 150 499 245 499 c 128,-1,34
 340 499 340 499 383 458.5 c 128,-1,35
 426 418 426 418 426 331 c 2,36,-1
 426 28 l 1,37,-1
 510 24 l 1,38,-1
 511 1 l 1,39,-1
 344 -11 l 1,40,-1
 335 78 l 1,41,42
 289 -12 289 -12 178 -12 c 0,10,11
EndSplineSet
EndChar

StartChar: b
Encoding: 98 98 69
Width: 602
GlyphClass: 2
Flags: W
LayerCount: 2
Fore
SplineSet
299 18 m 0,0,1
 337 18 337 18 364.5 34 c 128,-1,2
 392 50 392 50 407.5 74 c 128,-1,3
 423 98 423 98 432 135 c 0,4,5
 445 194 445 194 445 284 c 128,-1,6
 445 374 445 374 414 421 c 128,-1,7
 383 468 383 468 327 468 c 128,-1,8
 271 468 271 468 224.5 420.5 c 128,-1,9
 178 373 178 373 178 333 c 2,10,-1
 180 55 l 1,11,12
 228 18 228 18 299 18 c 0,0,1
179 766 m 1,13,-1
 178 552 l 2,14,15
 178 450 178 450 173 407 c 1,16,-1
 182 407 l 1,17,18
 209 451 209 451 257 475 c 128,-1,19
 305 499 305 499 360 499 c 0,20,21
 443 499 443 499 499 441.5 c 128,-1,22
 555 384 555 384 555 259.5 c 128,-1,23
 555 135 555 135 488 61.5 c 128,-1,24
 421 -12 421 -12 297 -12 c 0,25,26
 269 -12 269 -12 232.5 -3 c 128,-1,27
 196 6 196 6 173 21 c 1,28,-1
 81 -11 l 1,29,-1
 81 718 l 1,30,-1
 -7 722 l 1,31,-1
 -8 745 l 1,32,-1
 179 766 l 1,13,-1
EndSplineSet
EndChar

StartChar: c
Encoding: 99 99 70
Width: 508
GlyphClass: 2
Flags: W
LayerCount: 2
Fore
SplineSet
298 499 m 0,0,1
 354 499 354 499 406 475 c 0,2,3
 435 462 435 462 452.5 435 c 128,-1,4
 470 408 470 408 470 372 c 128,-1,5
 470 336 470 336 438 323 c 0,6,7
 425 318 425 318 410.5 318 c 128,-1,8
 396 318 396 318 381 328 c 1,9,10
 385 349 385 349 385 377.5 c 128,-1,11
 385 406 385 406 367 432 c 0,12,13
 341 471 341 471 293 471 c 0,14,15
 154 471 154 471 154 242 c 0,16,17
 154 130 154 130 186.5 73.5 c 128,-1,18
 219 17 219 17 292 17 c 0,19,20
 385 17 385 17 441 107 c 1,21,22
 463 100 463 100 463 85.5 c 128,-1,23
 463 71 463 71 444.5 49.5 c 128,-1,24
 426 28 426 28 380.5 8.5 c 128,-1,25
 335 -11 335 -11 276 -11 c 0,26,27
 173 -11 173 -11 109.5 59 c 128,-1,28
 46 129 46 129 46 244 c 128,-1,29
 46 359 46 359 114.5 429 c 128,-1,30
 183 499 183 499 298 499 c 0,0,1
EndSplineSet
EndChar

StartChar: d
Encoding: 100 100 71
Width: 613
GlyphClass: 2
Flags: W
LayerCount: 2
Fore
SplineSet
425 153 m 2,0,-1
 425 428 l 1,1,2
 377 465 377 465 306 465 c 0,3,4
 217 465 217 465 184 392 c 0,5,6
 157 330 157 330 157 223 c 0,7,8
 157 16 157 16 269 16 c 0,9,10
 332 16 332 16 378.5 64 c 128,-1,11
 425 112 425 112 425 153 c 2,0,-1
250 -15 m 0,12,13
 164 -15 164 -15 105 46.5 c 128,-1,14
 46 108 46 108 46 230.5 c 128,-1,15
 46 353 46 353 117.5 424 c 128,-1,16
 189 495 189 495 308 495 c 0,17,18
 370 495 370 495 425 466 c 1,19,-1
 425 718 l 1,20,-1
 337 722 l 1,21,-1
 336 745 l 1,22,-1
 521 766 l 1,23,-1
 521 23 l 1,24,-1
 606 19 l 1,25,-1
 607 -4 l 1,26,-1
 430 -16 l 1,27,-1
 432 80 l 1,28,-1
 426 80 l 1,29,30
 402 35 402 35 353 10 c 128,-1,31
 304 -15 304 -15 250 -15 c 0,12,13
EndSplineSet
EndChar

StartChar: e
Encoding: 101 101 72
Width: 526
GlyphClass: 2
Flags: W
LayerCount: 2
Fore
SplineSet
109 59 m 128,-1,1
 46 129 46 129 46 244 c 128,-1,2
 46 359 46 359 112.5 429 c 128,-1,3
 179 499 179 499 280 499 c 128,-1,4
 381 499 381 499 431 453.5 c 128,-1,5
 481 408 481 408 481 327 c 0,6,7
 481 303 481 303 477 279 c 1,8,-1
 154 279 l 1,9,-1
 154 244 l 2,10,11
 154 132 154 132 186 74.5 c 128,-1,12
 218 17 218 17 291 17 c 0,13,14
 394 17 394 17 450 107 c 1,15,16
 472 100 472 100 472 86 c 0,17,18
 472 61 472 61 426 28 c 0,19,20
 404 12 404 12 364 0.5 c 128,-1,21
 324 -11 324 -11 275 -11 c 0,22,0
 172 -11 172 -11 109 59 c 128,-1,1
386 348 m 0,23,24
 386 394 386 394 367 427 c 0,25,26
 341 471 341 471 283 471 c 0,27,28
 175 471 175 471 157 315 c 1,29,-1
 384 315 l 1,30,31
 386 332 386 332 386 348 c 0,23,24
EndSplineSet
EndChar

StartChar: f
Encoding: 102 102 73
Width: 366
GlyphClass: 2
Flags: W
LayerCount: 2
Fore
SplineSet
100 462 m 1,0,-1
 30 462 l 1,1,-1
 30 488 l 1,2,-1
 100 488 l 1,3,-1
 100 503 l 2,4,5
 100 636 100 636 156 703 c 128,-1,6
 212 770 212 770 316 770 c 0,7,8
 378 770 378 770 419.5 746.5 c 128,-1,9
 461 723 461 723 461 683.5 c 128,-1,10
 461 644 461 644 434 626 c 0,11,12
 418 615 418 615 402.5 615 c 128,-1,13
 387 615 387 615 373 621 c 1,14,15
 379 649 379 649 379 675 c 128,-1,16
 379 701 379 701 361 721 c 128,-1,17
 343 741 343 741 311 741 c 128,-1,18
 279 741 279 741 256.5 723.5 c 128,-1,19
 234 706 234 706 223 682.5 c 128,-1,20
 212 659 212 659 206 620 c 0,21,22
 198 568 198 568 198 488 c 1,23,-1
 349 488 l 1,24,-1
 349 462 l 1,25,-1
 198 462 l 1,26,-1
 198 29 l 1,27,-1
 310 24 l 1,28,-1
 311 0 l 1,29,-1
 33 0 l 1,30,-1
 32 24 l 1,31,-1
 100 28 l 1,32,-1
 100 462 l 1,0,-1
EndSplineSet
EndChar

StartChar: g
Encoding: 103 103 74
Width: 519
GlyphClass: 2
Flags: W
LayerCount: 2
Fore
SplineSet
166 100 m 0,0,1
 166 77 166 77 198.5 69.5 c 128,-1,2
 231 62 231 62 334 53 c 128,-1,3
 437 44 437 44 482 16.5 c 128,-1,4
 527 -11 527 -11 527 -72 c 0,5,6
 527 -150 527 -150 453.5 -205 c 128,-1,7
 380 -260 380 -260 263 -260 c 128,-1,8
 146 -260 146 -260 91 -222.5 c 128,-1,9
 36 -185 36 -185 36 -123 c 0,10,11
 36 -82 36 -82 63 -45.5 c 128,-1,12
 90 -9 90 -9 142 6 c 1,13,14
 81 28 81 28 81 79 c 0,15,16
 81 109 81 109 112 129.5 c 128,-1,17
 143 150 143 150 182 155 c 1,18,19
 119 173 119 173 85 217.5 c 128,-1,20
 51 262 51 262 51 322 c 0,21,22
 51 399 51 399 108.5 449 c 128,-1,23
 166 499 166 499 264 499 c 0,24,25
 292 499 292 499 325 492 c 1,26,27
 354 499 354 499 371 522 c 0,28,29
 389 547 389 547 389 575 c 128,-1,30
 389 603 389 603 386 623 c 1,31,32
 400 629 400 629 414 629 c 128,-1,33
 428 629 428 629 442 622 c 0,34,35
 469 608 469 608 469 573.5 c 128,-1,36
 469 539 469 539 436 513 c 128,-1,37
 403 487 403 487 357 483 c 1,38,39
 411 463 411 463 440 420.5 c 128,-1,40
 469 378 469 378 469 322 c 0,41,42
 469 238 469 238 404.5 192 c 128,-1,43
 340 146 340 146 246 146 c 1,44,45
 211 145 211 145 188.5 130.5 c 128,-1,46
 166 116 166 116 166 100 c 0,0,1
113 -112 m 0,47,48
 113 -165 113 -165 156.5 -196.5 c 128,-1,49
 200 -228 200 -228 269.5 -228 c 128,-1,50
 339 -228 339 -228 394 -193 c 128,-1,51
 449 -158 449 -158 450 -105 c 0,52,53
 450 -71 450 -71 428 -54 c 0,54,55
 409 -39 409 -39 375 -34 c 128,-1,56
 341 -29 341 -29 280.5 -22.5 c 128,-1,57
 220 -16 220 -16 177 -7 c 1,58,59
 150 -21 150 -21 131.5 -50.5 c 128,-1,60
 113 -80 113 -80 113 -112 c 0,47,48
257 167 m 0,61,62
 313 167 313 167 340 210 c 128,-1,63
 367 253 367 253 367 322 c 0,64,65
 367 477 367 477 264 477 c 0,66,67
 208 477 208 477 180.5 435.5 c 128,-1,68
 153 394 153 394 153 322 c 0,69,70
 153 167 153 167 257 167 c 0,61,62
EndSplineSet
EndChar

StartChar: h
Encoding: 104 104 75
Width: 606
GlyphClass: 2
Flags: W
LayerCount: 2
Fore
SplineSet
362 495 m 0,0,1
 522 495 522 495 522 341 c 0,2,3
 522 230 522 230 515 29 c 1,4,-1
 586 24 l 1,5,-1
 586 0 l 1,6,-1
 363 0 l 1,7,-1
 363 24 l 1,8,-1
 417 28 l 1,9,10
 424 292 424 292 424 348.5 c 128,-1,11
 424 405 424 405 403 433 c 128,-1,12
 382 461 382 461 330.5 461 c 128,-1,13
 279 461 279 461 234 412 c 128,-1,14
 189 363 189 363 189 322 c 2,15,-1
 189 29 l 1,16,-1
 255 24 l 1,17,-1
 255 0 l 1,18,-1
 25 0 l 1,19,-1
 25 24 l 1,20,-1
 91 29 l 1,21,-1
 91 718 l 1,22,-1
 3 722 l 1,23,-1
 2 745 l 1,24,-1
 189 766 l 1,25,26
 183 423 183 423 182 400 c 1,27,-1
 190 400 l 1,28,29
 217 446 217 446 262.5 470.5 c 128,-1,30
 308 495 308 495 362 495 c 0,0,1
EndSplineSet
EndChar

StartChar: i
Encoding: 105 105 76
Width: 294
GlyphClass: 2
Flags: W
LayerCount: 2
Fore
SplineSet
193 609.5 m 128,-1,1
 176 592 176 592 150.5 592 c 128,-1,2
 125 592 125 592 108 609 c 128,-1,3
 91 626 91 626 91 651.5 c 128,-1,4
 91 677 91 677 108 694.5 c 128,-1,5
 125 712 125 712 150 712 c 128,-1,6
 175 712 175 712 192.5 694 c 128,-1,7
 210 676 210 676 210 651.5 c 128,-1,0
 210 627 210 627 193 609.5 c 128,-1,1
40 0 m 1,8,-1
 40 24 l 1,9,-1
 106 29 l 1,10,-1
 106 454 l 1,11,-1
 18 457 l 1,12,-1
 18 480 l 1,13,-1
 204 493 l 1,14,-1
 204 29 l 1,15,-1
 270 24 l 1,16,-1
 270 0 l 1,17,-1
 40 0 l 1,8,-1
EndSplineSet
EndChar

StartChar: j
Encoding: 106 106 77
Width: 276
GlyphClass: 2
Flags: W
LayerCount: 2
Fore
SplineSet
97 19 m 2,0,-1
 97 455 l 1,1,-1
 9 459 l 1,2,-1
 9 482 l 1,3,-1
 195 493 l 1,4,-1
 195 4 l 2,5,6
 195 -129 195 -129 139 -196 c 128,-1,7
 83 -263 83 -263 -21 -263 c 0,8,9
 -83 -263 -83 -263 -124.5 -239.5 c 128,-1,10
 -166 -216 -166 -216 -166 -176.5 c 128,-1,11
 -166 -137 -166 -137 -138 -118 c 0,12,13
 -123 -108 -123 -108 -107.5 -108 c 128,-1,14
 -92 -108 -92 -108 -78 -114 c 1,15,16
 -84 -142 -84 -142 -84 -168 c 128,-1,17
 -84 -194 -84 -194 -66 -214 c 128,-1,18
 -48 -234 -48 -234 -16 -234 c 128,-1,19
 16 -234 16 -234 38.5 -216.5 c 128,-1,20
 61 -199 61 -199 72 -176 c 0,21,22
 97 -122 97 -122 97 19 c 2,0,-1
182 609.5 m 128,-1,24
 165 592 165 592 139.5 592 c 128,-1,25
 114 592 114 592 97 609 c 128,-1,26
 80 626 80 626 80 651.5 c 128,-1,27
 80 677 80 677 97 694.5 c 128,-1,28
 114 712 114 712 139 712 c 128,-1,29
 164 712 164 712 181.5 694 c 128,-1,30
 199 676 199 676 199 651.5 c 128,-1,23
 199 627 199 627 182 609.5 c 128,-1,24
EndSplineSet
EndChar

StartChar: k
Encoding: 107 107 78
Width: 563
GlyphClass: 2
Flags: W
LayerCount: 2
Fore
SplineSet
335 488 m 1,0,-1
 531 488 l 1,1,-1
 531 465 l 1,2,-1
 457 446 l 1,3,-1
 266 282 l 1,4,-1
 488 31 l 1,5,-1
 555 24 l 1,6,-1
 555 0 l 1,7,-1
 318 0 l 1,8,-1
 318 24 l 1,9,-1
 374 29 l 1,10,-1
 188 248 l 1,11,-1
 188 29 l 1,12,-1
 250 24 l 1,13,-1
 250 0 l 1,14,-1
 25 0 l 1,15,-1
 25 24 l 1,16,-1
 90 29 l 1,17,-1
 90 718 l 1,18,-1
 2 722 l 1,19,-1
 1 745 l 1,20,-1
 188 766 l 1,21,-1
 188 260 l 1,22,-1
 400 446 l 1,23,-1
 335 465 l 1,24,-1
 335 488 l 1,0,-1
EndSplineSet
EndChar

StartChar: l
Encoding: 108 108 79
Width: 284
GlyphClass: 2
Flags: W
LayerCount: 2
Fore
SplineSet
257 0 m 1,0,-1
 27 0 l 1,1,-1
 27 24 l 1,2,-1
 93 29 l 1,3,-1
 93 718 l 1,4,-1
 4 722 l 1,5,-1
 4 745 l 1,6,-1
 191 766 l 1,7,-1
 191 29 l 1,8,-1
 257 24 l 1,9,-1
 257 0 l 1,0,-1
EndSplineSet
EndChar

StartChar: m
Encoding: 109 109 80
Width: 951
GlyphClass: 2
Flags: W
LayerCount: 2
Fore
SplineSet
705 495 m 0,0,1
 865 495 865 495 865 341 c 0,2,3
 865 230 865 230 858 29 c 1,4,-1
 929 24 l 1,5,-1
 929 0 l 1,6,-1
 706 0 l 1,7,-1
 706 24 l 1,8,-1
 760 28 l 1,9,10
 767 292 767 292 767 348.5 c 128,-1,11
 767 405 767 405 746 433 c 128,-1,12
 725 461 725 461 678 461 c 128,-1,13
 631 461 631 461 591 421.5 c 128,-1,14
 551 382 551 382 537 337 c 1,15,16
 537 229 537 229 530 29 c 1,17,-1
 601 24 l 1,18,-1
 601 0 l 1,19,-1
 378 0 l 1,20,-1
 378 24 l 1,21,-1
 432 28 l 1,22,23
 439 292 439 292 439 348.5 c 128,-1,24
 439 405 439 405 418 433 c 128,-1,25
 397 461 397 461 345.5 461 c 128,-1,26
 294 461 294 461 249 406.5 c 128,-1,27
 204 352 204 352 204 310 c 2,28,-1
 204 29 l 1,29,-1
 279 24 l 1,30,-1
 279 0 l 1,31,-1
 41 0 l 1,32,-1
 41 24 l 1,33,-1
 106 28 l 1,34,-1
 106 452 l 1,35,-1
 21 456 l 1,36,-1
 21 479 l 1,37,-1
 200 491 l 1,38,-1
 195 388 l 1,39,-1
 205 388 l 1,40,41
 232 441 232 441 277.5 468 c 128,-1,42
 323 495 323 495 377 495 c 0,43,44
 512 495 512 495 533 387 c 1,45,-1
 533 388 l 1,46,47
 560 441 560 441 605.5 468 c 128,-1,48
 651 495 651 495 705 495 c 0,0,1
EndSplineSet
EndChar

StartChar: n
Encoding: 110 110 81
Width: 621
GlyphClass: 2
Flags: W
LayerCount: 2
Fore
SplineSet
204 382 m 1,0,1
 249 498 249 498 385 498 c 0,2,3
 453 498 453 498 495 457.5 c 128,-1,4
 537 417 537 417 537 342 c 0,5,6
 537 213 537 213 529 29 c 1,7,-1
 598 24 l 1,8,-1
 598 0 l 1,9,-1
 377 0 l 1,10,-1
 377 24 l 1,11,-1
 431 28 l 1,12,13
 439 254 439 254 439 287 c 128,-1,14
 439 320 439 320 438 337.5 c 128,-1,15
 437 355 437 355 432.5 380.5 c 128,-1,16
 428 406 428 406 419 421 c 0,17,18
 397 458 397 458 350 458 c 0,19,20
 286 458 286 458 245 405 c 128,-1,21
 204 352 204 352 204 290 c 2,22,-1
 204 29 l 1,23,-1
 279 24 l 1,24,-1
 279 0 l 1,25,-1
 40 0 l 1,26,-1
 40 24 l 1,27,-1
 106 29 l 1,28,-1
 106 452 l 1,29,-1
 21 456 l 1,30,-1
 21 479 l 1,31,-1
 200 491 l 1,32,-1
 195 383 l 1,33,-1
 204 382 l 1,0,1
EndSplineSet
EndChar

StartChar: o
Encoding: 111 111 82
Width: 589
GlyphClass: 2
Flags: W
LayerCount: 2
Fore
SplineSet
477 61 m 128,-1,1
 410 -11 410 -11 294.5 -11 c 128,-1,2
 179 -11 179 -11 112 61 c 128,-1,3
 45 133 45 133 45 244 c 128,-1,4
 45 355 45 355 112 427 c 128,-1,5
 179 499 179 499 294.5 499 c 128,-1,6
 410 499 410 499 477 427 c 128,-1,7
 544 355 544 355 544 244 c 128,-1,0
 544 133 544 133 477 61 c 128,-1,1
154 244 m 0,8,9
 154 13 154 13 294.5 13 c 128,-1,10
 435 13 435 13 435 244 c 0,11,12
 435 356 435 356 403 415 c 128,-1,13
 371 474 371 474 295 474 c 128,-1,14
 219 474 219 474 186.5 415 c 128,-1,15
 154 356 154 356 154 244 c 0,8,9
EndSplineSet
EndChar

StartChar: p
Encoding: 112 112 83
Width: 617
GlyphClass: 2
Flags: W
LayerCount: 2
Fore
SplineSet
195 333 m 2,0,-1
 195 55 l 1,1,2
 243 18 243 18 314 18 c 0,3,4
 352 18 352 18 379.5 34 c 128,-1,5
 407 50 407 50 422.5 74 c 128,-1,6
 438 98 438 98 446 135 c 0,7,8
 460 194 460 194 460 284 c 128,-1,9
 460 374 460 374 429 421 c 128,-1,10
 398 468 398 468 342 468 c 128,-1,11
 286 468 286 468 240.5 420.5 c 128,-1,12
 195 373 195 373 195 333 c 2,0,-1
375 499 m 0,13,14
 458 499 458 499 514 441.5 c 128,-1,15
 570 384 570 384 570 259.5 c 128,-1,16
 570 135 570 135 503 61.5 c 128,-1,17
 436 -12 436 -12 312 -12 c 0,18,19
 247 -12 247 -12 195 17 c 1,20,-1
 195 -221 l 1,21,-1
 265 -226 l 1,22,-1
 265 -250 l 1,23,-1
 35 -250 l 1,24,-1
 35 -226 l 1,25,-1
 97 -221 l 1,26,-1
 97 456 l 1,27,-1
 11 460 l 1,28,-1
 11 483 l 1,29,-1
 191 494 l 1,30,-1
 188 407 l 1,31,-1
 197 407 l 1,32,33
 224 451 224 451 272 475 c 128,-1,34
 320 499 320 499 375 499 c 0,13,14
EndSplineSet
EndChar

StartChar: q
Encoding: 113 113 84
Width: 605
GlyphClass: 2
Flags: W
LayerCount: 2
Fore
SplineSet
425 150 m 2,0,-1
 425 428 l 1,1,2
 377 465 377 465 306 465 c 0,3,4
 217 465 217 465 184 392 c 0,5,6
 157 330 157 330 157 223 c 0,7,8
 157 16 157 16 269 16 c 0,9,10
 332 16 332 16 378.5 62.5 c 128,-1,11
 425 109 425 109 425 150 c 2,0,-1
250 -15 m 0,12,13
 164 -15 164 -15 105 46.5 c 128,-1,14
 46 108 46 108 46 230.5 c 128,-1,15
 46 353 46 353 117.5 424 c 128,-1,16
 189 495 189 495 308 495 c 0,17,18
 336 495 336 495 372.5 486 c 128,-1,19
 409 477 409 477 432 462 c 1,20,-1
 524 494 l 1,21,-1
 524 -221 l 1,22,-1
 599 -226 l 1,23,-1
 599 -250 l 1,24,-1
 371 -250 l 1,25,-1
 371 -226 l 1,26,-1
 427 -222 l 1,27,28
 432 47 432 47 433 75 c 1,29,-1
 425 75 l 1,30,31
 400 33 400 33 351.5 9 c 128,-1,32
 303 -15 303 -15 250 -15 c 0,12,13
EndSplineSet
EndChar

StartChar: r
Encoding: 114 114 85
Width: 419
GlyphClass: 2
Flags: W
LayerCount: 2
Fore
SplineSet
351 500 m 0,0,1
 377 500 377 500 392 487.5 c 128,-1,2
 407 475 407 475 407 453 c 0,3,4
 407 415 407 415 378 403 c 1,5,6
 362 416 362 416 320 416 c 128,-1,7
 278 416 278 416 239.5 388.5 c 128,-1,8
 201 361 201 361 201 326 c 2,9,-1
 201 29 l 1,10,-1
 291 24 l 1,11,-1
 291 0 l 1,12,-1
 37 0 l 1,13,-1
 37 24 l 1,14,-1
 103 28 l 1,15,-1
 103 455 l 1,16,-1
 24 459 l 1,17,-1
 24 482 l 1,18,-1
 201 493 l 1,19,-1
 195 370 l 1,20,-1
 199 370 l 1,21,22
 216 424 216 424 261.5 462 c 128,-1,23
 307 500 307 500 351 500 c 0,0,1
EndSplineSet
EndChar

StartChar: s
Encoding: 115 115 86
Width: 450
GlyphClass: 2
Flags: W
LayerCount: 2
Fore
SplineSet
226 14 m 0,0,1
 266 14 266 14 295.5 36 c 128,-1,2
 325 58 325 58 325 110 c 0,3,4
 325 145 325 145 293.5 168 c 128,-1,5
 262 191 262 191 215 209.5 c 128,-1,6
 168 228 168 228 151.5 235.5 c 128,-1,7
 135 243 135 243 108 260 c 0,8,9
 59 293 59 293 59 355 c 128,-1,10
 59 417 59 417 108 458 c 128,-1,11
 157 499 157 499 251 499 c 0,12,13
 311 499 311 499 353.5 472.5 c 128,-1,14
 396 446 396 446 396 409 c 128,-1,15
 396 372 396 372 368 358 c 0,16,17
 353 351 353 351 338.5 351 c 128,-1,18
 324 351 324 351 310 357 c 1,19,20
 314 375 314 375 314 396 c 128,-1,21
 314 417 314 417 304 438 c 0,22,23
 287 474 287 474 239 474 c 128,-1,24
 191 474 191 474 166 448 c 128,-1,25
 141 422 141 422 141 380 c 0,26,27
 141 337 141 337 177 316 c 1,28,29
 204 299 204 299 244 285 c 128,-1,30
 284 271 284 271 298.5 265.5 c 128,-1,31
 313 260 313 260 337 247 c 128,-1,32
 361 234 361 234 373 220 c 0,33,34
 404 186 404 186 404 128 c 128,-1,35
 404 70 404 70 352 29.5 c 128,-1,36
 300 -11 300 -11 225 -11 c 128,-1,37
 150 -11 150 -11 93.5 12 c 128,-1,38
 37 35 37 35 37 79 c 0,39,40
 37 120 37 120 98 133 c 1,41,42
 116 14 116 14 226 14 c 0,0,1
EndSplineSet
EndChar

StartChar: t
Encoding: 116 116 87
Width: 362
GlyphClass: 2
Flags: W
LayerCount: 2
Fore
SplineSet
347 104 m 0,0,1
 347 101 347 101 346 97 c 0,2,3
 330 48 330 48 292.5 18.5 c 128,-1,4
 255 -11 255 -11 205 -11 c 128,-1,5
 155 -11 155 -11 121.5 17.5 c 128,-1,6
 88 46 88 46 88 129 c 0,7,8
 88 152 88 152 93 462 c 1,9,-1
 24 462 l 1,10,-1
 24 488 l 1,11,-1
 94 488 l 1,12,-1
 95 635 l 1,13,-1
 193 635 l 1,14,-1
 190 488 l 1,15,-1
 333 488 l 1,16,-1
 333 462 l 1,17,-1
 190 462 l 1,18,19
 185 139 185 139 185 84 c 0,20,21
 185 17 185 17 229 17 c 0,22,23
 256 17 256 17 285.5 48 c 128,-1,24
 315 79 315 79 327 118 c 1,25,26
 347 118 347 118 347 104 c 0,0,1
EndSplineSet
EndChar

StartChar: u
Encoding: 117 117 88
Width: 608
GlyphClass: 2
Flags: W
LayerCount: 2
Fore
SplineSet
246 -12 m 0,0,1
 86 -12 86 -12 86 142 c 0,2,3
 86 255 86 255 93 456 c 1,4,-1
 13 460 l 1,5,-1
 13 483 l 1,6,-1
 191 494 l 1,7,8
 184 230 184 230 184 135 c 0,9,10
 184 78 184 78 205 50 c 128,-1,11
 226 22 226 22 275.5 22 c 128,-1,12
 325 22 325 22 369 77.5 c 128,-1,13
 413 133 413 133 413 175 c 2,14,-1
 413 456 l 1,15,-1
 330 460 l 1,16,-1
 330 483 l 1,17,-1
 511 494 l 1,18,-1
 511 31 l 1,19,-1
 596 27 l 1,20,-1
 597 4 l 1,21,-1
 417 -8 l 1,22,-1
 424 100 l 1,23,-1
 412 100 l 1,24,25
 360 -12 360 -12 246 -12 c 0,0,1
EndSplineSet
EndChar

StartChar: v
Encoding: 118 118 89
Width: 520
GlyphClass: 2
Flags: W
LayerCount: 2
Fore
SplineSet
2 488 m 1,0,-1
 212 488 l 1,1,-1
 212 462 l 1,2,-1
 144 456 l 1,3,-1
 286 107 l 1,4,-1
 406 443 l 1,5,-1
 326 462 l 1,6,-1
 326 488 l 1,7,-1
 518 488 l 1,8,-1
 518 462 l 1,9,-1
 448 443 l 1,10,-1
 282 0 l 1,11,-1
 242 0 l 1,12,-1
 49 457 l 1,13,-1
 2 464 l 1,14,-1
 2 488 l 1,0,-1
EndSplineSet
EndChar

StartChar: w
Encoding: 119 119 90
Width: 789
GlyphClass: 2
Flags: W
LayerCount: 2
Fore
SplineSet
2 488 m 1,0,-1
 208 488 l 1,1,-1
 208 465 l 1,2,-1
 142 457 l 1,3,-1
 284 107 l 1,4,-1
 372 340 l 1,5,-1
 323 457 l 1,6,-1
 282 462 l 1,7,-1
 282 488 l 1,8,-1
 484 488 l 1,9,-1
 484 465 l 1,10,-1
 417 457 l 1,11,-1
 560 107 l 1,12,-1
 684 443 l 1,13,-1
 619 462 l 1,14,-1
 619 488 l 1,15,-1
 787 488 l 1,16,-1
 787 462 l 1,17,-1
 726 443 l 1,18,-1
 556 0 l 1,19,-1
 516 0 l 1,20,-1
 394 289 l 1,21,-1
 280 0 l 1,22,-1
 240 0 l 1,23,-1
 47 457 l 1,24,-1
 2 464 l 1,25,-1
 2 488 l 1,0,-1
EndSplineSet
EndChar

StartChar: x
Encoding: 120 120 91
Width: 565
GlyphClass: 2
Flags: W
LayerCount: 2
Fore
SplineSet
213 0 m 1,0,-1
 21 0 l 1,1,-1
 21 25 l 1,2,-1
 91 44 l 1,3,-1
 245 226 l 1,4,-1
 63 458 l 1,5,-1
 15 463 l 1,6,-1
 15 488 l 1,7,-1
 227 488 l 1,8,-1
 226 464 l 1,9,-1
 168 456 l 1,10,-1
 298 287 l 1,11,-1
 428 444 l 1,12,-1
 351 463 l 1,13,-1
 351 488 l 1,14,-1
 543 488 l 1,15,-1
 543 463 l 1,16,-1
 473 444 l 1,17,-1
 318 258 l 1,18,-1
 493 30 l 1,19,-1
 550 25 l 1,20,-1
 550 0 l 1,21,-1
 329 0 l 1,22,-1
 329 23 l 1,23,-1
 387 31 l 1,24,-1
 264 195 l 1,25,-1
 139 44 l 1,26,-1
 213 25 l 1,27,-1
 213 0 l 1,0,-1
EndSplineSet
EndChar

StartChar: y
Encoding: 121 121 92
Width: 525
GlyphClass: 2
Flags: W
LayerCount: 2
Fore
SplineSet
129 -245.5 m 128,-1,1
 98 -264 98 -264 66.5 -264 c 128,-1,2
 35 -264 35 -264 17.5 -247.5 c 128,-1,3
 0 -231 0 -231 0 -203.5 c 128,-1,4
 0 -176 0 -176 25 -148 c 1,5,6
 53 -180 53 -180 88 -180 c 0,7,8
 138 -180 138 -180 174 -136.5 c 128,-1,9
 210 -93 210 -93 244 0 c 1,10,-1
 52 456 l 1,11,-1
 1 462 l 1,12,-1
 1 488 l 1,13,-1
 214 488 l 1,14,-1
 214 462 l 1,15,-1
 145 456 l 1,16,-1
 288 107 l 1,17,-1
 411 443 l 1,18,-1
 331 462 l 1,19,-1
 331 488 l 1,20,-1
 523 488 l 1,21,-1
 523 462 l 1,22,-1
 453 443 l 1,23,-1
 284 0 l 2,24,25
 266 -46 266 -46 256 -71 c 128,-1,26
 246 -96 246 -96 223.5 -138.5 c 128,-1,27
 201 -181 201 -181 180.5 -204 c 128,-1,0
 160 -227 160 -227 129 -245.5 c 128,-1,1
EndSplineSet
EndChar

StartChar: z
Encoding: 122 122 93
Width: 515
GlyphClass: 2
Flags: W
LayerCount: 2
Fore
SplineSet
45 23 m 1,0,-1
 361 456 l 1,1,-1
 109 453 l 1,2,-1
 75 347 l 1,3,-1
 49 348 l 1,4,-1
 50 489 l 1,5,-1
 471 491 l 1,6,-1
 471 467 l 1,7,-1
 158 34 l 1,8,-1
 402 37 l 1,9,-1
 442 142 l 1,10,-1
 468 142 l 1,11,-1
 461 1 l 1,12,-1
 45 -1 l 1,13,-1
 45 23 l 1,0,-1
EndSplineSet
EndChar

StartChar: braceleft
Encoding: 123 123 94
Width: 293
GlyphClass: 2
Flags: W
LayerCount: 2
Fore
SplineSet
22 268 m 1,0,1
 108 268 108 268 108 370 c 0,2,3
 108 407 108 407 94 490 c 128,-1,4
 80 573 80 573 80 612 c 0,5,6
 80 783 80 783 268 783 c 1,7,-1
 268 746 l 1,8,9
 208 746 208 746 183.5 717 c 128,-1,10
 159 688 159 688 159 643.5 c 128,-1,11
 159 599 159 599 175 511.5 c 128,-1,12
 191 424 191 424 191 382.5 c 128,-1,13
 191 341 191 341 169.5 303.5 c 128,-1,14
 148 266 148 266 110 254 c 1,15,16
 149 243 149 243 170 206 c 128,-1,17
 191 169 191 169 191 127 c 128,-1,18
 191 85 191 85 175 -2.5 c 128,-1,19
 159 -90 159 -90 159 -128 c 0,20,21
 159 -238 159 -238 268 -238 c 1,22,-1
 268 -274 l 1,23,24
 80 -274 80 -274 80 -103 c 0,25,26
 80 -65 80 -65 94 18.5 c 128,-1,27
 108 102 108 102 108 139 c 0,28,29
 108 241 108 241 22 241 c 1,30,-1
 22 268 l 1,0,1
EndSplineSet
EndChar

StartChar: bar
Encoding: 124 124 95
Width: 241
GlyphClass: 2
Flags: W
LayerCount: 2
Fore
SplineSet
90 800 m 1,0,-1
 151 800 l 1,1,-1
 151 -290 l 1,2,-1
 90 -290 l 1,3,-1
 90 800 l 1,0,-1
EndSplineSet
EndChar

StartChar: braceright
Encoding: 125 125 96
Width: 293
GlyphClass: 2
Flags: W
LayerCount: 2
Fore
SplineSet
271 268 m 1,0,-1
 271 241 l 1,1,2
 185 241 185 241 185 139 c 0,3,4
 185 102 185 102 199 18.5 c 128,-1,5
 213 -65 213 -65 213 -103 c 0,6,7
 213 -274 213 -274 25 -274 c 1,8,-1
 25 -238 l 1,9,10
 134 -238 134 -238 134 -128 c 0,11,12
 134 -90 134 -90 118 -2.5 c 128,-1,13
 102 85 102 85 102 127 c 128,-1,14
 102 169 102 169 123 206 c 128,-1,15
 144 243 144 243 183 254 c 1,16,17
 145 266 145 266 123.5 303.5 c 128,-1,18
 102 341 102 341 102 382.5 c 128,-1,19
 102 424 102 424 118 511.5 c 128,-1,20
 134 599 134 599 134 643.5 c 128,-1,21
 134 688 134 688 109.5 717 c 128,-1,22
 85 746 85 746 25 746 c 1,23,-1
 25 783 l 1,24,25
 213 783 213 783 213 612 c 0,26,27
 213 573 213 573 199 490 c 128,-1,28
 185 407 185 407 185 370 c 0,29,30
 185 268 185 268 271 268 c 1,0,-1
EndSplineSet
EndChar

StartChar: asciitilde
Encoding: 126 126 97
Width: 588
GlyphClass: 2
Flags: W
LayerCount: 2
Fore
SplineSet
458 186.5 m 128,-1,1
 433 172 433 172 413 172 c 128,-1,2
 393 172 393 172 374.5 176.5 c 128,-1,3
 356 181 356 181 343 186 c 0,4,5
 293 203 293 203 251 218 c 128,-1,6
 209 233 209 233 183.5 233 c 128,-1,7
 158 233 158 233 138 215 c 128,-1,8
 118 197 118 197 96 163 c 1,9,-1
 56 198 l 1,10,11
 86 244 86 244 116 268.5 c 128,-1,12
 146 293 146 293 189 293 c 128,-1,13
 232 293 232 293 304.5 262.5 c 128,-1,14
 377 232 377 232 403 232 c 0,15,16
 449 232 449 232 490 295 c 1,17,-1
 531 262 l 1,18,19
 511 233 511 233 497 217 c 128,-1,0
 483 201 483 201 458 186.5 c 128,-1,1
EndSplineSet
EndChar

StartChar: exclamdown
Encoding: 161 161 98
Width: 248
GlyphClass: 2
Flags: W
LayerCount: 2
Fore
SplineSet
127 425 m 128,-1,1
 152 425 152 425 168.5 408 c 128,-1,2
 185 391 185 391 185 367 c 128,-1,3
 185 343 185 343 168 325.5 c 128,-1,4
 151 308 151 308 126.5 308 c 128,-1,5
 102 308 102 308 85.5 325.5 c 128,-1,6
 69 343 69 343 69 367.5 c 128,-1,7
 69 392 69 392 85.5 408.5 c 128,-1,0
 102 425 102 425 127 425 c 128,-1,1
184 -256 m 1,8,9
 158 -260 158 -260 132 -260 c 128,-1,10
 106 -260 106 -260 94 -248 c 0,11,12
 75 -228 75 -228 75 -139 c 128,-1,13
 75 -50 75 -50 83.5 54.5 c 128,-1,14
 92 159 92 159 99 202 c 0,15,16
 101 215 101 215 110 220 c 128,-1,17
 119 225 119 225 124 225 c 128,-1,18
 129 225 129 225 139 224 c 1,19,20
 147 -53 147 -53 180 -232 c 1,21,-1
 184 -256 l 1,8,9
EndSplineSet
EndChar

StartChar: cent
Encoding: 162 162 99
Width: 534
GlyphClass: 2
Flags: W
LayerCount: 2
Fore
SplineSet
269 0 m 1,0,-1
 269 83 l 1,1,2
 172 89 172 89 113.5 158 c 128,-1,3
 55 227 55 227 55 335 c 128,-1,4
 55 443 55 443 112.5 511.5 c 128,-1,5
 170 580 170 580 270 591 c 1,6,-1
 270 678 l 1,7,-1
 315 678 l 1,8,-1
 315 593 l 1,9,10
 368 591 368 591 420 566 c 0,11,12
 447 553 447 553 463 526.5 c 128,-1,13
 479 500 479 500 479 465 c 128,-1,14
 479 430 479 430 447 417 c 0,15,16
 434 412 434 412 419.5 412 c 128,-1,17
 405 412 405 412 390 422 c 1,18,19
 394 443 394 443 394 471.5 c 128,-1,20
 394 500 394 500 376 526 c 0,21,22
 350 565 350 565 302 565 c 0,23,24
 163 565 163 565 163 336 c 0,25,26
 163 224 163 224 195.5 167.5 c 128,-1,27
 228 111 228 111 301 111 c 0,28,29
 394 111 394 111 450 201 c 1,30,31
 472 194 472 194 472 180 c 0,32,33
 472 156 472 156 429.5 123 c 128,-1,34
 387 90 387 90 314 84 c 1,35,-1
 314 0 l 1,36,-1
 269 0 l 1,0,-1
EndSplineSet
EndChar

StartChar: sterling
Encoding: 163 163 100
Width: 604
GlyphClass: 2
Flags: W
LayerCount: 2
Fore
SplineSet
47 374 m 1,0,-1
 155 374 l 1,1,-1
 155 403 l 2,2,3
 155 684 155 684 388 684 c 0,4,5
 447 684 447 684 486.5 660.5 c 128,-1,6
 526 637 526 637 526 598 c 128,-1,7
 526 559 526 559 498 540 c 0,8,9
 482 529 482 529 466 529 c 128,-1,10
 450 529 450 529 436 535 c 1,11,12
 443 564 443 564 443 590 c 128,-1,13
 443 616 443 616 427.5 636.5 c 128,-1,14
 412 657 412 657 382 657 c 128,-1,15
 352 657 352 657 329.5 644 c 128,-1,16
 307 631 307 631 294 607.5 c 128,-1,17
 281 584 281 584 272.5 558 c 128,-1,18
 264 532 264 532 260 498 c 0,19,20
 254 435 254 435 254 405 c 2,21,-1
 254 374 l 1,22,-1
 429 374 l 1,23,-1
 429 343 l 1,24,-1
 255 343 l 1,25,-1
 255 226 l 2,26,27
 255 192 255 192 245 163.5 c 128,-1,28
 235 135 235 135 222.5 119 c 128,-1,29
 210 103 210 103 193 91 c 0,30,31
 172 76 172 76 153 70 c 1,32,33
 193 78 193 78 249.5 78 c 128,-1,34
 306 78 306 78 365.5 72.5 c 128,-1,35
 425 67 425 67 458.5 67 c 128,-1,36
 492 67 492 67 508 77 c 128,-1,37
 524 87 524 87 534 130 c 1,38,-1
 558 126 l 1,39,40
 546 36 546 36 520 14 c 0,41,42
 491 -12 491 -12 442 -12 c 0,43,44
 414 -12 414 -12 347 -2.5 c 128,-1,45
 280 7 280 7 229 7 c 128,-1,46
 178 7 178 7 132 1 c 128,-1,47
 86 -5 86 -5 74 -10 c 2,48,-1
 61 -16 l 1,49,-1
 49 18 l 1,50,51
 114 61 114 61 133 112 c 128,-1,52
 152 163 152 163 155 282 c 2,53,-1
 156 341 l 1,54,-1
 47 341 l 1,55,-1
 47 374 l 1,0,-1
EndSplineSet
EndChar

StartChar: currency
Encoding: 164 164 101
Width: 615
GlyphClass: 2
Flags: W
LayerCount: 2
Fore
SplineSet
434 163 m 1,0,1
 379 123 379 123 307.5 123 c 128,-1,2
 236 123 236 123 181 164 c 1,3,-1
 118 96 l 1,4,-1
 70 144 l 1,5,-1
 138 210 l 1,6,7
 104 263 104 263 104 333.5 c 128,-1,8
 104 404 104 404 140 457 c 1,9,-1
 70 525 l 1,10,-1
 118 573 l 1,11,-1
 183 503 l 1,12,13
 235 541 235 541 306 541 c 128,-1,14
 377 541 377 541 431 501 c 1,15,-1
 496 571 l 1,16,-1
 544 523 l 1,17,-1
 475 456 l 1,18,19
 511 402 511 402 511 332 c 128,-1,20
 511 262 511 262 477 209 c 1,21,-1
 546 142 l 1,22,-1
 498 94 l 1,23,-1
 434 163 l 1,0,1
410 219 m 128,-1,25
 450 260 450 260 450 327.5 c 128,-1,26
 450 395 450 395 410 440.5 c 128,-1,27
 370 486 370 486 305.5 486 c 128,-1,28
 241 486 241 486 202.5 445.5 c 128,-1,29
 164 405 164 405 164 335.5 c 128,-1,30
 164 266 164 266 205 222 c 128,-1,31
 246 178 246 178 308 178 c 128,-1,24
 370 178 370 178 410 219 c 128,-1,25
EndSplineSet
EndChar

StartChar: yen
Encoding: 165 165 102
Width: 752
GlyphClass: 2
Flags: W
LayerCount: 2
Fore
SplineSet
596 295 m 1,0,-1
 596 258 l 1,1,-1
 445 258 l 1,2,-1
 445 222 l 1,3,-1
 596 222 l 1,4,-1
 596 186 l 1,5,-1
 445 186 l 1,6,-1
 445 33 l 1,7,-1
 532 24 l 1,8,-1
 532 0 l 1,9,-1
 255 0 l 1,10,-1
 255 24 l 1,11,-1
 342 33 l 1,12,-1
 342 186 l 1,13,-1
 201 186 l 1,14,-1
 201 222 l 1,15,-1
 342 222 l 1,16,-1
 342 258 l 1,17,-1
 201 258 l 1,18,-1
 201 294 l 1,19,-1
 337 294 l 1,20,-1
 106 637 l 1,21,-1
 30 644 l 1,22,-1
 30 668 l 1,23,-1
 300 668 l 1,24,-1
 300 647 l 1,25,-1
 223 638 l 1,26,-1
 421 339 l 1,27,-1
 592 621 l 1,28,-1
 517 644 l 1,29,-1
 517 668 l 1,30,-1
 720 668 l 1,31,-1
 720 644 l 1,32,-1
 644 620 l 1,33,-1
 445 295 l 1,34,-1
 596 295 l 1,0,-1
EndSplineSet
EndChar

StartChar: brokenbar
Encoding: 166 166 103
Width: 259
GlyphClass: 2
Flags: W
LayerCount: 2
Fore
SplineSet
94 690 m 1,0,-1
 165 690 l 1,1,-1
 165 333 l 1,2,-1
 94 333 l 1,3,-1
 94 690 l 1,0,-1
94 136 m 1,4,-1
 165 136 l 1,5,-1
 165 -221 l 1,6,-1
 94 -221 l 1,7,-1
 94 136 l 1,4,-1
EndSplineSet
EndChar

StartChar: section
Encoding: 167 167 104
Width: 493
GlyphClass: 2
Flags: W
LayerCount: 2
Fore
SplineSet
434 103 m 0,0,1
 434 -3 434 -3 384.5 -72.5 c 128,-1,2
 335 -142 335 -142 229 -142 c 0,3,4
 159 -142 159 -142 110 -111 c 128,-1,5
 61 -80 61 -80 61 -27 c 0,6,7
 61 6 61 6 83 20 c 0,8,9
 95 28 95 28 112 28 c 128,-1,10
 129 28 129 28 150 21 c 1,11,12
 149 12 149 12 149 4 c 0,13,14
 149 -49 149 -49 172.5 -81.5 c 128,-1,15
 196 -114 196 -114 238 -114 c 128,-1,16
 280 -114 280 -114 306.5 -90 c 128,-1,17
 333 -66 333 -66 333 -25.5 c 128,-1,18
 333 15 333 15 304.5 59 c 128,-1,19
 276 103 276 103 236 147 c 128,-1,20
 196 191 196 191 155.5 238.5 c 128,-1,21
 115 286 115 286 86.5 348.5 c 128,-1,22
 58 411 58 411 58 477 c 0,23,24
 58 575 58 575 113.5 636.5 c 128,-1,25
 169 698 169 698 264 698 c 0,26,27
 330 698 330 698 381 667 c 128,-1,28
 432 636 432 636 432 583 c 0,29,30
 432 551 432 551 410 536 c 0,31,32
 397 527 397 527 380 527 c 128,-1,33
 363 527 363 527 343 533 c 1,34,35
 344 543 344 543 344 551 c 0,36,37
 344 606 344 606 321 637.5 c 128,-1,38
 298 669 298 669 253.5 669 c 128,-1,39
 209 669 209 669 181.5 646.5 c 128,-1,40
 154 624 154 624 154 585 c 128,-1,41
 154 546 154 546 183 501 c 128,-1,42
 212 456 212 456 253 414 c 128,-1,43
 294 372 294 372 335 327 c 128,-1,44
 376 282 376 282 405 223.5 c 128,-1,45
 434 165 434 165 434 103 c 0,0,1
373 -15 m 1,46,47
 391 24 391 24 391 76.5 c 128,-1,48
 391 129 391 129 369 176 c 128,-1,49
 347 223 347 223 325 249 c 128,-1,50
 303 275 303 275 258 323 c 128,-1,51
 213 371 213 371 191 397 c 128,-1,52
 169 423 169 423 144 471.5 c 128,-1,53
 119 520 119 520 115 569 c 1,54,55
 99 527 99 527 99 489 c 128,-1,56
 99 451 99 451 108.5 420.5 c 128,-1,57
 118 390 118 390 140 358 c 0,58,59
 170 313 170 313 220 257 c 128,-1,60
 270 201 270 201 295.5 169 c 128,-1,61
 321 137 321 137 346 85 c 128,-1,62
 371 33 371 33 373 -15 c 1,46,47
EndSplineSet
EndChar

StartChar: dieresis
Encoding: 168 168 105
Width: 476
GlyphClass: 2
Flags: W
LayerCount: 2
Fore
SplineSet
177.5 579 m 128,-1,1
 161 562 161 562 136.5 562 c 128,-1,2
 112 562 112 562 95.5 578.5 c 128,-1,3
 79 595 79 595 79 619.5 c 128,-1,4
 79 644 79 644 95.5 661 c 128,-1,5
 112 678 112 678 136.5 678 c 128,-1,6
 161 678 161 678 177.5 661 c 128,-1,7
 194 644 194 644 194 620 c 128,-1,0
 194 596 194 596 177.5 579 c 128,-1,1
363.5 579 m 128,-1,9
 347 562 347 562 322.5 562 c 128,-1,10
 298 562 298 562 281.5 578.5 c 128,-1,11
 265 595 265 595 265 619.5 c 128,-1,12
 265 644 265 644 281.5 661 c 128,-1,13
 298 678 298 678 322.5 678 c 128,-1,14
 347 678 347 678 363.5 661 c 128,-1,15
 380 644 380 644 380 620 c 128,-1,8
 380 596 380 596 363.5 579 c 128,-1,9
EndSplineSet
EndChar

StartChar: copyright
Encoding: 169 169 106
Width: 788
GlyphClass: 2
Flags: W
LayerCount: 2
Fore
SplineSet
636 578.5 m 128,-1,1
 732 478 732 478 732 330 c 128,-1,2
 732 182 732 182 637 83.5 c 128,-1,3
 542 -15 542 -15 395 -15 c 128,-1,4
 248 -15 248 -15 152 84 c 128,-1,5
 56 183 56 183 56 331 c 128,-1,6
 56 479 56 479 151.5 579 c 128,-1,7
 247 679 247 679 393.5 679 c 128,-1,0
 540 679 540 679 636 578.5 c 128,-1,1
606 111 m 128,-1,9
 685 198 685 198 685 329 c 128,-1,10
 685 460 685 460 603 551 c 128,-1,11
 521 642 521 642 392 642 c 128,-1,12
 263 642 263 642 183.5 553.5 c 128,-1,13
 104 465 104 465 104 334.5 c 128,-1,14
 104 204 104 204 186 114 c 128,-1,15
 268 24 268 24 397.5 24 c 128,-1,8
 527 24 527 24 606 111 c 128,-1,9
413 540 m 0,16,17
 461 540 461 540 504 520 c 0,18,19
 527 509 527 509 541.5 486.5 c 128,-1,20
 556 464 556 464 556 434 c 128,-1,21
 556 404 556 404 530 394 c 0,22,23
 519 389 519 389 506.5 389 c 128,-1,24
 494 389 494 389 482 398 c 1,25,26
 486 416 486 416 486 440 c 128,-1,27
 486 464 486 464 471 485 c 0,28,29
 449 517 449 517 409 517 c 0,30,31
 292 517 292 517 292 326 c 0,32,33
 292 232 292 232 319 185 c 128,-1,34
 346 138 346 138 407 138 c 0,35,36
 486 138 486 138 532 213 c 1,37,38
 551 207 551 207 551 196 c 0,39,40
 551 183 551 183 535.5 165 c 128,-1,41
 520 147 520 147 481.5 130.5 c 128,-1,42
 443 114 443 114 394 114 c 0,43,44
 308 114 308 114 255 172.5 c 128,-1,45
 202 231 202 231 202 327.5 c 128,-1,46
 202 424 202 424 259 482 c 128,-1,47
 316 540 316 540 413 540 c 0,16,17
EndSplineSet
EndChar

StartChar: ordfeminine
Encoding: 170 170 107
Width: 391
GlyphClass: 2
Flags: W
LayerCount: 2
Fore
SplineSet
121 449 m 0,0,1
 121 393 121 393 162 393 c 0,2,3
 189 393 189 393 210.5 413.5 c 128,-1,4
 232 434 232 434 233 468 c 1,5,-1
 233 529 l 1,6,7
 121 527 121 527 121 449 c 0,0,1
143 374 m 0,8,9
 54 374 54 374 54 449 c 0,10,11
 54 493 54 493 101 517 c 128,-1,12
 148 541 148 541 233 542 c 1,13,-1
 233 598 l 2,14,15
 233 674 233 674 182 674 c 0,16,17
 155 674 155 674 142.5 654 c 128,-1,18
 130 634 130 634 130 615 c 128,-1,19
 130 596 130 596 132 582 c 1,20,21
 122 575 122 575 111.5 575 c 128,-1,22
 101 575 101 575 91 579 c 0,23,24
 68 588 68 588 68 610 c 0,25,26
 68 652 68 652 104 671 c 128,-1,27
 140 690 140 690 179 690 c 0,28,29
 243 690 243 690 269.5 664.5 c 128,-1,30
 296 639 296 639 296 584 c 2,31,-1
 296 394 l 1,32,-1
 342 392 l 1,33,-1
 342 379 l 1,34,-1
 237 373 l 1,35,-1
 233 423 l 1,36,37
 202 374 202 374 143 374 c 0,8,9
EndSplineSet
EndChar

StartChar: guillemotleft
Encoding: 171 171 108
Width: 489
GlyphClass: 2
Flags: W
LayerCount: 2
Fore
SplineSet
223 421 m 1,0,1
 244 406 244 406 244 384 c 128,-1,2
 244 362 244 362 226 334.5 c 128,-1,3
 208 307 208 307 186.5 287 c 128,-1,4
 165 267 165 267 145 249.5 c 128,-1,5
 125 232 125 232 124 231 c 1,6,7
 164 205 164 205 202 157.5 c 128,-1,8
 240 110 240 110 240 83.5 c 128,-1,9
 240 57 240 57 211 43 c 1,10,11
 191 85 191 85 135 144 c 0,12,13
 100 181 100 181 52 218 c 1,14,-1
 36 231 l 1,15,16
 118 298 118 298 146 328 c 0,17,18
 193 379 193 379 215 410 c 2,19,-1
 223 421 l 1,0,1
400 421 m 1,20,21
 421 406 421 406 421 384 c 128,-1,22
 421 362 421 362 403 334.5 c 128,-1,23
 385 307 385 307 363.5 287 c 128,-1,24
 342 267 342 267 322 249.5 c 128,-1,25
 302 232 302 232 301 231 c 1,26,27
 341 205 341 205 379 157.5 c 128,-1,28
 417 110 417 110 417 83.5 c 128,-1,29
 417 57 417 57 388 43 c 1,30,31
 368 85 368 85 312 144 c 0,32,33
 277 181 277 181 229 218 c 1,34,-1
 213 231 l 1,35,36
 295 298 295 298 323 328 c 0,37,38
 370 379 370 379 392 410 c 2,39,-1
 400 421 l 1,20,21
EndSplineSet
EndChar

StartChar: logicalnot
Encoding: 172 172 109
Width: 603
GlyphClass: 2
Flags: W
LayerCount: 2
Fore
SplineSet
456 136 m 1,0,-1
 456 265 l 1,1,-1
 76 265 l 1,2,-1
 76 330 l 1,3,-1
 526 330 l 1,4,-1
 527 136 l 1,5,-1
 456 136 l 1,0,-1
EndSplineSet
EndChar

StartChar: registered
Encoding: 174 174 110
Width: 788
GlyphClass: 2
Flags: W
LayerCount: 2
Fore
SplineSet
636 578.5 m 128,-1,1
 732 478 732 478 732 330 c 128,-1,2
 732 182 732 182 637 83.5 c 128,-1,3
 542 -15 542 -15 395 -15 c 128,-1,4
 248 -15 248 -15 152 84 c 128,-1,5
 56 183 56 183 56 331 c 128,-1,6
 56 479 56 479 151.5 579 c 128,-1,7
 247 679 247 679 393.5 679 c 128,-1,0
 540 679 540 679 636 578.5 c 128,-1,1
606 111 m 128,-1,9
 685 198 685 198 685 329 c 128,-1,10
 685 460 685 460 603 551 c 128,-1,11
 521 642 521 642 392 642 c 128,-1,12
 263 642 263 642 183.5 553.5 c 128,-1,13
 104 465 104 465 104 334.5 c 128,-1,14
 104 204 104 204 186 114 c 128,-1,15
 268 24 268 24 397.5 24 c 128,-1,8
 527 24 527 24 606 111 c 128,-1,9
324 343 m 1,16,-1
 356 343 l 2,17,18
 465 343 465 343 465 433 c 0,19,20
 465 479 465 479 444 499.5 c 128,-1,21
 423 520 423 520 375 520 c 0,22,23
 358 520 358 520 324 518 c 1,24,-1
 324 343 l 1,16,-1
369 126 m 1,25,-1
 299 127 l 2,26,27
 248 127 248 127 221 126 c 1,28,-1
 221 141 l 1,29,-1
 262 147 l 1,30,-1
 262 516 l 1,31,-1
 217 523 l 1,32,-1
 217 538 l 1,33,34
 271 536 271 536 294 536 c 2,35,-1
 323 536 l 1,36,-1
 394 538 l 1,37,38
 532 538 532 538 532 433 c 0,39,40
 532 389 532 389 501 360 c 128,-1,41
 470 331 470 331 421 331 c 1,42,-1
 406 332 l 1,43,-1
 406 331 l 1,44,45
 472 322 472 322 496.5 289 c 128,-1,46
 521 256 521 256 521 200.5 c 128,-1,47
 521 145 521 145 536 138 c 1,48,49
 543 133 543 133 556.5 133 c 128,-1,50
 570 133 570 133 592 141 c 1,51,-1
 592 126 l 1,52,53
 556 114 556 114 532 114 c 0,54,55
 472 114 472 114 458 165 c 0,56,57
 453 184 453 184 453 220 c 1,58,-1
 454 235 l 1,59,60
 454 325 454 325 360 325 c 2,61,-1
 324 325 l 1,62,-1
 324 147 l 1,63,-1
 369 142 l 1,64,-1
 369 126 l 1,25,-1
EndSplineSet
EndChar

StartChar: macron
Encoding: 175 175 111
Width: 538
GlyphClass: 2
Flags: W
LayerCount: 2
Fore
SplineSet
448 666 m 1,0,-1
 448 608 l 1,1,-1
 109 608 l 1,2,-1
 109 666 l 1,3,-1
 448 666 l 1,0,-1
EndSplineSet
EndChar

StartChar: degree
Encoding: 176 176 112
Width: 331
GlyphClass: 2
Flags: W
LayerCount: 2
Fore
SplineSet
251.5 663.5 m 128,-1,1
 284 632 284 632 284 583.5 c 128,-1,2
 284 535 284 535 250 503 c 128,-1,3
 216 471 216 471 162.5 471 c 128,-1,4
 109 471 109 471 78.5 502 c 128,-1,5
 48 533 48 533 48 581 c 128,-1,6
 48 629 48 629 83 662 c 128,-1,7
 118 695 118 695 168.5 695 c 128,-1,0
 219 695 219 695 251.5 663.5 c 128,-1,1
218.5 529.5 m 128,-1,9
 238 550 238 550 238 582.5 c 128,-1,10
 238 615 238 615 218 635.5 c 128,-1,11
 198 656 198 656 166 656 c 128,-1,12
 134 656 134 656 113.5 635 c 128,-1,13
 93 614 93 614 93 581.5 c 128,-1,14
 93 549 93 549 113 529 c 128,-1,15
 133 509 133 509 166 509 c 128,-1,8
 199 509 199 509 218.5 529.5 c 128,-1,9
EndSplineSet
EndChar

StartChar: plusminus
Encoding: 177 177 113
Width: 525
GlyphClass: 2
Flags: W
LayerCount: 2
Fore
SplineSet
455 263 m 1,0,-1
 288 263 l 1,1,-1
 288 97 l 1,2,-1
 233 97 l 1,3,-1
 233 263 l 1,4,-1
 68 263 l 1,5,-1
 68 318 l 1,6,-1
 233 318 l 1,7,-1
 233 484 l 1,8,-1
 288 484 l 1,9,-1
 288 318 l 1,10,-1
 455 318 l 1,11,-1
 455 263 l 1,0,-1
458 0 m 1,12,-1
 67 0 l 1,13,-1
 67 55 l 1,14,-1
 458 55 l 1,15,-1
 458 0 l 1,12,-1
EndSplineSet
EndChar

StartChar: twosuperior
Encoding: 178 178 114
Width: 415
GlyphClass: 2
Flags: W
LayerCount: 2
Fore
SplineSet
63 295 m 1,0,-1
 63 334 l 1,1,2
 132 374 132 374 190 442 c 128,-1,3
 248 510 248 510 248 591.5 c 128,-1,4
 248 673 248 673 196 673 c 0,5,6
 168 673 168 673 153 647.5 c 128,-1,7
 138 622 138 622 138 598 c 128,-1,8
 138 574 138 574 140 556 c 1,9,10
 122 547 122 547 109 547 c 128,-1,11
 96 547 96 547 88 552 c 0,12,13
 67 563 67 563 67 593 c 0,14,15
 67 638 67 638 105 665.5 c 128,-1,16
 143 693 143 693 197.5 693 c 128,-1,17
 252 693 252 693 292.5 664.5 c 128,-1,18
 333 636 333 636 333 582 c 128,-1,19
 333 528 333 528 297 478.5 c 128,-1,20
 261 429 261 429 222.5 400 c 128,-1,21
 184 371 184 371 145 350 c 1,22,-1
 317 350 l 1,23,-1
 337 405 l 1,24,-1
 355 405 l 1,25,-1
 349 295 l 1,26,-1
 63 295 l 1,0,-1
EndSplineSet
EndChar

StartChar: threesuperior
Encoding: 179 179 115
Width: 380
GlyphClass: 2
Flags: W
LayerCount: 2
Fore
SplineSet
114 404 m 1,0,1
 112 393 112 393 112 374 c 128,-1,2
 112 355 112 355 127 331 c 128,-1,3
 142 307 142 307 177 307 c 128,-1,4
 212 307 212 307 230.5 331.5 c 128,-1,5
 249 356 249 356 249 398 c 128,-1,6
 249 440 249 440 224 462.5 c 128,-1,7
 199 485 199 485 158 485 c 2,8,-1
 125 485 l 1,9,-1
 125 500 l 1,10,11
 173 502 173 502 205.5 528 c 128,-1,12
 238 554 238 554 238 596 c 128,-1,13
 238 638 238 638 223 655.5 c 128,-1,14
 208 673 208 673 184.5 673 c 128,-1,15
 161 673 161 673 147 654.5 c 128,-1,16
 133 636 133 636 133 618 c 128,-1,17
 133 600 133 600 136 586 c 1,18,19
 120 579 120 579 109 579 c 0,20,21
 72 579 72 579 72 617 c 0,22,23
 72 651 72 651 106 672 c 128,-1,24
 140 693 140 693 188.5 693 c 128,-1,25
 237 693 237 693 276 669.5 c 128,-1,26
 315 646 315 646 315 597 c 0,27,28
 315 568 315 568 295.5 542 c 128,-1,29
 276 516 276 516 236 503 c 1,30,31
 326 482 326 482 326 404 c 0,32,33
 326 352 326 352 285.5 319 c 128,-1,34
 245 286 245 286 179.5 286 c 128,-1,35
 114 286 114 286 81.5 308.5 c 128,-1,36
 49 331 49 331 48.5 361 c 128,-1,37
 48 391 48 391 66 402 c 1,38,39
 75 409 75 409 87.5 409 c 128,-1,40
 100 409 100 409 114 404 c 1,0,1
EndSplineSet
EndChar

StartChar: acute
Encoding: 180 180 116
Width: 390
GlyphClass: 2
Flags: W
LayerCount: 2
Fore
SplineSet
241 759 m 1,0,1
 294 725 294 725 294 701 c 0,2,3
 294 690 294 690 280 675 c 1,4,5
 201 602 201 602 134 550 c 1,6,7
 116 566 116 566 112 571 c 1,8,9
 229 742 229 742 241 759 c 1,0,1
EndSplineSet
EndChar

StartChar: mu
Encoding: 181 181 117
AltUni2: 0003bc.ffffffff.0
Width: 661
GlyphClass: 2
Flags: W
LayerCount: 2
Fore
SplineSet
152 -13 m 2,0,1
 152 -47 152 -47 169 -100 c 128,-1,2
 186 -153 186 -153 186 -180.5 c 128,-1,3
 186 -208 186 -208 171.5 -225.5 c 128,-1,4
 157 -243 157 -243 134 -243 c 0,5,6
 87 -243 87 -243 87 -170 c 0,7,8
 87 -152 87 -152 101.5 -99.5 c 128,-1,9
 116 -47 116 -47 116 -13 c 0,10,11
 116 197 116 197 125 456 c 1,12,-1
 45 460 l 1,13,-1
 45 483 l 1,14,-1
 223 494 l 1,15,16
 216 230 216 230 216 135 c 0,17,18
 216 78 216 78 237 50 c 128,-1,19
 258 22 258 22 307.5 22 c 128,-1,20
 357 22 357 22 401 77.5 c 128,-1,21
 445 133 445 133 445 175 c 2,22,-1
 445 456 l 1,23,-1
 362 460 l 1,24,-1
 362 483 l 1,25,-1
 543 494 l 1,26,-1
 543 31 l 1,27,-1
 628 27 l 1,28,-1
 629 4 l 1,29,-1
 449 -8 l 1,30,-1
 456 100 l 1,31,-1
 444 100 l 1,32,33
 392 -12 392 -12 278 -12 c 0,34,35
 192 -12 192 -12 152 32 c 1,36,-1
 152 -13 l 2,0,1
EndSplineSet
EndChar

StartChar: paragraph
Encoding: 182 182 118
Width: 527
GlyphClass: 2
Flags: W
LayerCount: 2
Fore
SplineSet
303 635 m 1,0,-1
 303 -112 l 1,1,-1
 244 -112 l 1,2,-1
 244 328 l 1,3,4
 223 325 223 325 203 325 c 0,5,6
 112 325 112 325 73 374.5 c 128,-1,7
 34 424 34 424 34 497 c 128,-1,8
 34 570 34 570 81.5 619.5 c 128,-1,9
 129 669 129 669 223 669 c 0,10,11
 370 669 370 669 474 668 c 1,12,-1
 474 644 l 1,13,-1
 405 637 l 1,14,-1
 405 -112 l 1,15,-1
 349 -112 l 1,16,-1
 349 635 l 1,17,-1
 303 635 l 1,0,-1
EndSplineSet
EndChar

StartChar: periodcentered
Encoding: 183 183 119
Width: 228
GlyphClass: 2
Flags: W
LayerCount: 2
Fore
SplineSet
114 289 m 128,-1,1
 94 289 94 289 81 302 c 128,-1,2
 68 315 68 315 68 334.5 c 128,-1,3
 68 354 68 354 81 367.5 c 128,-1,4
 94 381 94 381 113.5 381 c 128,-1,5
 133 381 133 381 146.5 367 c 128,-1,6
 160 353 160 353 160 334.5 c 128,-1,7
 160 316 160 316 147 302.5 c 128,-1,0
 134 289 134 289 114 289 c 128,-1,1
EndSplineSet
EndChar

StartChar: cedilla
Encoding: 184 184 120
Width: 336
GlyphClass: 2
Flags: W
LayerCount: 2
Fore
SplineSet
146 -68 m 1,0,1
 168 -56 168 -56 203 -56 c 128,-1,2
 238 -56 238 -56 263.5 -76 c 128,-1,3
 289 -96 289 -96 289 -128 c 0,4,5
 289 -175 289 -175 252.5 -196 c 128,-1,6
 216 -217 216 -217 171 -217 c 128,-1,7
 126 -217 126 -217 63 -192 c 1,8,-1
 71 -175 l 1,9,10
 109 -189 109 -189 142 -189 c 0,11,12
 209 -189 209 -189 209 -131 c 0,13,14
 209 -84 209 -84 170 -84 c 0,15,16
 149 -84 149 -84 128 -91 c 1,17,-1
 107 -82 l 1,18,-1
 158 8 l 1,19,-1
 186 8 l 1,20,-1
 144 -65 l 1,21,-1
 146 -68 l 1,0,1
EndSplineSet
EndChar

StartChar: onesuperior
Encoding: 185 185 121
Width: 309
GlyphClass: 2
Flags: W
LayerCount: 2
Fore
SplineSet
205 687 m 1,0,-1
 205 326 l 1,1,-1
 262 320 l 1,2,-1
 262 301 l 1,3,-1
 76 301 l 1,4,-1
 76 320 l 1,5,-1
 132 326 l 1,6,-1
 132 617 l 1,7,-1
 57 583 l 1,8,-1
 44 611 l 1,9,-1
 166 687 l 1,10,-1
 205 687 l 1,0,-1
EndSplineSet
EndChar

StartChar: ordmasculine
Encoding: 186 186 122
Width: 398
GlyphClass: 2
Flags: W
LayerCount: 2
Fore
SplineSet
308.5 418.5 m 128,-1,1
 268 374 268 374 198.5 374 c 128,-1,2
 129 374 129 374 89 418.5 c 128,-1,3
 49 463 49 463 49 532 c 128,-1,4
 49 601 49 601 89 645.5 c 128,-1,5
 129 690 129 690 198.5 690 c 128,-1,6
 268 690 268 690 308.5 645.5 c 128,-1,7
 349 601 349 601 349 532 c 128,-1,0
 349 463 349 463 308.5 418.5 c 128,-1,1
198 391 m 0,8,9
 241 391 241 391 259 427 c 128,-1,10
 277 463 277 463 277 533.5 c 128,-1,11
 277 604 277 604 259.5 638.5 c 128,-1,12
 242 673 242 673 199 673 c 128,-1,13
 156 673 156 673 138.5 638 c 128,-1,14
 121 603 121 603 121 532 c 0,15,16
 121 391 121 391 198 391 c 0,8,9
EndSplineSet
EndChar

StartChar: guillemotright
Encoding: 187 187 123
Width: 489
GlyphClass: 2
Flags: W
LayerCount: 2
Fore
SplineSet
278 43 m 1,0,1
 249 57 249 57 249 83.5 c 128,-1,2
 249 110 249 110 278 146 c 0,3,4
 325 205 325 205 365 231 c 1,5,6
 364 232 364 232 344 249.5 c 128,-1,7
 324 267 324 267 302.5 287 c 128,-1,8
 281 307 281 307 263 334.5 c 128,-1,9
 245 362 245 362 245 384 c 128,-1,10
 245 406 245 406 266 421 c 1,11,12
 318 348 318 348 380 294 c 0,13,14
 410 267 410 267 432 249 c 2,15,-1
 453 231 l 1,16,17
 361 161 361 161 310 92 c 0,18,19
 291 67 291 67 284 55 c 2,20,-1
 278 43 l 1,0,1
101 43 m 1,21,22
 72 57 72 57 72 83.5 c 128,-1,23
 72 110 72 110 101 146 c 0,24,25
 148 205 148 205 188 231 c 1,26,27
 187 232 187 232 167 249.5 c 128,-1,28
 147 267 147 267 125.5 287 c 128,-1,29
 104 307 104 307 86 334.5 c 128,-1,30
 68 362 68 362 68 384 c 128,-1,31
 68 406 68 406 89 421 c 1,32,33
 141 348 141 348 202 294 c 0,34,35
 233 267 233 267 254 249 c 2,36,-1
 276 231 l 1,37,38
 184 161 184 161 133 92 c 0,39,40
 114 67 114 67 108 55 c 2,41,-1
 101 43 l 1,21,22
EndSplineSet
EndChar

StartChar: onequarter
Encoding: 188 188 124
Width: 742
GlyphClass: 2
Flags: W
LayerCount: 2
Fore
SplineSet
551 128 m 1,0,-1
 388 128 l 1,1,-1
 383 147 l 1,2,-1
 573 387 l 1,3,-1
 624 387 l 1,4,-1
 624 165 l 1,5,-1
 706 165 l 1,6,-1
 706 128 l 1,7,-1
 624 128 l 1,8,-1
 624 25 l 1,9,-1
 681 19 l 1,10,-1
 681 0 l 1,11,-1
 495 0 l 1,12,-1
 495 19 l 1,13,-1
 551 25 l 1,14,-1
 551 128 l 1,0,-1
198 687 m 1,15,-1
 198 326 l 1,16,-1
 255 320 l 1,17,-1
 255 301 l 1,18,-1
 69 301 l 1,19,-1
 69 320 l 1,20,-1
 125 326 l 1,21,-1
 125 617 l 1,22,-1
 50 583 l 1,23,-1
 37 611 l 1,24,-1
 159 687 l 1,25,-1
 198 687 l 1,15,-1
551 164 m 1,26,-1
 551 306 l 1,27,-1
 439 164 l 1,28,-1
 551 164 l 1,26,-1
595 668 m 1,29,-1
 189 -9 l 1,30,-1
 138 -9 l 1,31,-1
 545 668 l 1,32,-1
 595 668 l 1,29,-1
EndSplineSet
EndChar

StartChar: onehalf
Encoding: 189 189 125
Width: 792
GlyphClass: 2
Flags: W
LayerCount: 2
Fore
SplineSet
458 0 m 1,0,-1
 458 39 l 1,1,2
 527 79 527 79 585 147 c 128,-1,3
 643 215 643 215 643 296.5 c 128,-1,4
 643 378 643 378 591 378 c 0,5,6
 563 378 563 378 548 352.5 c 128,-1,7
 533 327 533 327 533 303 c 128,-1,8
 533 279 533 279 535 261 c 1,9,10
 517 252 517 252 504 252 c 128,-1,11
 491 252 491 252 482 257 c 0,12,13
 462 268 462 268 462 298 c 0,14,15
 462 343 462 343 500 370.5 c 128,-1,16
 538 398 538 398 592.5 398 c 128,-1,17
 647 398 647 398 687.5 369.5 c 128,-1,18
 728 341 728 341 728 287 c 128,-1,19
 728 233 728 233 692 183.5 c 128,-1,20
 656 134 656 134 617.5 105 c 128,-1,21
 579 76 579 76 540 55 c 1,22,-1
 712 55 l 1,23,-1
 732 110 l 1,24,-1
 750 110 l 1,25,-1
 744 0 l 1,26,-1
 458 0 l 1,0,-1
199 687 m 1,27,-1
 199 326 l 1,28,-1
 256 320 l 1,29,-1
 256 301 l 1,30,-1
 70 301 l 1,31,-1
 70 320 l 1,32,-1
 126 326 l 1,33,-1
 126 617 l 1,34,-1
 51 583 l 1,35,-1
 38 611 l 1,36,-1
 160 687 l 1,37,-1
 199 687 l 1,27,-1
573 668 m 1,38,-1
 167 -9 l 1,39,-1
 116 -9 l 1,40,-1
 523 668 l 1,41,-1
 573 668 l 1,38,-1
EndSplineSet
EndChar

StartChar: threequarters
Encoding: 190 190 126
Width: 771
GlyphClass: 2
Flags: W
LayerCount: 2
Fore
SplineSet
580 128 m 1,0,-1
 417 128 l 1,1,-1
 412 147 l 1,2,-1
 602 387 l 1,3,-1
 653 387 l 1,4,-1
 653 165 l 1,5,-1
 735 165 l 1,6,-1
 735 128 l 1,7,-1
 653 128 l 1,8,-1
 653 25 l 1,9,-1
 710 19 l 1,10,-1
 710 0 l 1,11,-1
 524 0 l 1,12,-1
 524 19 l 1,13,-1
 580 25 l 1,14,-1
 580 128 l 1,0,-1
107 404 m 1,15,16
 105 393 105 393 105 374 c 128,-1,17
 105 355 105 355 120 331 c 128,-1,18
 135 307 135 307 170 307 c 128,-1,19
 205 307 205 307 223.5 331.5 c 128,-1,20
 242 356 242 356 242 398 c 128,-1,21
 242 440 242 440 217 462.5 c 128,-1,22
 192 485 192 485 151 485 c 2,23,-1
 118 485 l 1,24,-1
 118 500 l 1,25,26
 166 502 166 502 198.5 528 c 128,-1,27
 231 554 231 554 231 596 c 128,-1,28
 231 638 231 638 216 655.5 c 128,-1,29
 201 673 201 673 177.5 673 c 128,-1,30
 154 673 154 673 140 654.5 c 128,-1,31
 126 636 126 636 126 618 c 128,-1,32
 126 600 126 600 129 586 c 1,33,34
 112 579 112 579 101 579 c 0,35,36
 65 579 65 579 65 617 c 0,37,38
 65 651 65 651 99 672 c 128,-1,39
 133 693 133 693 181.5 693 c 128,-1,40
 230 693 230 693 269 669.5 c 128,-1,41
 308 646 308 646 308 597 c 0,42,43
 308 568 308 568 288.5 542 c 128,-1,44
 269 516 269 516 229 503 c 1,45,46
 319 482 319 482 319 404 c 0,47,48
 319 352 319 352 278.5 319 c 128,-1,49
 238 286 238 286 172.5 286 c 128,-1,50
 107 286 107 286 74.5 308.5 c 128,-1,51
 42 331 42 331 41.5 361 c 128,-1,52
 41 391 41 391 58 402 c 0,53,54
 68 409 68 409 80.5 409 c 128,-1,55
 93 409 93 409 107 404 c 1,15,16
580 164 m 1,56,-1
 580 306 l 1,57,-1
 468 164 l 1,58,-1
 580 164 l 1,56,-1
623 668 m 1,59,-1
 217 -9 l 1,60,-1
 166 -9 l 1,61,-1
 573 668 l 1,62,-1
 623 668 l 1,59,-1
EndSplineSet
EndChar

StartChar: questiondown
Encoding: 191 191 127
Width: 437
GlyphClass: 2
Flags: W
LayerCount: 2
Fore
SplineSet
214 666.5 m 128,-1,1
 231 684 231 684 256.5 684 c 128,-1,2
 282 684 282 684 299 667 c 128,-1,3
 316 650 316 650 316 624.5 c 128,-1,4
 316 599 316 599 299 581.5 c 128,-1,5
 282 564 282 564 257 564 c 128,-1,6
 232 564 232 564 214.5 582 c 128,-1,7
 197 600 197 600 197 624.5 c 128,-1,0
 197 649 197 649 214 666.5 c 128,-1,1
231 417 m 1,8,9
 232 420 232 420 232 428 c 128,-1,10
 232 436 232 436 223 460 c 1,11,12
 245 467 245 467 261 467 c 0,13,14
 303 467 303 467 303 419 c 0,15,16
 303 357 303 357 242 296 c 2,17,-1
 192 246 l 2,18,19
 132 186 132 186 132 120 c 0,20,21
 132 17 132 17 213 17 c 0,22,23
 259 17 259 17 288 56 c 0,24,25
 311 86 311 86 311 134 c 0,26,27
 311 150 311 150 308 168 c 1,28,29
 326 174 326 174 342 174 c 128,-1,30
 358 174 358 174 370 166 c 1,31,32
 395 152 395 152 395 118 c 0,33,34
 395 59 395 59 342 23 c 128,-1,35
 289 -13 289 -13 212 -13 c 0,36,37
 37 -13 37 -13 37 130 c 0,38,39
 37 175 37 175 67.5 220 c 128,-1,40
 98 265 98 265 134 295 c 0,41,42
 231 376 231 376 231 417 c 1,8,9
EndSplineSet
EndChar

StartChar: Agrave
Encoding: 192 192 128
Width: 677
GlyphClass: 2
Flags: W
LayerCount: 2
Fore
SplineSet
-10 0 m 1,0,-1
 -10 24 l 1,1,-1
 66 50 l 1,2,-1
 312 668 l 1,3,-1
 361 668 l 1,4,-1
 622 33 l 1,5,-1
 699 24 l 1,6,-1
 699 0 l 1,7,-1
 429 0 l 1,8,-1
 429 21 l 1,9,-1
 507 33 l 1,10,-1
 419 263 l 1,11,-1
 194 263 l 1,12,-1
 110 50 l 1,13,-1
 199 24 l 1,14,-1
 199 0 l 1,15,-1
 -10 0 l 1,0,-1
306 543 m 1,16,-1
 208 300 l 1,17,-1
 404 300 l 1,18,-1
 306 543 l 1,16,-1
235 815 m 1,19,20
 217 829 217 829 217 839 c 0,21,22
 217 866 217 866 258 904 c 1,23,24
 301 863 301 863 419 743 c 1,25,-1
 402 718 l 1,26,27
 330 755 330 755 235 815 c 1,19,20
EndSplineSet
EndChar

StartChar: Aacute
Encoding: 193 193 129
Width: 677
GlyphClass: 2
Flags: W
LayerCount: 2
Fore
SplineSet
-10 0 m 1,0,-1
 -10 24 l 1,1,-1
 66 50 l 1,2,-1
 312 668 l 1,3,-1
 361 668 l 1,4,-1
 622 33 l 1,5,-1
 699 24 l 1,6,-1
 699 0 l 1,7,-1
 429 0 l 1,8,-1
 429 21 l 1,9,-1
 507 33 l 1,10,-1
 419 263 l 1,11,-1
 194 263 l 1,12,-1
 110 50 l 1,13,-1
 199 24 l 1,14,-1
 199 0 l 1,15,-1
 -10 0 l 1,0,-1
306 543 m 1,16,-1
 208 300 l 1,17,-1
 404 300 l 1,18,-1
 306 543 l 1,16,-1
419 904 m 1,19,20
 460 866 460 866 460 841 c 0,21,22
 460 829 460 829 442 815 c 1,23,24
 347 755 347 755 275 718 c 1,25,-1
 258 743 l 1,26,27
 376 863 376 863 419 904 c 1,19,20
EndSplineSet
EndChar

StartChar: Acircumflex
Encoding: 194 194 130
Width: 677
GlyphClass: 2
Flags: W
LayerCount: 2
Fore
SplineSet
-10 0 m 1,0,-1
 -10 24 l 1,1,-1
 66 50 l 1,2,-1
 312 668 l 1,3,-1
 361 668 l 1,4,-1
 622 33 l 1,5,-1
 699 24 l 1,6,-1
 699 0 l 1,7,-1
 429 0 l 1,8,-1
 429 21 l 1,9,-1
 507 33 l 1,10,-1
 419 263 l 1,11,-1
 194 263 l 1,12,-1
 110 50 l 1,13,-1
 199 24 l 1,14,-1
 199 0 l 1,15,-1
 -10 0 l 1,0,-1
306 543 m 1,16,-1
 208 300 l 1,17,-1
 404 300 l 1,18,-1
 306 543 l 1,16,-1
179 735 m 1,19,-1
 316 921 l 1,20,-1
 366 921 l 1,21,-1
 502 735 l 1,22,-1
 471 716 l 1,23,-1
 341 842 l 1,24,-1
 210 716 l 1,25,-1
 179 735 l 1,19,-1
EndSplineSet
EndChar

StartChar: Atilde
Encoding: 195 195 131
Width: 677
GlyphClass: 2
Flags: W
LayerCount: 2
Fore
SplineSet
-10 0 m 1,0,-1
 -10 24 l 1,1,-1
 66 50 l 1,2,-1
 312 668 l 1,3,-1
 361 668 l 1,4,-1
 622 33 l 1,5,-1
 699 24 l 1,6,-1
 699 0 l 1,7,-1
 429 0 l 1,8,-1
 429 21 l 1,9,-1
 507 33 l 1,10,-1
 419 263 l 1,11,-1
 194 263 l 1,12,-1
 110 50 l 1,13,-1
 199 24 l 1,14,-1
 199 0 l 1,15,-1
 -10 0 l 1,0,-1
306 543 m 1,16,-1
 208 300 l 1,17,-1
 404 300 l 1,18,-1
 306 543 l 1,16,-1
476.5 770 m 128,-1,20
 448 740 448 740 410.5 740 c 128,-1,21
 373 740 373 740 325 769 c 1,22,23
 280 801 280 801 256.5 801 c 128,-1,24
 233 801 233 801 216.5 787 c 128,-1,25
 200 773 200 773 195 755 c 1,26,-1
 168 755 l 1,27,28
 174 800 174 800 202.5 829.5 c 128,-1,29
 231 859 231 859 271 859 c 128,-1,30
 311 859 311 859 358 829 c 1,31,32
 403 798 403 798 425 798 c 128,-1,33
 447 798 447 798 463 812.5 c 128,-1,34
 479 827 479 827 484 845 c 1,35,-1
 511 845 l 1,36,19
 505 800 505 800 476.5 770 c 128,-1,20
EndSplineSet
EndChar

StartChar: Adieresis
Encoding: 196 196 132
Width: 677
GlyphClass: 2
Flags: W
LayerCount: 2
Fore
SplineSet
-10 0 m 1,0,-1
 -10 24 l 1,1,-1
 66 50 l 1,2,-1
 312 668 l 1,3,-1
 361 668 l 1,4,-1
 622 33 l 1,5,-1
 699 24 l 1,6,-1
 699 0 l 1,7,-1
 429 0 l 1,8,-1
 429 21 l 1,9,-1
 507 33 l 1,10,-1
 419 263 l 1,11,-1
 194 263 l 1,12,-1
 110 50 l 1,13,-1
 199 24 l 1,14,-1
 199 0 l 1,15,-1
 -10 0 l 1,0,-1
306 543 m 1,16,-1
 208 300 l 1,17,-1
 404 300 l 1,18,-1
 306 543 l 1,16,-1
284.5 759 m 128,-1,20
 268 742 268 742 243.5 742 c 128,-1,21
 219 742 219 742 202.5 758.5 c 128,-1,22
 186 775 186 775 186 799.5 c 128,-1,23
 186 824 186 824 202.5 841 c 128,-1,24
 219 858 219 858 243.5 858 c 128,-1,25
 268 858 268 858 284.5 841 c 128,-1,26
 301 824 301 824 301 800 c 128,-1,19
 301 776 301 776 284.5 759 c 128,-1,20
470.5 759 m 128,-1,28
 454 742 454 742 429.5 742 c 128,-1,29
 405 742 405 742 388.5 758.5 c 128,-1,30
 372 775 372 775 372 799.5 c 128,-1,31
 372 824 372 824 388.5 841 c 128,-1,32
 405 858 405 858 429.5 858 c 128,-1,33
 454 858 454 858 470.5 841 c 128,-1,34
 487 824 487 824 487 800 c 128,-1,27
 487 776 487 776 470.5 759 c 128,-1,28
EndSplineSet
EndChar

StartChar: Aring
Encoding: 197 197 133
Width: 677
GlyphClass: 2
Flags: W
LayerCount: 2
Fore
SplineSet
-10 0 m 1,0,-1
 -10 24 l 1,1,-1
 66 50 l 1,2,-1
 312 668 l 1,3,-1
 361 668 l 1,4,-1
 622 33 l 1,5,-1
 699 24 l 1,6,-1
 699 0 l 1,7,-1
 429 0 l 1,8,-1
 429 21 l 1,9,-1
 507 33 l 1,10,-1
 419 263 l 1,11,-1
 194 263 l 1,12,-1
 110 50 l 1,13,-1
 199 24 l 1,14,-1
 199 0 l 1,15,-1
 -10 0 l 1,0,-1
306 543 m 1,16,-1
 208 300 l 1,17,-1
 404 300 l 1,18,-1
 306 543 l 1,16,-1
413 893 m 128,-1,20
 443 864 443 864 443 820 c 128,-1,21
 443 776 443 776 411.5 745.5 c 128,-1,22
 380 715 380 715 336 715 c 128,-1,23
 292 715 292 715 261.5 744 c 128,-1,24
 231 773 231 773 231 817 c 128,-1,25
 231 861 231 861 262.5 891.5 c 128,-1,26
 294 922 294 922 338.5 922 c 128,-1,19
 383 922 383 922 413 893 c 128,-1,20
377.5 773 m 128,-1,28
 394 790 394 790 394 816 c 128,-1,29
 394 842 394 842 377 860 c 128,-1,30
 360 878 360 878 336.5 878 c 128,-1,31
 313 878 313 878 296.5 861 c 128,-1,32
 280 844 280 844 280 817 c 128,-1,33
 280 790 280 790 296.5 773 c 128,-1,34
 313 756 313 756 337 756 c 128,-1,27
 361 756 361 756 377.5 773 c 128,-1,28
EndSplineSet
EndChar

StartChar: AE
Encoding: 198 198 134
Width: 898
GlyphClass: 2
Flags: W
LayerCount: 2
Fore
SplineSet
340 0 m 1,0,-1
 340 24 l 1,1,-1
 427 33 l 1,2,-1
 427 263 l 1,3,-1
 233 263 l 1,4,-1
 89 48 l 1,5,-1
 171 22 l 1,6,-1
 171 0 l 1,7,-1
 -42 0 l 1,8,-1
 -42 20 l 1,9,-1
 41 47 l 1,10,-1
 427 629 l 1,11,-1
 427 635 l 1,12,-1
 340 646 l 1,13,-1
 340 670 l 1,14,-1
 819 668 l 1,15,-1
 819 526 l 1,16,-1
 794 526 l 1,17,-1
 760 632 l 1,18,-1
 530 635 l 1,19,-1
 530 366 l 1,20,-1
 732 366 l 1,21,-1
 763 440 l 1,22,-1
 783 440 l 1,23,-1
 783 254 l 1,24,-1
 762 254 l 1,25,-1
 732 330 l 1,26,-1
 530 330 l 1,27,-1
 530 32 l 1,28,-1
 790 35 l 1,29,-1
 837 149 l 1,30,-1
 863 149 l 1,31,-1
 851 0 l 1,32,-1
 340 0 l 1,0,-1
427 298 m 1,33,-1
 427 566 l 1,34,-1
 258 298 l 1,35,-1
 427 298 l 1,33,-1
EndSplineSet
EndChar

StartChar: Ccedilla
Encoding: 199 199 135
Width: 708
GlyphClass: 2
Flags: W
LayerCount: 2
Fore
SplineSet
436 675 m 1,0,1
 436 675 436 675 642 666 c 1,2,-1
 648 484 l 1,3,-1
 616 484 l 1,4,-1
 582 615 l 1,5,6
 528 638 528 638 454 638 c 0,7,8
 333 638 333 638 253.5 558.5 c 128,-1,9
 174 479 174 479 174 327 c 128,-1,10
 174 175 174 175 251.5 102.5 c 128,-1,11
 329 30 329 30 450 30 c 0,12,13
 531 30 531 30 595 54 c 1,14,-1
 632 169 l 1,15,-1
 660 168 l 1,16,-1
 654 18 l 1,17,18
 539 -6 539 -6 456.5 -6 c 128,-1,19
 374 -6 374 -6 320.5 3 c 128,-1,20
 267 12 267 12 216 35 c 128,-1,21
 165 58 165 58 129.5 94 c 128,-1,22
 94 130 94 130 72.5 187.5 c 128,-1,23
 51 245 51 245 51 328 c 128,-1,24
 51 411 51 411 83.5 481.5 c 128,-1,25
 116 552 116 552 172 593 c 0,26,27
 283 675 283 675 436 675 c 1,0,1
360 -68 m 1,28,29
 382 -56 382 -56 417 -56 c 128,-1,30
 452 -56 452 -56 477.5 -76 c 128,-1,31
 503 -96 503 -96 503 -128 c 0,32,33
 503 -175 503 -175 466.5 -196 c 128,-1,34
 430 -217 430 -217 385 -217 c 128,-1,35
 340 -217 340 -217 277 -192 c 1,36,-1
 285 -175 l 1,37,38
 323 -189 323 -189 356 -189 c 0,39,40
 423 -189 423 -189 423 -131 c 0,41,42
 423 -84 423 -84 384 -84 c 0,43,44
 363 -84 363 -84 342 -91 c 1,45,-1
 321 -82 l 1,46,-1
 372 8 l 1,47,-1
 400 8 l 1,48,-1
 358 -65 l 1,49,-1
 360 -68 l 1,28,29
EndSplineSet
EndChar

StartChar: Egrave
Encoding: 200 200 136
Width: 597
GlyphClass: 2
Flags: W
LayerCount: 2
Fore
SplineSet
39 0 m 1,0,-1
 39 24 l 1,1,-1
 126 33 l 1,2,-1
 126 635 l 1,3,-1
 39 646 l 1,4,-1
 39 668 l 1,5,-1
 518 668 l 1,6,-1
 519 526 l 1,7,-1
 493 526 l 1,8,-1
 459 632 l 1,9,-1
 229 635 l 1,10,-1
 229 366 l 1,11,-1
 431 366 l 1,12,-1
 462 440 l 1,13,-1
 482 440 l 1,14,-1
 482 254 l 1,15,-1
 461 254 l 1,16,-1
 431 330 l 1,17,-1
 229 330 l 1,18,-1
 229 32 l 1,19,-1
 489 35 l 1,20,-1
 536 149 l 1,21,-1
 562 149 l 1,22,-1
 550 0 l 1,23,-1
 39 0 l 1,0,-1
195 815 m 1,24,25
 177 829 177 829 177 839 c 0,26,27
 177 866 177 866 218 904 c 1,28,29
 261 863 261 863 379 743 c 1,30,-1
 362 718 l 1,31,32
 290 755 290 755 195 815 c 1,24,25
EndSplineSet
EndChar

StartChar: Eacute
Encoding: 201 201 137
Width: 597
GlyphClass: 2
Flags: W
LayerCount: 2
Fore
SplineSet
39 0 m 1,0,-1
 39 24 l 1,1,-1
 126 33 l 1,2,-1
 126 635 l 1,3,-1
 39 646 l 1,4,-1
 39 668 l 1,5,-1
 518 668 l 1,6,-1
 519 526 l 1,7,-1
 493 526 l 1,8,-1
 459 632 l 1,9,-1
 229 635 l 1,10,-1
 229 366 l 1,11,-1
 431 366 l 1,12,-1
 462 440 l 1,13,-1
 482 440 l 1,14,-1
 482 254 l 1,15,-1
 461 254 l 1,16,-1
 431 330 l 1,17,-1
 229 330 l 1,18,-1
 229 32 l 1,19,-1
 489 35 l 1,20,-1
 536 149 l 1,21,-1
 562 149 l 1,22,-1
 550 0 l 1,23,-1
 39 0 l 1,0,-1
390 904 m 1,24,25
 431 866 431 866 431 841 c 0,26,27
 431 829 431 829 413 815 c 1,28,29
 318 755 318 755 246 718 c 1,30,-1
 229 743 l 1,31,32
 347 863 347 863 390 904 c 1,24,25
EndSplineSet
EndChar

StartChar: Ecircumflex
Encoding: 202 202 138
Width: 597
GlyphClass: 2
Flags: W
LayerCount: 2
Fore
SplineSet
39 0 m 1,0,-1
 39 24 l 1,1,-1
 126 33 l 1,2,-1
 126 635 l 1,3,-1
 39 646 l 1,4,-1
 39 668 l 1,5,-1
 518 668 l 1,6,-1
 519 526 l 1,7,-1
 493 526 l 1,8,-1
 459 632 l 1,9,-1
 229 635 l 1,10,-1
 229 366 l 1,11,-1
 431 366 l 1,12,-1
 462 440 l 1,13,-1
 482 440 l 1,14,-1
 482 254 l 1,15,-1
 461 254 l 1,16,-1
 431 330 l 1,17,-1
 229 330 l 1,18,-1
 229 32 l 1,19,-1
 489 35 l 1,20,-1
 536 149 l 1,21,-1
 562 149 l 1,22,-1
 550 0 l 1,23,-1
 39 0 l 1,0,-1
147 735 m 1,24,-1
 284 921 l 1,25,-1
 334 921 l 1,26,-1
 470 735 l 1,27,-1
 439 716 l 1,28,-1
 309 842 l 1,29,-1
 178 716 l 1,30,-1
 147 735 l 1,24,-1
EndSplineSet
EndChar

StartChar: Edieresis
Encoding: 203 203 139
Width: 597
GlyphClass: 2
Flags: W
LayerCount: 2
Fore
SplineSet
39 0 m 1,0,-1
 39 24 l 1,1,-1
 126 33 l 1,2,-1
 126 635 l 1,3,-1
 39 646 l 1,4,-1
 39 668 l 1,5,-1
 518 668 l 1,6,-1
 519 526 l 1,7,-1
 493 526 l 1,8,-1
 459 632 l 1,9,-1
 229 635 l 1,10,-1
 229 366 l 1,11,-1
 431 366 l 1,12,-1
 462 440 l 1,13,-1
 482 440 l 1,14,-1
 482 254 l 1,15,-1
 461 254 l 1,16,-1
 431 330 l 1,17,-1
 229 330 l 1,18,-1
 229 32 l 1,19,-1
 489 35 l 1,20,-1
 536 149 l 1,21,-1
 562 149 l 1,22,-1
 550 0 l 1,23,-1
 39 0 l 1,0,-1
256.5 759 m 128,-1,25
 240 742 240 742 215.5 742 c 128,-1,26
 191 742 191 742 174.5 758.5 c 128,-1,27
 158 775 158 775 158 799.5 c 128,-1,28
 158 824 158 824 174.5 841 c 128,-1,29
 191 858 191 858 215.5 858 c 128,-1,30
 240 858 240 858 256.5 841 c 128,-1,31
 273 824 273 824 273 800 c 128,-1,24
 273 776 273 776 256.5 759 c 128,-1,25
442.5 759 m 128,-1,33
 426 742 426 742 401.5 742 c 128,-1,34
 377 742 377 742 360.5 758.5 c 128,-1,35
 344 775 344 775 344 799.5 c 128,-1,36
 344 824 344 824 360.5 841 c 128,-1,37
 377 858 377 858 401.5 858 c 128,-1,38
 426 858 426 858 442.5 841 c 128,-1,39
 459 824 459 824 459 800 c 128,-1,32
 459 776 459 776 442.5 759 c 128,-1,33
EndSplineSet
EndChar

StartChar: Igrave
Encoding: 204 204 140
Width: 355
GlyphClass: 2
Flags: W
LayerCount: 2
Fore
SplineSet
316 668 m 1,0,-1
 316 644 l 1,1,-1
 229 635 l 1,2,-1
 229 33 l 1,3,-1
 316 24 l 1,4,-1
 316 0 l 1,5,-1
 39 0 l 1,6,-1
 39 24 l 1,7,-1
 126 33 l 1,8,-1
 126 635 l 1,9,-1
 39 644 l 1,10,-1
 39 668 l 1,11,-1
 316 668 l 1,0,-1
86 815 m 1,12,13
 68 829 68 829 68 839 c 0,14,15
 68 866 68 866 109 904 c 1,16,17
 152 863 152 863 270 743 c 1,18,-1
 253 718 l 1,19,20
 181 755 181 755 86 815 c 1,12,13
EndSplineSet
EndChar

StartChar: Iacute
Encoding: 205 205 141
Width: 355
GlyphClass: 2
Flags: W
LayerCount: 2
Fore
SplineSet
316 668 m 1,0,-1
 316 644 l 1,1,-1
 229 635 l 1,2,-1
 229 33 l 1,3,-1
 316 24 l 1,4,-1
 316 0 l 1,5,-1
 39 0 l 1,6,-1
 39 24 l 1,7,-1
 126 33 l 1,8,-1
 126 635 l 1,9,-1
 39 644 l 1,10,-1
 39 668 l 1,11,-1
 316 668 l 1,0,-1
250 904 m 1,12,13
 291 866 291 866 291 841 c 0,14,15
 291 829 291 829 273 815 c 1,16,17
 178 755 178 755 106 718 c 1,18,-1
 89 743 l 1,19,20
 207 863 207 863 250 904 c 1,12,13
EndSplineSet
EndChar

StartChar: Icircumflex
Encoding: 206 206 142
Width: 355
GlyphClass: 2
Flags: W
LayerCount: 2
Fore
SplineSet
316 668 m 1,0,-1
 316 644 l 1,1,-1
 229 635 l 1,2,-1
 229 33 l 1,3,-1
 316 24 l 1,4,-1
 316 0 l 1,5,-1
 39 0 l 1,6,-1
 39 24 l 1,7,-1
 126 33 l 1,8,-1
 126 635 l 1,9,-1
 39 644 l 1,10,-1
 39 668 l 1,11,-1
 316 668 l 1,0,-1
17 735 m 1,12,-1
 154 921 l 1,13,-1
 204 921 l 1,14,-1
 340 735 l 1,15,-1
 309 716 l 1,16,-1
 179 842 l 1,17,-1
 48 716 l 1,18,-1
 17 735 l 1,12,-1
EndSplineSet
EndChar

StartChar: Idieresis
Encoding: 207 207 143
Width: 355
GlyphClass: 2
Flags: W
LayerCount: 2
Fore
SplineSet
316 668 m 1,0,-1
 316 644 l 1,1,-1
 229 635 l 1,2,-1
 229 33 l 1,3,-1
 316 24 l 1,4,-1
 316 0 l 1,5,-1
 39 0 l 1,6,-1
 39 24 l 1,7,-1
 126 33 l 1,8,-1
 126 635 l 1,9,-1
 39 644 l 1,10,-1
 39 668 l 1,11,-1
 316 668 l 1,0,-1
126.5 759 m 128,-1,13
 110 742 110 742 85.5 742 c 128,-1,14
 61 742 61 742 44.5 758.5 c 128,-1,15
 28 775 28 775 28 799.5 c 128,-1,16
 28 824 28 824 44.5 841 c 128,-1,17
 61 858 61 858 85.5 858 c 128,-1,18
 110 858 110 858 126.5 841 c 128,-1,19
 143 824 143 824 143 800 c 128,-1,12
 143 776 143 776 126.5 759 c 128,-1,13
312.5 759 m 128,-1,21
 296 742 296 742 271.5 742 c 128,-1,22
 247 742 247 742 230.5 758.5 c 128,-1,23
 214 775 214 775 214 799.5 c 128,-1,24
 214 824 214 824 230.5 841 c 128,-1,25
 247 858 247 858 271.5 858 c 128,-1,26
 296 858 296 858 312.5 841 c 128,-1,27
 329 824 329 824 329 800 c 128,-1,20
 329 776 329 776 312.5 759 c 128,-1,21
EndSplineSet
EndChar

StartChar: Eth
Encoding: 208 208 144
Width: 804
GlyphClass: 2
Flags: W
LayerCount: 2
Fore
SplineSet
779 335 m 0,0,1
 779 0 779 0 371 0 c 2,2,-1
 69 0 l 1,3,-1
 69 26 l 1,4,-1
 156 34 l 1,5,-1
 156 316 l 1,6,-1
 66 316 l 1,7,-1
 66 360 l 1,8,-1
 156 360 l 1,9,-1
 156 633 l 1,10,-1
 69 644 l 1,11,-1
 69 670 l 1,12,13
 106 668 106 668 175 668 c 2,14,-1
 260 668 l 1,15,-1
 386 672 l 1,16,17
 475 672 475 672 542 657 c 128,-1,18
 609 642 609 642 665 606 c 0,19,20
 779 533 779 533 779 335 c 0,0,1
414 360 m 1,21,-1
 414 316 l 1,22,-1
 261 316 l 1,23,-1
 261 35 l 1,24,-1
 371 32 l 1,25,26
 474 36 474 36 523 58 c 0,27,28
 656 119 656 119 657 334 c 0,29,30
 657 418 657 418 638 478 c 128,-1,31
 619 538 619 538 597.5 567 c 128,-1,32
 576 596 576 596 532 613 c 128,-1,33
 488 630 488 630 468 632 c 0,34,35
 418 637 418 637 366 637 c 128,-1,36
 314 637 314 637 261 632 c 1,37,-1
 261 360 l 1,38,-1
 414 360 l 1,21,-1
EndSplineSet
EndChar

StartChar: Ntilde
Encoding: 209 209 145
Width: 798
GlyphClass: 2
Flags: W
LayerCount: 2
Fore
SplineSet
549 668 m 1,0,-1
 751 668 l 1,1,-1
 751 644 l 1,2,-1
 681 621 l 1,3,-1
 681 0 l 1,4,-1
 626 0 l 1,5,-1
 168 549 l 1,6,-1
 168 49 l 1,7,-1
 251 24 l 1,8,-1
 251 0 l 1,9,-1
 45 0 l 1,10,-1
 45 24 l 1,11,-1
 125 49 l 1,12,-1
 125 635 l 1,13,-1
 38 645 l 1,14,-1
 38 668 l 1,15,-1
 202 668 l 1,16,-1
 626 155 l 1,17,-1
 626 621 l 1,18,-1
 549 644 l 1,19,-1
 549 668 l 1,0,-1
548 770 m 128,-1,21
 518 740 518 740 478.5 740 c 128,-1,22
 439 740 439 740 389 769 c 1,23,24
 340 801 340 801 316 801 c 128,-1,25
 292 801 292 801 274.5 786.5 c 128,-1,26
 257 772 257 772 252 755 c 1,27,-1
 224 755 l 1,28,29
 230 800 230 800 260 829.5 c 128,-1,30
 290 859 290 859 332 859 c 128,-1,31
 374 859 374 859 423 829 c 1,32,33
 470 798 470 798 493 798 c 128,-1,34
 516 798 516 798 533 812.5 c 128,-1,35
 550 827 550 827 556 845 c 1,36,-1
 584 845 l 1,37,20
 578 800 578 800 548 770 c 128,-1,21
EndSplineSet
EndChar

StartChar: Ograve
Encoding: 210 210 146
Width: 771
GlyphClass: 2
Flags: W
LayerCount: 2
Fore
SplineSet
630 87.5 m 128,-1,1
 539 -11 539 -11 386 -11 c 128,-1,2
 233 -11 233 -11 141.5 87.5 c 128,-1,3
 50 186 50 186 50 336 c 128,-1,4
 50 486 50 486 141.5 584.5 c 128,-1,5
 233 683 233 683 386 683 c 128,-1,6
 539 683 539 683 630 584.5 c 128,-1,7
 721 486 721 486 721 336 c 128,-1,0
 721 186 721 186 630 87.5 c 128,-1,1
387 20 m 0,8,9
 599 20 599 20 599 336 c 0,10,11
 599 488 599 488 550.5 570 c 128,-1,12
 502 652 502 652 386 652 c 128,-1,13
 270 652 270 652 221 570.5 c 128,-1,14
 172 489 172 489 172 336 c 0,15,16
 172 20 172 20 387 20 c 0,8,9
308 815 m 1,17,18
 290 829 290 829 290 839 c 0,19,20
 290 866 290 866 331 904 c 1,21,22
 374 863 374 863 492 743 c 1,23,-1
 475 718 l 1,24,25
 403 755 403 755 308 815 c 1,17,18
EndSplineSet
EndChar

StartChar: Oacute
Encoding: 211 211 147
Width: 771
GlyphClass: 2
Flags: W
LayerCount: 2
Fore
SplineSet
630 87.5 m 128,-1,1
 539 -11 539 -11 386 -11 c 128,-1,2
 233 -11 233 -11 141.5 87.5 c 128,-1,3
 50 186 50 186 50 336 c 128,-1,4
 50 486 50 486 141.5 584.5 c 128,-1,5
 233 683 233 683 386 683 c 128,-1,6
 539 683 539 683 630 584.5 c 128,-1,7
 721 486 721 486 721 336 c 128,-1,0
 721 186 721 186 630 87.5 c 128,-1,1
387 20 m 0,8,9
 599 20 599 20 599 336 c 0,10,11
 599 488 599 488 550.5 570 c 128,-1,12
 502 652 502 652 386 652 c 128,-1,13
 270 652 270 652 221 570.5 c 128,-1,14
 172 489 172 489 172 336 c 0,15,16
 172 20 172 20 387 20 c 0,8,9
459 904 m 1,17,18
 500 866 500 866 500 841 c 0,19,20
 500 829 500 829 482 815 c 1,21,22
 387 755 387 755 315 718 c 1,23,-1
 298 743 l 1,24,25
 416 863 416 863 459 904 c 1,17,18
EndSplineSet
EndChar

StartChar: Ocircumflex
Encoding: 212 212 148
Width: 771
GlyphClass: 2
Flags: W
LayerCount: 2
Fore
SplineSet
630 87.5 m 128,-1,1
 539 -11 539 -11 386 -11 c 128,-1,2
 233 -11 233 -11 141.5 87.5 c 128,-1,3
 50 186 50 186 50 336 c 128,-1,4
 50 486 50 486 141.5 584.5 c 128,-1,5
 233 683 233 683 386 683 c 128,-1,6
 539 683 539 683 630 584.5 c 128,-1,7
 721 486 721 486 721 336 c 128,-1,0
 721 186 721 186 630 87.5 c 128,-1,1
387 20 m 0,8,9
 599 20 599 20 599 336 c 0,10,11
 599 488 599 488 550.5 570 c 128,-1,12
 502 652 502 652 386 652 c 128,-1,13
 270 652 270 652 221 570.5 c 128,-1,14
 172 489 172 489 172 336 c 0,15,16
 172 20 172 20 387 20 c 0,8,9
227 735 m 1,17,-1
 364 921 l 1,18,-1
 414 921 l 1,19,-1
 550 735 l 1,20,-1
 519 716 l 1,21,-1
 389 842 l 1,22,-1
 258 716 l 1,23,-1
 227 735 l 1,17,-1
EndSplineSet
EndChar

StartChar: Otilde
Encoding: 213 213 149
Width: 771
GlyphClass: 2
Flags: W
LayerCount: 2
Fore
SplineSet
630 87.5 m 128,-1,1
 539 -11 539 -11 386 -11 c 128,-1,2
 233 -11 233 -11 141.5 87.5 c 128,-1,3
 50 186 50 186 50 336 c 128,-1,4
 50 486 50 486 141.5 584.5 c 128,-1,5
 233 683 233 683 386 683 c 128,-1,6
 539 683 539 683 630 584.5 c 128,-1,7
 721 486 721 486 721 336 c 128,-1,0
 721 186 721 186 630 87.5 c 128,-1,1
387 20 m 0,8,9
 599 20 599 20 599 336 c 0,10,11
 599 488 599 488 550.5 570 c 128,-1,12
 502 652 502 652 386 652 c 128,-1,13
 270 652 270 652 221 570.5 c 128,-1,14
 172 489 172 489 172 336 c 0,15,16
 172 20 172 20 387 20 c 0,8,9
535 770 m 128,-1,18
 505 740 505 740 466 740 c 128,-1,19
 427 740 427 740 377 769 c 1,20,21
 328 801 328 801 304 801 c 128,-1,22
 280 801 280 801 262.5 786.5 c 128,-1,23
 245 772 245 772 240 755 c 1,24,-1
 212 755 l 1,25,26
 218 800 218 800 248 829.5 c 128,-1,27
 278 859 278 859 320 859 c 128,-1,28
 362 859 362 859 411 829 c 1,29,30
 458 798 458 798 481 798 c 128,-1,31
 504 798 504 798 521 812.5 c 128,-1,32
 538 827 538 827 543 845 c 1,33,-1
 572 845 l 1,34,17
 565 800 565 800 535 770 c 128,-1,18
EndSplineSet
EndChar

StartChar: Odieresis
Encoding: 214 214 150
Width: 771
GlyphClass: 2
Flags: W
LayerCount: 2
Fore
SplineSet
630 87.5 m 128,-1,1
 539 -11 539 -11 386 -11 c 128,-1,2
 233 -11 233 -11 141.5 87.5 c 128,-1,3
 50 186 50 186 50 336 c 128,-1,4
 50 486 50 486 141.5 584.5 c 128,-1,5
 233 683 233 683 386 683 c 128,-1,6
 539 683 539 683 630 584.5 c 128,-1,7
 721 486 721 486 721 336 c 128,-1,0
 721 186 721 186 630 87.5 c 128,-1,1
387 20 m 0,8,9
 599 20 599 20 599 336 c 0,10,11
 599 488 599 488 550.5 570 c 128,-1,12
 502 652 502 652 386 652 c 128,-1,13
 270 652 270 652 221 570.5 c 128,-1,14
 172 489 172 489 172 336 c 0,15,16
 172 20 172 20 387 20 c 0,8,9
329.5 759 m 128,-1,18
 313 742 313 742 288.5 742 c 128,-1,19
 264 742 264 742 247.5 758.5 c 128,-1,20
 231 775 231 775 231 799.5 c 128,-1,21
 231 824 231 824 247.5 841 c 128,-1,22
 264 858 264 858 288.5 858 c 128,-1,23
 313 858 313 858 329.5 841 c 128,-1,24
 346 824 346 824 346 800 c 128,-1,17
 346 776 346 776 329.5 759 c 128,-1,18
515.5 759 m 128,-1,26
 499 742 499 742 474.5 742 c 128,-1,27
 450 742 450 742 433.5 758.5 c 128,-1,28
 417 775 417 775 417 799.5 c 128,-1,29
 417 824 417 824 433.5 841 c 128,-1,30
 450 858 450 858 474.5 858 c 128,-1,31
 499 858 499 858 515.5 841 c 128,-1,32
 532 824 532 824 532 800 c 128,-1,25
 532 776 532 776 515.5 759 c 128,-1,26
EndSplineSet
EndChar

StartChar: multiply
Encoding: 215 215 151
Width: 559
GlyphClass: 2
Flags: W
LayerCount: 2
Fore
SplineSet
454 468 m 1,0,-1
 498 423 l 1,1,-1
 327 249 l 1,2,-1
 506 69 l 1,3,-1
 458 21 l 1,4,-1
 279 200 l 1,5,-1
 99 23 l 1,6,-1
 54 68 l 1,7,-1
 234 245 l 1,8,-1
 58 421 l 1,9,-1
 106 469 l 1,10,-1
 282 293 l 1,11,-1
 454 468 l 1,0,-1
EndSplineSet
EndChar

StartChar: Oslash
Encoding: 216 216 152
Width: 771
GlyphClass: 2
Flags: W
LayerCount: 2
Fore
SplineSet
735 647 m 1,0,-1
 109 0 l 1,1,-1
 41 0 l 1,2,-1
 699 682 l 1,3,-1
 735 647 l 1,0,-1
630 87.5 m 128,-1,5
 539 -11 539 -11 386 -11 c 128,-1,6
 233 -11 233 -11 141.5 87.5 c 128,-1,7
 50 186 50 186 50 336 c 128,-1,8
 50 486 50 486 141.5 584.5 c 128,-1,9
 233 683 233 683 386 683 c 128,-1,10
 539 683 539 683 630 584.5 c 128,-1,11
 721 486 721 486 721 336 c 128,-1,4
 721 186 721 186 630 87.5 c 128,-1,5
387 20 m 0,12,13
 599 20 599 20 599 336 c 0,14,15
 599 488 599 488 550.5 570 c 128,-1,16
 502 652 502 652 386 652 c 128,-1,17
 270 652 270 652 221 570.5 c 128,-1,18
 172 489 172 489 172 336 c 0,19,20
 172 20 172 20 387 20 c 0,12,13
EndSplineSet
EndChar

StartChar: Ugrave
Encoding: 217 217 153
Width: 726
GlyphClass: 2
Flags: W
LayerCount: 2
Fore
SplineSet
208 240 m 2,0,1
 208 128 208 128 251.5 75.5 c 128,-1,2
 295 23 295 23 389 23 c 128,-1,3
 483 23 483 23 528.5 73 c 128,-1,4
 574 123 574 123 574 243 c 2,5,-1
 574 629 l 1,6,-1
 500 639 l 1,7,-1
 500 668 l 1,8,-1
 698 668 l 1,9,-1
 698 637 l 1,10,-1
 617 629 l 1,11,-1
 617 234 l 2,12,13
 617 159 617 159 596.5 113.5 c 128,-1,14
 576 68 576 68 551 44 c 128,-1,15
 526 20 526 20 482 4 c 128,-1,16
 438 -12 438 -12 379 -12 c 0,17,18
 241 -12 241 -12 173.5 43.5 c 128,-1,19
 106 99 106 99 106 220 c 2,20,-1
 106 635 l 1,21,-1
 27 642 l 1,22,-1
 27 668 l 1,23,-1
 298 668 l 1,24,-1
 298 642 l 1,25,-1
 208 635 l 1,26,-1
 208 240 l 2,0,1
272 815 m 1,27,28
 254 829 254 829 254 839 c 0,29,30
 254 866 254 866 295 904 c 1,31,32
 338 863 338 863 456 743 c 1,33,-1
 439 718 l 1,34,35
 367 755 367 755 272 815 c 1,27,28
EndSplineSet
EndChar

StartChar: Uacute
Encoding: 218 218 154
Width: 726
GlyphClass: 2
Flags: W
LayerCount: 2
Fore
SplineSet
208 240 m 2,0,1
 208 128 208 128 251.5 75.5 c 128,-1,2
 295 23 295 23 389 23 c 128,-1,3
 483 23 483 23 528.5 73 c 128,-1,4
 574 123 574 123 574 243 c 2,5,-1
 574 629 l 1,6,-1
 500 639 l 1,7,-1
 500 668 l 1,8,-1
 698 668 l 1,9,-1
 698 637 l 1,10,-1
 617 629 l 1,11,-1
 617 234 l 2,12,13
 617 159 617 159 596.5 113.5 c 128,-1,14
 576 68 576 68 551 44 c 128,-1,15
 526 20 526 20 482 4 c 128,-1,16
 438 -12 438 -12 379 -12 c 0,17,18
 241 -12 241 -12 173.5 43.5 c 128,-1,19
 106 99 106 99 106 220 c 2,20,-1
 106 635 l 1,21,-1
 27 642 l 1,22,-1
 27 668 l 1,23,-1
 298 668 l 1,24,-1
 298 642 l 1,25,-1
 208 635 l 1,26,-1
 208 240 l 2,0,1
458 904 m 1,27,28
 499 866 499 866 499 841 c 0,29,30
 499 829 499 829 481 815 c 1,31,32
 386 755 386 755 314 718 c 1,33,-1
 297 743 l 1,34,35
 415 863 415 863 458 904 c 1,27,28
EndSplineSet
EndChar

StartChar: Ucircumflex
Encoding: 219 219 155
Width: 726
GlyphClass: 2
Flags: W
LayerCount: 2
Fore
SplineSet
208 240 m 2,0,1
 208 128 208 128 251.5 75.5 c 128,-1,2
 295 23 295 23 389 23 c 128,-1,3
 483 23 483 23 528.5 73 c 128,-1,4
 574 123 574 123 574 243 c 2,5,-1
 574 629 l 1,6,-1
 500 639 l 1,7,-1
 500 668 l 1,8,-1
 698 668 l 1,9,-1
 698 637 l 1,10,-1
 617 629 l 1,11,-1
 617 234 l 2,12,13
 617 159 617 159 596.5 113.5 c 128,-1,14
 576 68 576 68 551 44 c 128,-1,15
 526 20 526 20 482 4 c 128,-1,16
 438 -12 438 -12 379 -12 c 0,17,18
 241 -12 241 -12 173.5 43.5 c 128,-1,19
 106 99 106 99 106 220 c 2,20,-1
 106 635 l 1,21,-1
 27 642 l 1,22,-1
 27 668 l 1,23,-1
 298 668 l 1,24,-1
 298 642 l 1,25,-1
 208 635 l 1,26,-1
 208 240 l 2,0,1
214 735 m 1,27,-1
 351 921 l 1,28,-1
 401 921 l 1,29,-1
 537 735 l 1,30,-1
 506 716 l 1,31,-1
 376 842 l 1,32,-1
 245 716 l 1,33,-1
 214 735 l 1,27,-1
EndSplineSet
EndChar

StartChar: Udieresis
Encoding: 220 220 156
Width: 726
GlyphClass: 2
Flags: W
LayerCount: 2
Fore
SplineSet
208 240 m 2,0,1
 208 128 208 128 251.5 75.5 c 128,-1,2
 295 23 295 23 389 23 c 128,-1,3
 483 23 483 23 528.5 73 c 128,-1,4
 574 123 574 123 574 243 c 2,5,-1
 574 629 l 1,6,-1
 500 639 l 1,7,-1
 500 668 l 1,8,-1
 698 668 l 1,9,-1
 698 637 l 1,10,-1
 617 629 l 1,11,-1
 617 234 l 2,12,13
 617 159 617 159 596.5 113.5 c 128,-1,14
 576 68 576 68 551 44 c 128,-1,15
 526 20 526 20 482 4 c 128,-1,16
 438 -12 438 -12 379 -12 c 0,17,18
 241 -12 241 -12 173.5 43.5 c 128,-1,19
 106 99 106 99 106 220 c 2,20,-1
 106 635 l 1,21,-1
 27 642 l 1,22,-1
 27 668 l 1,23,-1
 298 668 l 1,24,-1
 298 642 l 1,25,-1
 208 635 l 1,26,-1
 208 240 l 2,0,1
333.5 759 m 128,-1,28
 317 742 317 742 292.5 742 c 128,-1,29
 268 742 268 742 251.5 758.5 c 128,-1,30
 235 775 235 775 235 799.5 c 128,-1,31
 235 824 235 824 251.5 841 c 128,-1,32
 268 858 268 858 292.5 858 c 128,-1,33
 317 858 317 858 333.5 841 c 128,-1,34
 350 824 350 824 350 800 c 128,-1,27
 350 776 350 776 333.5 759 c 128,-1,28
519.5 759 m 128,-1,36
 503 742 503 742 478.5 742 c 128,-1,37
 454 742 454 742 437.5 758.5 c 128,-1,38
 421 775 421 775 421 799.5 c 128,-1,39
 421 824 421 824 437.5 841 c 128,-1,40
 454 858 454 858 478.5 858 c 128,-1,41
 503 858 503 858 519.5 841 c 128,-1,42
 536 824 536 824 536 800 c 128,-1,35
 536 776 536 776 519.5 759 c 128,-1,36
EndSplineSet
EndChar

StartChar: Yacute
Encoding: 221 221 157
Width: 653
GlyphClass: 2
Flags: W
LayerCount: 2
Fore
SplineSet
658 668 m 1,0,-1
 658 644 l 1,1,-1
 582 620 l 1,2,-1
 383 295 l 1,3,-1
 383 33 l 1,4,-1
 470 24 l 1,5,-1
 470 0 l 1,6,-1
 193 0 l 1,7,-1
 193 24 l 1,8,-1
 280 33 l 1,9,-1
 280 287 l 1,10,-1
 44 635 l 1,11,-1
 -32 646 l 1,12,-1
 -32 668 l 1,13,-1
 238 668 l 1,14,-1
 238 647 l 1,15,-1
 161 636 l 1,16,-1
 359 339 l 1,17,-1
 530 621 l 1,18,-1
 455 644 l 1,19,-1
 455 668 l 1,20,-1
 658 668 l 1,0,-1
401 939 m 1,21,22
 454 905 454 905 454 881 c 0,23,24
 454 870 454 870 440 855 c 1,25,26
 361 782 361 782 294 730 c 1,27,28
 276 746 276 746 272 751 c 1,29,30
 389 922 389 922 401 939 c 1,21,22
EndSplineSet
EndChar

StartChar: Thorn
Encoding: 222 222 158
Width: 561
GlyphClass: 2
Flags: W
LayerCount: 2
Fore
SplineSet
316 0 m 1,0,-1
 39 0 l 1,1,-1
 39 24 l 1,2,-1
 126 33 l 1,3,-1
 126 635 l 1,4,-1
 39 644 l 1,5,-1
 39 668 l 1,6,-1
 316 668 l 1,7,-1
 316 644 l 1,8,-1
 229 635 l 1,9,-1
 229 525 l 1,10,-1
 304 525 l 2,11,12
 407 525 407 525 468 481 c 128,-1,13
 529 437 529 437 529 350.5 c 128,-1,14
 529 264 529 264 464 212.5 c 128,-1,15
 399 161 399 161 284 161 c 1,16,-1
 229 164 l 1,17,-1
 229 33 l 1,18,-1
 316 24 l 1,19,-1
 316 0 l 1,0,-1
229 487 m 1,20,-1
 229 201 l 1,21,22
 252 199 252 199 273 199 c 0,23,24
 342 199 342 199 382 237.5 c 128,-1,25
 422 276 422 276 422 346 c 128,-1,26
 422 416 422 416 381 451.5 c 128,-1,27
 340 487 340 487 276 487 c 2,28,-1
 229 487 l 1,20,-1
EndSplineSet
EndChar

StartChar: germandbls
Encoding: 223 223 159
Width: 620
GlyphClass: 2
Flags: W
LayerCount: 2
Fore
SplineSet
479 526 m 0,0,1
 450 508 450 508 421 490 c 0,2,3
 352 447 352 447 352 386 c 1,4,5
 355 345 355 345 379 323.5 c 128,-1,6
 403 302 403 302 446 286.5 c 128,-1,7
 489 271 489 271 506.5 263 c 128,-1,8
 524 255 524 255 548 238 c 0,9,10
 594 205 594 205 594 138 c 128,-1,11
 594 71 594 71 546.5 30.5 c 128,-1,12
 499 -10 499 -10 429.5 -10 c 128,-1,13
 360 -10 360 -10 308 13 c 128,-1,14
 256 36 256 36 256 79 c 128,-1,15
 256 122 256 122 312 135 c 1,16,17
 329 15 329 15 430 15 c 0,18,19
 466 15 466 15 493.5 37.5 c 128,-1,20
 521 60 521 60 521 111 c 0,21,22
 521 146 521 146 492 169.5 c 128,-1,23
 463 193 463 193 421 211 c 128,-1,24
 379 229 379 229 362 238 c 128,-1,25
 345 247 345 247 322 264 c 0,26,27
 277 299 277 299 277 365 c 0,28,29
 277 422 277 422 336 466 c 0,30,31
 360 485 360 485 385 506 c 0,32,33
 444 554 444 554 444 632 c 0,34,35
 444 689 444 689 413 720 c 128,-1,36
 382 751 382 751 335 751 c 0,37,38
 285 751 285 751 251 714 c 0,39,40
 201 658 201 658 201 470 c 2,41,-1
 201 0 l 1,42,-1
 34 0 l 1,43,-1
 34 24 l 1,44,-1
 103 29 l 1,45,-1
 103 456 l 1,46,-1
 30 456 l 1,47,-1
 30 488 l 1,48,-1
 103 488 l 1,49,-1
 103 499 l 2,50,51
 103 780 103 780 341 780 c 0,52,53
 443 780 443 780 495.5 739 c 128,-1,54
 548 698 548 698 548 633.5 c 128,-1,55
 548 569 548 569 479 526 c 0,0,1
EndSplineSet
EndChar

StartChar: agrave
Encoding: 224 224 160
Width: 513
GlyphClass: 2
Flags: W
LayerCount: 2
Fore
SplineSet
138 108 m 0,0,1
 138 43 138 43 191 31 c 0,2,3
 203 28 203 28 214 28 c 0,4,5
 252 28 252 28 293 60.5 c 128,-1,6
 334 93 334 93 336 148 c 1,7,-1
 336 234 l 1,8,9
 138 232 138 232 138 108 c 0,0,1
178 -12 m 0,10,11
 121 -12 121 -12 80.5 19.5 c 128,-1,12
 40 51 40 51 40 108 c 0,13,14
 41 185 41 185 117.5 223 c 128,-1,15
 194 261 194 261 336 261 c 1,16,-1
 336 347 l 2,17,18
 336 474 336 474 244 474 c 0,19,20
 197 474 197 474 168 435 c 0,21,22
 148 408 148 408 148 368 c 0,23,24
 148 351 148 351 152 332 c 1,25,26
 138 322 138 322 123.5 322 c 128,-1,27
 109 322 109 322 95 328 c 0,28,29
 63 340 63 340 63 374 c 0,30,31
 63 420 63 420 96 450 c 0,32,33
 150 499 150 499 245 499 c 128,-1,34
 340 499 340 499 383 458.5 c 128,-1,35
 426 418 426 418 426 331 c 2,36,-1
 426 28 l 1,37,-1
 510 24 l 1,38,-1
 511 1 l 1,39,-1
 344 -11 l 1,40,-1
 335 78 l 1,41,42
 289 -12 289 -12 178 -12 c 0,10,11
146 675 m 1,43,44
 132 690 132 690 132 700 c 0,45,46
 132 725 132 725 185 759 c 1,47,48
 197 742 197 742 314 571 c 1,49,50
 310 566 310 566 292 550 c 1,51,52
 225 602 225 602 146 675 c 1,43,44
EndSplineSet
EndChar

StartChar: aacute
Encoding: 225 225 161
Width: 513
GlyphClass: 2
Flags: W
LayerCount: 2
Fore
SplineSet
138 108 m 0,0,1
 138 43 138 43 191 31 c 0,2,3
 203 28 203 28 214 28 c 0,4,5
 252 28 252 28 293 60.5 c 128,-1,6
 334 93 334 93 336 148 c 1,7,-1
 336 234 l 1,8,9
 138 232 138 232 138 108 c 0,0,1
178 -12 m 0,10,11
 121 -12 121 -12 80.5 19.5 c 128,-1,12
 40 51 40 51 40 108 c 0,13,14
 41 185 41 185 117.5 223 c 128,-1,15
 194 261 194 261 336 261 c 1,16,-1
 336 347 l 2,17,18
 336 474 336 474 244 474 c 0,19,20
 197 474 197 474 168 435 c 0,21,22
 148 408 148 408 148 368 c 0,23,24
 148 351 148 351 152 332 c 1,25,26
 138 322 138 322 123.5 322 c 128,-1,27
 109 322 109 322 95 328 c 0,28,29
 63 340 63 340 63 374 c 0,30,31
 63 420 63 420 96 450 c 0,32,33
 150 499 150 499 245 499 c 128,-1,34
 340 499 340 499 383 458.5 c 128,-1,35
 426 418 426 418 426 331 c 2,36,-1
 426 28 l 1,37,-1
 510 24 l 1,38,-1
 511 1 l 1,39,-1
 344 -11 l 1,40,-1
 335 78 l 1,41,42
 289 -12 289 -12 178 -12 c 0,10,11
294 759 m 1,43,44
 347 725 347 725 347 701 c 0,45,46
 347 690 347 690 333 675 c 1,47,48
 254 602 254 602 187 550 c 1,49,50
 169 566 169 566 165 571 c 1,51,52
 282 742 282 742 294 759 c 1,43,44
EndSplineSet
EndChar

StartChar: acircumflex
Encoding: 226 226 162
Width: 513
GlyphClass: 2
Flags: W
LayerCount: 2
Fore
SplineSet
138 108 m 0,0,1
 138 43 138 43 191 31 c 0,2,3
 203 28 203 28 214 28 c 0,4,5
 252 28 252 28 293 60.5 c 128,-1,6
 334 93 334 93 336 148 c 1,7,-1
 336 234 l 1,8,9
 138 232 138 232 138 108 c 0,0,1
178 -12 m 0,10,11
 121 -12 121 -12 80.5 19.5 c 128,-1,12
 40 51 40 51 40 108 c 0,13,14
 41 185 41 185 117.5 223 c 128,-1,15
 194 261 194 261 336 261 c 1,16,-1
 336 347 l 2,17,18
 336 474 336 474 244 474 c 0,19,20
 197 474 197 474 168 435 c 0,21,22
 148 408 148 408 148 368 c 0,23,24
 148 351 148 351 152 332 c 1,25,26
 138 322 138 322 123.5 322 c 128,-1,27
 109 322 109 322 95 328 c 0,28,29
 63 340 63 340 63 374 c 0,30,31
 63 420 63 420 96 450 c 0,32,33
 150 499 150 499 245 499 c 128,-1,34
 340 499 340 499 383 458.5 c 128,-1,35
 426 418 426 418 426 331 c 2,36,-1
 426 28 l 1,37,-1
 510 24 l 1,38,-1
 511 1 l 1,39,-1
 344 -11 l 1,40,-1
 335 78 l 1,41,42
 289 -12 289 -12 178 -12 c 0,10,11
86 555 m 1,43,-1
 223 741 l 1,44,-1
 273 741 l 1,45,-1
 409 555 l 1,46,-1
 378 536 l 1,47,-1
 248 662 l 1,48,-1
 117 536 l 1,49,-1
 86 555 l 1,43,-1
EndSplineSet
EndChar

StartChar: atilde
Encoding: 227 227 163
Width: 513
GlyphClass: 2
Flags: W
LayerCount: 2
Fore
SplineSet
138 108 m 0,0,1
 138 43 138 43 191 31 c 0,2,3
 203 28 203 28 214 28 c 0,4,5
 252 28 252 28 293 60.5 c 128,-1,6
 334 93 334 93 336 148 c 1,7,-1
 336 234 l 1,8,9
 138 232 138 232 138 108 c 0,0,1
178 -12 m 0,10,11
 121 -12 121 -12 80.5 19.5 c 128,-1,12
 40 51 40 51 40 108 c 0,13,14
 41 185 41 185 117.5 223 c 128,-1,15
 194 261 194 261 336 261 c 1,16,-1
 336 347 l 2,17,18
 336 474 336 474 244 474 c 0,19,20
 197 474 197 474 168 435 c 0,21,22
 148 408 148 408 148 368 c 0,23,24
 148 351 148 351 152 332 c 1,25,26
 138 322 138 322 123.5 322 c 128,-1,27
 109 322 109 322 95 328 c 0,28,29
 63 340 63 340 63 374 c 0,30,31
 63 420 63 420 96 450 c 0,32,33
 150 499 150 499 245 499 c 128,-1,34
 340 499 340 499 383 458.5 c 128,-1,35
 426 418 426 418 426 331 c 2,36,-1
 426 28 l 1,37,-1
 510 24 l 1,38,-1
 511 1 l 1,39,-1
 344 -11 l 1,40,-1
 335 78 l 1,41,42
 289 -12 289 -12 178 -12 c 0,10,11
384.5 590 m 128,-1,44
 356 560 356 560 318.5 560 c 128,-1,45
 281 560 281 560 233 589 c 1,46,47
 188 621 188 621 164.5 621 c 128,-1,48
 141 621 141 621 124.5 607 c 128,-1,49
 108 593 108 593 103 575 c 1,50,-1
 76 575 l 1,51,52
 82 620 82 620 110.5 649.5 c 128,-1,53
 139 679 139 679 179 679 c 128,-1,54
 219 679 219 679 266 649 c 1,55,56
 311 618 311 618 333 618 c 128,-1,57
 355 618 355 618 371 632.5 c 128,-1,58
 387 647 387 647 392 665 c 1,59,-1
 419 665 l 1,60,43
 413 620 413 620 384.5 590 c 128,-1,44
EndSplineSet
EndChar

StartChar: adieresis
Encoding: 228 228 164
Width: 513
GlyphClass: 2
Flags: W
LayerCount: 2
Fore
SplineSet
138 108 m 0,0,1
 138 43 138 43 191 31 c 0,2,3
 203 28 203 28 214 28 c 0,4,5
 252 28 252 28 293 60.5 c 128,-1,6
 334 93 334 93 336 148 c 1,7,-1
 336 234 l 1,8,9
 138 232 138 232 138 108 c 0,0,1
178 -12 m 0,10,11
 121 -12 121 -12 80.5 19.5 c 128,-1,12
 40 51 40 51 40 108 c 0,13,14
 41 185 41 185 117.5 223 c 128,-1,15
 194 261 194 261 336 261 c 1,16,-1
 336 347 l 2,17,18
 336 474 336 474 244 474 c 0,19,20
 197 474 197 474 168 435 c 0,21,22
 148 408 148 408 148 368 c 0,23,24
 148 351 148 351 152 332 c 1,25,26
 138 322 138 322 123.5 322 c 128,-1,27
 109 322 109 322 95 328 c 0,28,29
 63 340 63 340 63 374 c 0,30,31
 63 420 63 420 96 450 c 0,32,33
 150 499 150 499 245 499 c 128,-1,34
 340 499 340 499 383 458.5 c 128,-1,35
 426 418 426 418 426 331 c 2,36,-1
 426 28 l 1,37,-1
 510 24 l 1,38,-1
 511 1 l 1,39,-1
 344 -11 l 1,40,-1
 335 78 l 1,41,42
 289 -12 289 -12 178 -12 c 0,10,11
192.5 579 m 128,-1,44
 176 562 176 562 151.5 562 c 128,-1,45
 127 562 127 562 110.5 578.5 c 128,-1,46
 94 595 94 595 94 619.5 c 128,-1,47
 94 644 94 644 110.5 661 c 128,-1,48
 127 678 127 678 151.5 678 c 128,-1,49
 176 678 176 678 192.5 661 c 128,-1,50
 209 644 209 644 209 620 c 128,-1,43
 209 596 209 596 192.5 579 c 128,-1,44
378.5 579 m 128,-1,52
 362 562 362 562 337.5 562 c 128,-1,53
 313 562 313 562 296.5 578.5 c 128,-1,54
 280 595 280 595 280 619.5 c 128,-1,55
 280 644 280 644 296.5 661 c 128,-1,56
 313 678 313 678 337.5 678 c 128,-1,57
 362 678 362 678 378.5 661 c 128,-1,58
 395 644 395 644 395 620 c 128,-1,51
 395 596 395 596 378.5 579 c 128,-1,52
EndSplineSet
EndChar

StartChar: aring
Encoding: 229 229 165
Width: 513
GlyphClass: 2
Flags: W
LayerCount: 2
Fore
SplineSet
138 108 m 0,0,1
 138 43 138 43 191 31 c 0,2,3
 203 28 203 28 214 28 c 0,4,5
 252 28 252 28 293 60.5 c 128,-1,6
 334 93 334 93 336 148 c 1,7,-1
 336 234 l 1,8,9
 138 232 138 232 138 108 c 0,0,1
178 -12 m 0,10,11
 121 -12 121 -12 80.5 19.5 c 128,-1,12
 40 51 40 51 40 108 c 0,13,14
 41 185 41 185 117.5 223 c 128,-1,15
 194 261 194 261 336 261 c 1,16,-1
 336 347 l 2,17,18
 336 474 336 474 244 474 c 0,19,20
 197 474 197 474 168 435 c 0,21,22
 148 408 148 408 148 368 c 0,23,24
 148 351 148 351 152 332 c 1,25,26
 138 322 138 322 123.5 322 c 128,-1,27
 109 322 109 322 95 328 c 0,28,29
 63 340 63 340 63 374 c 0,30,31
 63 420 63 420 96 450 c 0,32,33
 150 499 150 499 245 499 c 128,-1,34
 340 499 340 499 383 458.5 c 128,-1,35
 426 418 426 418 426 331 c 2,36,-1
 426 28 l 1,37,-1
 510 24 l 1,38,-1
 511 1 l 1,39,-1
 344 -11 l 1,40,-1
 335 78 l 1,41,42
 289 -12 289 -12 178 -12 c 0,10,11
328 733 m 128,-1,44
 358 704 358 704 358 660 c 128,-1,45
 358 616 358 616 326.5 585.5 c 128,-1,46
 295 555 295 555 251 555 c 128,-1,47
 207 555 207 555 176.5 584 c 128,-1,48
 146 613 146 613 146 657 c 128,-1,49
 146 701 146 701 177.5 731.5 c 128,-1,50
 209 762 209 762 253.5 762 c 128,-1,43
 298 762 298 762 328 733 c 128,-1,44
292.5 613 m 128,-1,52
 309 630 309 630 309 656 c 128,-1,53
 309 682 309 682 292 700 c 128,-1,54
 275 718 275 718 251.5 718 c 128,-1,55
 228 718 228 718 211.5 701 c 128,-1,56
 195 684 195 684 195 657 c 128,-1,57
 195 630 195 630 211.5 613 c 128,-1,58
 228 596 228 596 252 596 c 128,-1,51
 276 596 276 596 292.5 613 c 128,-1,52
EndSplineSet
EndChar

StartChar: ae
Encoding: 230 230 166
Width: 782
GlyphClass: 2
Flags: W
LayerCount: 2
Fore
SplineSet
300 443 m 128,-1,1
 280 474 280 474 234 474 c 128,-1,2
 188 474 188 474 161 434 c 0,3,4
 142 407 142 407 142 379 c 128,-1,5
 142 351 142 351 146 332 c 1,6,7
 132 322 132 322 117.5 322 c 128,-1,8
 103 322 103 322 89 328 c 0,9,10
 57 340 57 340 57 374 c 0,11,12
 57 420 57 420 90 450 c 0,13,14
 144 499 144 499 233 499 c 0,15,16
 358 499 358 499 389 431 c 1,17,18
 439 499 439 499 550 499 c 0,19,20
 640 499 640 499 688.5 453.5 c 128,-1,21
 737 408 737 408 737 327 c 0,22,23
 737 303 737 303 733 279 c 1,24,-1
 420 279 l 1,25,-1
 420 244 l 2,26,27
 420 132 420 132 452 74.5 c 128,-1,28
 484 17 484 17 557 17 c 0,29,30
 650 17 650 17 706 107 c 1,31,32
 728 100 728 100 728 85.5 c 128,-1,33
 728 71 728 71 709.5 49.5 c 128,-1,34
 691 28 691 28 645.5 8.5 c 128,-1,35
 600 -11 600 -11 541 -11 c 0,36,37
 416 -11 416 -11 354 100 c 1,38,39
 303 -12 303 -12 181 -12 c 0,40,41
 124 -12 124 -12 83.5 19.5 c 128,-1,42
 43 51 43 51 43 108 c 0,43,44
 44 182 44 182 116 220.5 c 128,-1,45
 188 259 188 259 321 261 c 1,46,-1
 321 350 l 1,47,0
 320 412 320 412 300 443 c 128,-1,1
642 350 m 0,48,49
 642 394 642 394 625 426 c 0,50,51
 601 471 601 471 549 471 c 0,52,53
 441 471 441 471 423 315 c 1,54,-1
 640 315 l 1,55,56
 642 333 642 333 642 350 c 0,48,49
141 108 m 0,57,58
 141 43 141 43 194 31 c 0,59,60
 206 28 206 28 217 28 c 0,61,62
 254 28 254 28 293 58.5 c 128,-1,63
 332 89 332 89 338 137 c 1,64,65
 323 178 323 178 321 233 c 1,66,67
 141 226 141 226 141 108 c 0,57,58
EndSplineSet
EndChar

StartChar: ccedilla
Encoding: 231 231 167
Width: 508
GlyphClass: 2
Flags: W
LayerCount: 2
Fore
SplineSet
298 499 m 0,0,1
 354 499 354 499 406 475 c 0,2,3
 435 462 435 462 452.5 435 c 128,-1,4
 470 408 470 408 470 372 c 128,-1,5
 470 336 470 336 438 323 c 0,6,7
 425 318 425 318 410.5 318 c 128,-1,8
 396 318 396 318 381 328 c 1,9,10
 385 349 385 349 385 377.5 c 128,-1,11
 385 406 385 406 367 432 c 0,12,13
 341 471 341 471 293 471 c 0,14,15
 154 471 154 471 154 242 c 0,16,17
 154 130 154 130 186.5 73.5 c 128,-1,18
 219 17 219 17 292 17 c 0,19,20
 385 17 385 17 441 107 c 1,21,22
 463 100 463 100 463 85.5 c 128,-1,23
 463 71 463 71 444.5 49.5 c 128,-1,24
 426 28 426 28 380.5 8.5 c 128,-1,25
 335 -11 335 -11 276 -11 c 0,26,27
 173 -11 173 -11 109.5 59 c 128,-1,28
 46 129 46 129 46 244 c 128,-1,29
 46 359 46 359 114.5 429 c 128,-1,30
 183 499 183 499 298 499 c 0,0,1
255 -68 m 1,31,32
 277 -56 277 -56 312 -56 c 128,-1,33
 347 -56 347 -56 372.5 -76 c 128,-1,34
 398 -96 398 -96 398 -128 c 0,35,36
 398 -175 398 -175 361.5 -196 c 128,-1,37
 325 -217 325 -217 279.5 -217 c 128,-1,38
 234 -217 234 -217 172 -192 c 1,39,-1
 180 -175 l 1,40,41
 218 -189 218 -189 251 -189 c 0,42,43
 318 -189 318 -189 318 -131 c 0,44,45
 318 -84 318 -84 279 -84 c 0,46,47
 258 -84 258 -84 237 -91 c 1,48,-1
 216 -82 l 1,49,-1
 267 8 l 1,50,-1
 295 8 l 1,51,-1
 253 -65 l 1,52,-1
 255 -68 l 1,31,32
EndSplineSet
EndChar

StartChar: egrave
Encoding: 232 232 168
Width: 526
GlyphClass: 2
Flags: W
LayerCount: 2
Fore
SplineSet
112.5 429 m 128,-1,1
 179 499 179 499 280 499 c 128,-1,2
 381 499 381 499 431 453.5 c 128,-1,3
 481 408 481 408 481 327 c 0,4,5
 481 303 481 303 477 279 c 1,6,-1
 154 279 l 1,7,-1
 154 244 l 2,8,9
 154 132 154 132 186 74.5 c 128,-1,10
 218 17 218 17 291 17 c 0,11,12
 394 17 394 17 450 107 c 1,13,14
 472 100 472 100 472 86 c 0,15,16
 472 61 472 61 426 28 c 0,17,18
 404 12 404 12 364 0.5 c 128,-1,19
 324 -11 324 -11 275 -11 c 0,20,21
 172 -11 172 -11 109 59 c 128,-1,22
 46 129 46 129 46 244 c 128,-1,0
 46 359 46 359 112.5 429 c 128,-1,1
283 471 m 0,23,24
 175 471 175 471 157 315 c 1,25,-1
 384 315 l 1,26,27
 386 332 386 332 386 348 c 0,28,29
 386 394 386 394 367 427 c 0,30,31
 341 471 341 471 283 471 c 0,23,24
190 675 m 1,32,33
 176 690 176 690 176 700 c 0,34,35
 176 725 176 725 229 759 c 1,36,37
 241 742 241 742 358 571 c 1,38,39
 354 566 354 566 336 550 c 1,40,41
 269 602 269 602 190 675 c 1,32,33
EndSplineSet
EndChar

StartChar: eacute
Encoding: 233 233 169
Width: 526
GlyphClass: 2
Flags: W
LayerCount: 2
Fore
SplineSet
112.5 429 m 128,-1,1
 179 499 179 499 280 499 c 128,-1,2
 381 499 381 499 431 453.5 c 128,-1,3
 481 408 481 408 481 327 c 0,4,5
 481 303 481 303 477 279 c 1,6,-1
 154 279 l 1,7,-1
 154 244 l 2,8,9
 154 132 154 132 186 74.5 c 128,-1,10
 218 17 218 17 291 17 c 0,11,12
 394 17 394 17 450 107 c 1,13,14
 472 100 472 100 472 86 c 0,15,16
 472 61 472 61 426 28 c 0,17,18
 404 12 404 12 364 0.5 c 128,-1,19
 324 -11 324 -11 275 -11 c 0,20,21
 172 -11 172 -11 109 59 c 128,-1,22
 46 129 46 129 46 244 c 128,-1,0
 46 359 46 359 112.5 429 c 128,-1,1
283 471 m 0,23,24
 175 471 175 471 157 315 c 1,25,-1
 384 315 l 1,26,27
 386 332 386 332 386 348 c 0,28,29
 386 394 386 394 367 427 c 0,30,31
 341 471 341 471 283 471 c 0,23,24
309 759 m 1,33,34
 362 725 362 725 362 701 c 0,35,36
 362 690 362 690 348 675 c 1,37,38
 269 602 269 602 202 550 c 1,39,40
 184 566 184 566 180 571 c 1,41,32
 297 742 297 742 309 759 c 1,33,34
EndSplineSet
EndChar

StartChar: ecircumflex
Encoding: 234 234 170
Width: 526
GlyphClass: 2
Flags: W
LayerCount: 2
Fore
SplineSet
112.5 429 m 128,-1,1
 179 499 179 499 280 499 c 128,-1,2
 381 499 381 499 431 453.5 c 128,-1,3
 481 408 481 408 481 327 c 0,4,5
 481 303 481 303 477 279 c 1,6,-1
 154 279 l 1,7,-1
 154 244 l 2,8,9
 154 132 154 132 186 74.5 c 128,-1,10
 218 17 218 17 291 17 c 0,11,12
 394 17 394 17 450 107 c 1,13,14
 472 100 472 100 472 86 c 0,15,16
 472 61 472 61 426 28 c 0,17,18
 404 12 404 12 364 0.5 c 128,-1,19
 324 -11 324 -11 275 -11 c 0,20,21
 172 -11 172 -11 109 59 c 128,-1,22
 46 129 46 129 46 244 c 128,-1,0
 46 359 46 359 112.5 429 c 128,-1,1
283 471 m 0,23,24
 175 471 175 471 157 315 c 1,25,-1
 384 315 l 1,26,27
 386 332 386 332 386 348 c 0,28,29
 386 394 386 394 367 427 c 0,30,31
 341 471 341 471 283 471 c 0,23,24
123 555 m 1,32,-1
 260 741 l 1,33,-1
 310 741 l 1,34,-1
 446 555 l 1,35,-1
 415 536 l 1,36,-1
 285 662 l 1,37,-1
 154 536 l 1,38,-1
 123 555 l 1,32,-1
EndSplineSet
EndChar

StartChar: edieresis
Encoding: 235 235 171
Width: 526
GlyphClass: 2
Flags: W
LayerCount: 2
Fore
SplineSet
112.5 429 m 128,-1,1
 179 499 179 499 280 499 c 128,-1,2
 381 499 381 499 431 453.5 c 128,-1,3
 481 408 481 408 481 327 c 0,4,5
 481 303 481 303 477 279 c 1,6,-1
 154 279 l 1,7,-1
 154 244 l 2,8,9
 154 132 154 132 186 74.5 c 128,-1,10
 218 17 218 17 291 17 c 0,11,12
 394 17 394 17 450 107 c 1,13,14
 472 100 472 100 472 86 c 0,15,16
 472 61 472 61 426 28 c 0,17,18
 404 12 404 12 364 0.5 c 128,-1,19
 324 -11 324 -11 275 -11 c 0,20,21
 172 -11 172 -11 109 59 c 128,-1,22
 46 129 46 129 46 244 c 128,-1,0
 46 359 46 359 112.5 429 c 128,-1,1
283 471 m 0,23,24
 175 471 175 471 157 315 c 1,25,-1
 384 315 l 1,26,27
 386 332 386 332 386 348 c 0,28,29
 386 394 386 394 367 427 c 0,30,31
 341 471 341 471 283 471 c 0,23,24
227.5 579 m 128,-1,33
 211 562 211 562 186.5 562 c 128,-1,34
 162 562 162 562 145.5 578.5 c 128,-1,35
 129 595 129 595 129 619.5 c 128,-1,36
 129 644 129 644 145.5 661 c 128,-1,37
 162 678 162 678 186.5 678 c 128,-1,38
 211 678 211 678 227.5 661 c 128,-1,39
 244 644 244 644 244 620 c 128,-1,32
 244 596 244 596 227.5 579 c 128,-1,33
413.5 579 m 128,-1,41
 397 562 397 562 372.5 562 c 128,-1,42
 348 562 348 562 331.5 578.5 c 128,-1,43
 315 595 315 595 315 619.5 c 128,-1,44
 315 644 315 644 331.5 661 c 128,-1,45
 348 678 348 678 372.5 678 c 128,-1,46
 397 678 397 678 413.5 661 c 128,-1,47
 430 644 430 644 430 620 c 128,-1,40
 430 596 430 596 413.5 579 c 128,-1,41
EndSplineSet
EndChar

StartChar: igrave
Encoding: 236 236 172
Width: 294
GlyphClass: 2
Flags: W
LayerCount: 2
Fore
SplineSet
17 675 m 1,0,1
 3 690 3 690 3 700 c 0,2,3
 3 725 3 725 56 759 c 1,4,5
 68 742 68 742 185 571 c 1,6,7
 181 566 181 566 163 550 c 1,8,9
 96 602 96 602 17 675 c 1,0,1
40 0 m 1,10,-1
 40 24 l 1,11,-1
 106 29 l 1,12,-1
 106 454 l 1,13,-1
 18 457 l 1,14,-1
 18 480 l 1,15,-1
 204 493 l 1,16,-1
 204 29 l 1,17,-1
 270 24 l 1,18,-1
 270 0 l 1,19,-1
 40 0 l 1,10,-1
EndSplineSet
EndChar

StartChar: iacute
Encoding: 237 237 173
Width: 294
GlyphClass: 2
Flags: W
LayerCount: 2
Fore
SplineSet
243 759 m 1,0,1
 296 725 296 725 296 701 c 0,2,3
 296 690 296 690 282 675 c 1,4,5
 203 602 203 602 136 550 c 1,6,7
 118 566 118 566 114 571 c 1,8,9
 231 742 231 742 243 759 c 1,0,1
40 0 m 1,10,-1
 40 24 l 1,11,-1
 106 29 l 1,12,-1
 106 454 l 1,13,-1
 18 457 l 1,14,-1
 18 480 l 1,15,-1
 204 493 l 1,16,-1
 204 29 l 1,17,-1
 270 24 l 1,18,-1
 270 0 l 1,19,-1
 40 0 l 1,10,-1
EndSplineSet
EndChar

StartChar: icircumflex
Encoding: 238 238 174
Width: 294
GlyphClass: 2
Flags: W
LayerCount: 2
Fore
SplineSet
-18 555 m 1,0,-1
 119 741 l 1,1,-1
 169 741 l 1,2,-1
 305 555 l 1,3,-1
 274 536 l 1,4,-1
 144 662 l 1,5,-1
 13 536 l 1,6,-1
 -18 555 l 1,0,-1
40 0 m 1,7,-1
 40 24 l 1,8,-1
 106 29 l 1,9,-1
 106 454 l 1,10,-1
 18 457 l 1,11,-1
 18 480 l 1,12,-1
 204 493 l 1,13,-1
 204 29 l 1,14,-1
 270 24 l 1,15,-1
 270 0 l 1,16,-1
 40 0 l 1,7,-1
EndSplineSet
EndChar

StartChar: idieresis
Encoding: 239 239 175
Width: 294
GlyphClass: 2
Flags: W
LayerCount: 2
Fore
SplineSet
91.5 579 m 128,-1,1
 75 562 75 562 50.5 562 c 128,-1,2
 26 562 26 562 9.5 578.5 c 128,-1,3
 -7 595 -7 595 -7 619.5 c 128,-1,4
 -7 644 -7 644 9.5 661 c 128,-1,5
 26 678 26 678 50.5 678 c 128,-1,6
 75 678 75 678 91.5 661 c 128,-1,7
 108 644 108 644 108 620 c 128,-1,0
 108 596 108 596 91.5 579 c 128,-1,1
277.5 579 m 128,-1,9
 261 562 261 562 236.5 562 c 128,-1,10
 212 562 212 562 195.5 578.5 c 128,-1,11
 179 595 179 595 179 619.5 c 128,-1,12
 179 644 179 644 195.5 661 c 128,-1,13
 212 678 212 678 236.5 678 c 128,-1,14
 261 678 261 678 277.5 661 c 128,-1,15
 294 644 294 644 294 620 c 128,-1,8
 294 596 294 596 277.5 579 c 128,-1,9
40 0 m 1,16,-1
 40 24 l 1,17,-1
 106 29 l 1,18,-1
 106 454 l 1,19,-1
 18 457 l 1,20,-1
 18 480 l 1,21,-1
 204 493 l 1,22,-1
 204 29 l 1,23,-1
 270 24 l 1,24,-1
 270 0 l 1,25,-1
 40 0 l 1,16,-1
EndSplineSet
EndChar

StartChar: eth
Encoding: 240 240 176
Width: 599
GlyphClass: 2
Flags: W
LayerCount: 2
Fore
SplineSet
295 13 m 0,0,1
 370 13 370 13 404 79.5 c 128,-1,2
 438 146 438 146 438 239 c 128,-1,3
 438 332 438 332 416 403 c 1,4,5
 394 434 394 434 361.5 454 c 128,-1,6
 329 474 329 474 295 474 c 0,7,8
 219 474 219 474 186.5 415 c 128,-1,9
 154 356 154 356 154 244 c 0,10,11
 154 13 154 13 295 13 c 0,0,1
506 485 m 128,-1,13
 544 388 544 388 544 262.5 c 128,-1,14
 544 137 544 137 477.5 63 c 128,-1,15
 411 -11 411 -11 295 -11 c 128,-1,16
 179 -11 179 -11 112 61 c 128,-1,17
 45 133 45 133 45 244 c 128,-1,18
 45 355 45 355 112 427 c 128,-1,19
 179 499 179 499 295 499 c 0,20,21
 328 499 328 499 357.5 487.5 c 128,-1,22
 387 476 387 476 400 464 c 2,23,-1
 413 453 l 1,24,25
 403 490 403 490 375 544 c 128,-1,26
 347 598 347 598 327 622 c 1,27,-1
 264 576 l 1,28,-1
 243 604 l 1,29,-1
 309 652 l 1,30,31
 250 720 250 720 169 767 c 1,32,-1
 187 794 l 1,33,34
 214 787 214 787 276.5 750 c 128,-1,35
 339 713 339 713 359 691 c 1,36,-1
 427 740 l 1,37,-1
 446 713 l 1,38,-1
 385 668 l 1,39,12
 468 582 468 582 506 485 c 128,-1,13
EndSplineSet
EndChar

StartChar: ntilde
Encoding: 241 241 177
Width: 621
GlyphClass: 2
Flags: W
LayerCount: 2
Fore
SplineSet
40 0 m 1,0,-1
 40 24 l 1,1,-1
 106 29 l 1,2,-1
 106 452 l 1,3,-1
 21 456 l 1,4,-1
 21 479 l 1,5,-1
 200 491 l 1,6,-1
 195 383 l 1,7,-1
 204 382 l 1,8,9
 249 498 249 498 385 498 c 0,10,11
 453 498 453 498 495 457.5 c 128,-1,12
 537 417 537 417 537 342 c 0,13,14
 537 213 537 213 529 29 c 1,15,-1
 598 24 l 1,16,-1
 598 0 l 1,17,-1
 377 0 l 1,18,-1
 377 24 l 1,19,-1
 431 28 l 1,20,21
 439 254 439 254 439 299 c 128,-1,22
 439 344 439 344 432 380 c 0,23,24
 419 458 419 458 350 458 c 0,25,26
 286 458 286 458 245 405 c 128,-1,27
 204 352 204 352 204 290 c 2,28,-1
 204 29 l 1,29,-1
 279 24 l 1,30,-1
 279 0 l 1,31,-1
 40 0 l 1,0,-1
448.5 590 m 128,-1,33
 420 560 420 560 382.5 560 c 128,-1,34
 345 560 345 560 297 589 c 1,35,36
 252 621 252 621 228.5 621 c 128,-1,37
 205 621 205 621 188.5 607 c 128,-1,38
 172 593 172 593 167 575 c 1,39,-1
 140 575 l 1,40,41
 146 620 146 620 174.5 649.5 c 128,-1,42
 203 679 203 679 243 679 c 128,-1,43
 283 679 283 679 330 649 c 1,44,45
 375 618 375 618 397 618 c 128,-1,46
 419 618 419 618 435 632.5 c 128,-1,47
 451 647 451 647 456 665 c 1,48,-1
 483 665 l 1,49,32
 477 620 477 620 448.5 590 c 128,-1,33
EndSplineSet
EndChar

StartChar: ograve
Encoding: 242 242 178
Width: 589
GlyphClass: 2
Flags: W
LayerCount: 2
Fore
SplineSet
477 61 m 128,-1,1
 410 -11 410 -11 294.5 -11 c 128,-1,2
 179 -11 179 -11 112 61 c 128,-1,3
 45 133 45 133 45 244 c 128,-1,4
 45 355 45 355 112 427 c 128,-1,5
 179 499 179 499 294.5 499 c 128,-1,6
 410 499 410 499 477 427 c 128,-1,7
 544 355 544 355 544 244 c 128,-1,0
 544 133 544 133 477 61 c 128,-1,1
154 244 m 0,8,9
 154 13 154 13 294.5 13 c 128,-1,10
 435 13 435 13 435 244 c 0,11,12
 435 356 435 356 403 415 c 128,-1,13
 371 474 371 474 295 474 c 128,-1,14
 219 474 219 474 186.5 415 c 128,-1,15
 154 356 154 356 154 244 c 0,8,9
191 675 m 1,16,17
 177 690 177 690 177 700 c 0,18,19
 177 725 177 725 230 759 c 1,20,21
 242 742 242 742 359 571 c 1,22,23
 355 566 355 566 337 550 c 1,24,25
 270 602 270 602 191 675 c 1,16,17
EndSplineSet
EndChar

StartChar: oacute
Encoding: 243 243 179
Width: 589
GlyphClass: 2
Flags: W
LayerCount: 2
Fore
SplineSet
477 61 m 128,-1,1
 410 -11 410 -11 294.5 -11 c 128,-1,2
 179 -11 179 -11 112 61 c 128,-1,3
 45 133 45 133 45 244 c 128,-1,4
 45 355 45 355 112 427 c 128,-1,5
 179 499 179 499 294.5 499 c 128,-1,6
 410 499 410 499 477 427 c 128,-1,7
 544 355 544 355 544 244 c 128,-1,0
 544 133 544 133 477 61 c 128,-1,1
154 244 m 0,8,9
 154 13 154 13 294.5 13 c 128,-1,10
 435 13 435 13 435 244 c 0,11,12
 435 356 435 356 403 415 c 128,-1,13
 371 474 371 474 295 474 c 128,-1,14
 219 474 219 474 186.5 415 c 128,-1,15
 154 356 154 356 154 244 c 0,8,9
358 759 m 1,16,17
 411 725 411 725 411 701 c 0,18,19
 411 690 411 690 397 675 c 1,20,21
 318 602 318 602 251 550 c 1,22,23
 233 566 233 566 229 571 c 1,24,25
 346 742 346 742 358 759 c 1,16,17
EndSplineSet
EndChar

StartChar: ocircumflex
Encoding: 244 244 180
Width: 589
GlyphClass: 2
Flags: W
LayerCount: 2
Fore
SplineSet
477 61 m 128,-1,1
 410 -11 410 -11 294.5 -11 c 128,-1,2
 179 -11 179 -11 112 61 c 128,-1,3
 45 133 45 133 45 244 c 128,-1,4
 45 355 45 355 112 427 c 128,-1,5
 179 499 179 499 294.5 499 c 128,-1,6
 410 499 410 499 477 427 c 128,-1,7
 544 355 544 355 544 244 c 128,-1,0
 544 133 544 133 477 61 c 128,-1,1
154 244 m 0,8,9
 154 13 154 13 294.5 13 c 128,-1,10
 435 13 435 13 435 244 c 0,11,12
 435 356 435 356 403 415 c 128,-1,13
 371 474 371 474 295 474 c 128,-1,14
 219 474 219 474 186.5 415 c 128,-1,15
 154 356 154 356 154 244 c 0,8,9
133 555 m 1,16,-1
 270 741 l 1,17,-1
 320 741 l 1,18,-1
 456 555 l 1,19,-1
 425 536 l 1,20,-1
 295 662 l 1,21,-1
 164 536 l 1,22,-1
 133 555 l 1,16,-1
EndSplineSet
EndChar

StartChar: otilde
Encoding: 245 245 181
Width: 589
GlyphClass: 2
Flags: W
LayerCount: 2
Fore
SplineSet
477 61 m 128,-1,1
 410 -11 410 -11 294.5 -11 c 128,-1,2
 179 -11 179 -11 112 61 c 128,-1,3
 45 133 45 133 45 244 c 128,-1,4
 45 355 45 355 112 427 c 128,-1,5
 179 499 179 499 294.5 499 c 128,-1,6
 410 499 410 499 477 427 c 128,-1,7
 544 355 544 355 544 244 c 128,-1,0
 544 133 544 133 477 61 c 128,-1,1
154 244 m 0,8,9
 154 13 154 13 294.5 13 c 128,-1,10
 435 13 435 13 435 244 c 0,11,12
 435 356 435 356 403 415 c 128,-1,13
 371 474 371 474 295 474 c 128,-1,14
 219 474 219 474 186.5 415 c 128,-1,15
 154 356 154 356 154 244 c 0,8,9
431.5 590 m 128,-1,17
 403 560 403 560 365.5 560 c 128,-1,18
 328 560 328 560 280 589 c 1,19,20
 235 621 235 621 211.5 621 c 128,-1,21
 188 621 188 621 171.5 607 c 128,-1,22
 155 593 155 593 150 575 c 1,23,-1
 123 575 l 1,24,25
 129 620 129 620 157.5 649.5 c 128,-1,26
 186 679 186 679 226 679 c 128,-1,27
 266 679 266 679 313 649 c 1,28,29
 358 618 358 618 380 618 c 128,-1,30
 402 618 402 618 418 632.5 c 128,-1,31
 434 647 434 647 439 665 c 1,32,-1
 466 665 l 1,33,16
 460 620 460 620 431.5 590 c 128,-1,17
EndSplineSet
EndChar

StartChar: odieresis
Encoding: 246 246 182
Width: 589
GlyphClass: 2
Flags: W
LayerCount: 2
Fore
SplineSet
477 61 m 128,-1,1
 410 -11 410 -11 294.5 -11 c 128,-1,2
 179 -11 179 -11 112 61 c 128,-1,3
 45 133 45 133 45 244 c 128,-1,4
 45 355 45 355 112 427 c 128,-1,5
 179 499 179 499 294.5 499 c 128,-1,6
 410 499 410 499 477 427 c 128,-1,7
 544 355 544 355 544 244 c 128,-1,0
 544 133 544 133 477 61 c 128,-1,1
154 244 m 0,8,9
 154 13 154 13 294.5 13 c 128,-1,10
 435 13 435 13 435 244 c 0,11,12
 435 356 435 356 403 415 c 128,-1,13
 371 474 371 474 295 474 c 128,-1,14
 219 474 219 474 186.5 415 c 128,-1,15
 154 356 154 356 154 244 c 0,8,9
244.5 578 m 128,-1,17
 228 561 228 561 203.5 561 c 128,-1,18
 179 561 179 561 162.5 577.5 c 128,-1,19
 146 594 146 594 146 618.5 c 128,-1,20
 146 643 146 643 162.5 660 c 128,-1,21
 179 677 179 677 203.5 677 c 128,-1,22
 228 677 228 677 244.5 660 c 128,-1,23
 261 643 261 643 261 619 c 128,-1,16
 261 595 261 595 244.5 578 c 128,-1,17
430.5 578 m 128,-1,25
 414 561 414 561 389.5 561 c 128,-1,26
 365 561 365 561 348.5 577.5 c 128,-1,27
 332 594 332 594 332 618.5 c 128,-1,28
 332 643 332 643 348.5 660 c 128,-1,29
 365 677 365 677 389.5 677 c 128,-1,30
 414 677 414 677 430.5 660 c 128,-1,31
 447 643 447 643 447 619 c 128,-1,24
 447 595 447 595 430.5 578 c 128,-1,25
EndSplineSet
EndChar

StartChar: divide
Encoding: 247 247 183
Width: 513
GlyphClass: 2
Flags: W
LayerCount: 2
Fore
SplineSet
310 371 m 128,-1,1
 310 347 310 347 293.5 331 c 128,-1,2
 277 315 277 315 253.5 315 c 128,-1,3
 230 315 230 315 214.5 331.5 c 128,-1,4
 199 348 199 348 199 371 c 128,-1,5
 199 394 199 394 215.5 410.5 c 128,-1,6
 232 427 232 427 255 427 c 128,-1,7
 278 427 278 427 294 411 c 128,-1,0
 310 395 310 395 310 371 c 128,-1,1
446 198 m 1,8,-1
 67 198 l 1,9,-1
 67 253 l 1,10,-1
 446 253 l 1,11,-1
 446 198 l 1,8,-1
310 81 m 128,-1,13
 310 57 310 57 293.5 41 c 128,-1,14
 277 25 277 25 253.5 25 c 128,-1,15
 230 25 230 25 214.5 41.5 c 128,-1,16
 199 58 199 58 199 81 c 128,-1,17
 199 104 199 104 215.5 120.5 c 128,-1,18
 232 137 232 137 255 137 c 128,-1,19
 278 137 278 137 294 121 c 128,-1,12
 310 105 310 105 310 81 c 128,-1,13
EndSplineSet
EndChar

StartChar: oslash
Encoding: 248 248 184
Width: 589
GlyphClass: 2
Flags: W
LayerCount: 2
Fore
SplineSet
51 16 m 1,0,-1
 488 503 l 1,1,-1
 522 471 l 1,2,-1
 82 -15 l 1,3,-1
 51 16 l 1,0,-1
477 61 m 128,-1,5
 410 -11 410 -11 294.5 -11 c 128,-1,6
 179 -11 179 -11 112 61 c 128,-1,7
 45 133 45 133 45 244 c 128,-1,8
 45 355 45 355 112 427 c 128,-1,9
 179 499 179 499 294.5 499 c 128,-1,10
 410 499 410 499 477 427 c 128,-1,11
 544 355 544 355 544 244 c 128,-1,4
 544 133 544 133 477 61 c 128,-1,5
154 244 m 0,12,13
 154 13 154 13 294.5 13 c 128,-1,14
 435 13 435 13 435 244 c 0,15,16
 435 356 435 356 403 415 c 128,-1,17
 371 474 371 474 295 474 c 128,-1,18
 219 474 219 474 186.5 415 c 128,-1,19
 154 356 154 356 154 244 c 0,12,13
EndSplineSet
EndChar

StartChar: ugrave
Encoding: 249 249 185
Width: 608
GlyphClass: 2
Flags: W
LayerCount: 2
Fore
SplineSet
413 175 m 2,0,-1
 413 456 l 1,1,-1
 330 460 l 1,2,-1
 330 483 l 1,3,-1
 511 494 l 1,4,-1
 511 31 l 1,5,-1
 596 27 l 1,6,-1
 597 4 l 1,7,-1
 417 -8 l 1,8,-1
 424 100 l 1,9,-1
 412 100 l 1,10,11
 360 -12 360 -12 246 -12 c 0,12,13
 86 -12 86 -12 86 142 c 0,14,15
 86 255 86 255 93 456 c 1,16,-1
 13 460 l 1,17,-1
 13 483 l 1,18,-1
 191 494 l 1,19,20
 184 230 184 230 184 135 c 0,21,22
 184 78 184 78 205 50 c 128,-1,23
 226 22 226 22 275.5 22 c 128,-1,24
 325 22 325 22 369 77.5 c 128,-1,25
 413 133 413 133 413 175 c 2,0,-1
183 675 m 1,26,27
 169 690 169 690 169 700 c 0,28,29
 169 725 169 725 222 759 c 1,30,31
 234 742 234 742 351 571 c 1,32,33
 347 566 347 566 329 550 c 1,34,35
 262 602 262 602 183 675 c 1,26,27
EndSplineSet
EndChar

StartChar: uacute
Encoding: 250 250 186
Width: 608
GlyphClass: 2
Flags: W
LayerCount: 2
Fore
SplineSet
413 175 m 2,0,-1
 413 456 l 1,1,-1
 330 460 l 1,2,-1
 330 483 l 1,3,-1
 511 494 l 1,4,-1
 511 31 l 1,5,-1
 596 27 l 1,6,-1
 597 4 l 1,7,-1
 417 -8 l 1,8,-1
 424 100 l 1,9,-1
 412 100 l 1,10,11
 360 -12 360 -12 246 -12 c 0,12,13
 86 -12 86 -12 86 142 c 0,14,15
 86 255 86 255 93 456 c 1,16,-1
 13 460 l 1,17,-1
 13 483 l 1,18,-1
 191 494 l 1,19,20
 184 230 184 230 184 135 c 0,21,22
 184 78 184 78 205 50 c 128,-1,23
 226 22 226 22 275.5 22 c 128,-1,24
 325 22 325 22 369 77.5 c 128,-1,25
 413 133 413 133 413 175 c 2,0,-1
350 759 m 1,26,27
 403 725 403 725 403 701 c 0,28,29
 403 690 403 690 389 675 c 1,30,31
 310 602 310 602 243 550 c 1,32,33
 225 566 225 566 221 571 c 1,34,35
 338 742 338 742 350 759 c 1,26,27
EndSplineSet
EndChar

StartChar: ucircumflex
Encoding: 251 251 187
Width: 608
GlyphClass: 2
Flags: W
LayerCount: 2
Fore
SplineSet
413 175 m 2,0,-1
 413 456 l 1,1,-1
 330 460 l 1,2,-1
 330 483 l 1,3,-1
 511 494 l 1,4,-1
 511 31 l 1,5,-1
 596 27 l 1,6,-1
 597 4 l 1,7,-1
 417 -8 l 1,8,-1
 424 100 l 1,9,-1
 412 100 l 1,10,11
 360 -12 360 -12 246 -12 c 0,12,13
 86 -12 86 -12 86 142 c 0,14,15
 86 255 86 255 93 456 c 1,16,-1
 13 460 l 1,17,-1
 13 483 l 1,18,-1
 191 494 l 1,19,20
 184 230 184 230 184 135 c 0,21,22
 184 78 184 78 205 50 c 128,-1,23
 226 22 226 22 275.5 22 c 128,-1,24
 325 22 325 22 369 77.5 c 128,-1,25
 413 133 413 133 413 175 c 2,0,-1
122 555 m 1,26,-1
 259 741 l 1,27,-1
 309 741 l 1,28,-1
 445 555 l 1,29,-1
 414 536 l 1,30,-1
 284 662 l 1,31,-1
 153 536 l 1,32,-1
 122 555 l 1,26,-1
EndSplineSet
EndChar

StartChar: udieresis
Encoding: 252 252 188
Width: 608
GlyphClass: 2
Flags: W
LayerCount: 2
Fore
SplineSet
413 175 m 2,0,-1
 413 456 l 1,1,-1
 330 460 l 1,2,-1
 330 483 l 1,3,-1
 511 494 l 1,4,-1
 511 31 l 1,5,-1
 596 27 l 1,6,-1
 597 4 l 1,7,-1
 417 -8 l 1,8,-1
 424 100 l 1,9,-1
 412 100 l 1,10,11
 360 -12 360 -12 246 -12 c 0,12,13
 86 -12 86 -12 86 142 c 0,14,15
 86 255 86 255 93 456 c 1,16,-1
 13 460 l 1,17,-1
 13 483 l 1,18,-1
 191 494 l 1,19,20
 184 230 184 230 184 135 c 0,21,22
 184 78 184 78 205 50 c 128,-1,23
 226 22 226 22 275.5 22 c 128,-1,24
 325 22 325 22 369 77.5 c 128,-1,25
 413 133 413 133 413 175 c 2,0,-1
239.5 579 m 128,-1,27
 223 562 223 562 198.5 562 c 128,-1,28
 174 562 174 562 157.5 578.5 c 128,-1,29
 141 595 141 595 141 619.5 c 128,-1,30
 141 644 141 644 157.5 661 c 128,-1,31
 174 678 174 678 198.5 678 c 128,-1,32
 223 678 223 678 239.5 661 c 128,-1,33
 256 644 256 644 256 620 c 128,-1,26
 256 596 256 596 239.5 579 c 128,-1,27
425.5 579 m 128,-1,35
 409 562 409 562 384.5 562 c 128,-1,36
 360 562 360 562 343.5 578.5 c 128,-1,37
 327 595 327 595 327 619.5 c 128,-1,38
 327 644 327 644 343.5 661 c 128,-1,39
 360 678 360 678 384.5 678 c 128,-1,40
 409 678 409 678 425.5 661 c 128,-1,41
 442 644 442 644 442 620 c 128,-1,34
 442 596 442 596 425.5 579 c 128,-1,35
EndSplineSet
EndChar

StartChar: yacute
Encoding: 253 253 189
Width: 525
GlyphClass: 2
Flags: W
LayerCount: 2
Fore
SplineSet
129 -245.5 m 128,-1,1
 98 -264 98 -264 66.5 -264 c 128,-1,2
 35 -264 35 -264 17.5 -247.5 c 128,-1,3
 0 -231 0 -231 0 -203.5 c 128,-1,4
 0 -176 0 -176 25 -148 c 1,5,6
 53 -180 53 -180 88 -180 c 0,7,8
 138 -180 138 -180 174 -136.5 c 128,-1,9
 210 -93 210 -93 244 0 c 1,10,-1
 52 456 l 1,11,-1
 1 462 l 1,12,-1
 1 488 l 1,13,-1
 214 488 l 1,14,-1
 214 462 l 1,15,-1
 145 456 l 1,16,-1
 288 107 l 1,17,-1
 411 443 l 1,18,-1
 331 462 l 1,19,-1
 331 488 l 1,20,-1
 523 488 l 1,21,-1
 523 462 l 1,22,-1
 453 443 l 1,23,-1
 284 0 l 2,24,25
 266 -46 266 -46 256 -71 c 128,-1,26
 246 -96 246 -96 223.5 -138.5 c 128,-1,27
 201 -181 201 -181 180.5 -204 c 128,-1,0
 160 -227 160 -227 129 -245.5 c 128,-1,1
337 759 m 1,28,29
 390 725 390 725 390 701 c 0,30,31
 390 690 390 690 376 675 c 1,32,33
 297 602 297 602 230 550 c 1,34,35
 212 566 212 566 208 571 c 1,36,37
 325 742 325 742 337 759 c 1,28,29
EndSplineSet
EndChar

StartChar: thorn
Encoding: 254 254 190
Width: 602
GlyphClass: 2
Flags: W
LayerCount: 2
Fore
SplineSet
299 18 m 0,0,1
 337 18 337 18 364.5 34 c 128,-1,2
 392 50 392 50 407.5 74 c 128,-1,3
 423 98 423 98 432 135 c 0,4,5
 445 194 445 194 445 284 c 128,-1,6
 445 374 445 374 414 421 c 128,-1,7
 383 468 383 468 327 468 c 128,-1,8
 271 468 271 468 224.5 420.5 c 128,-1,9
 178 373 178 373 178 333 c 2,10,-1
 180 55 l 1,11,12
 228 18 228 18 299 18 c 0,0,1
179 766 m 1,13,-1
 178 552 l 2,14,15
 178 450 178 450 173 407 c 1,16,-1
 182 407 l 1,17,18
 209 451 209 451 257 475 c 128,-1,19
 305 499 305 499 360 499 c 0,20,21
 443 499 443 499 499 441.5 c 128,-1,22
 555 384 555 384 555 259.5 c 128,-1,23
 555 135 555 135 488 61.5 c 128,-1,24
 421 -12 421 -12 297 -12 c 0,25,26
 235 -12 235 -12 180 17 c 1,27,-1
 180 -221 l 1,28,-1
 250 -226 l 1,29,-1
 250 -250 l 1,30,-1
 19 -250 l 1,31,-1
 19 -226 l 1,32,-1
 81 -221 l 1,33,-1
 81 718 l 1,34,-1
 -7 722 l 1,35,-1
 -8 745 l 1,36,-1
 179 766 l 1,13,-1
EndSplineSet
EndChar

StartChar: ydieresis
Encoding: 255 255 191
Width: 525
GlyphClass: 2
Flags: W
LayerCount: 2
Fore
SplineSet
129 -245.5 m 128,-1,1
 98 -264 98 -264 66.5 -264 c 128,-1,2
 35 -264 35 -264 17.5 -247.5 c 128,-1,3
 0 -231 0 -231 0 -203.5 c 128,-1,4
 0 -176 0 -176 25 -148 c 1,5,6
 53 -180 53 -180 88 -180 c 0,7,8
 138 -180 138 -180 174 -136.5 c 128,-1,9
 210 -93 210 -93 244 0 c 1,10,-1
 52 456 l 1,11,-1
 1 462 l 1,12,-1
 1 488 l 1,13,-1
 214 488 l 1,14,-1
 214 462 l 1,15,-1
 145 456 l 1,16,-1
 288 107 l 1,17,-1
 411 443 l 1,18,-1
 331 462 l 1,19,-1
 331 488 l 1,20,-1
 523 488 l 1,21,-1
 523 462 l 1,22,-1
 453 443 l 1,23,-1
 284 0 l 2,24,25
 266 -46 266 -46 256 -71 c 128,-1,26
 246 -96 246 -96 223.5 -138.5 c 128,-1,27
 201 -181 201 -181 180.5 -204 c 128,-1,0
 160 -227 160 -227 129 -245.5 c 128,-1,1
217.5 579 m 128,-1,29
 201 562 201 562 176.5 562 c 128,-1,30
 152 562 152 562 135.5 578.5 c 128,-1,31
 119 595 119 595 119 619.5 c 128,-1,32
 119 644 119 644 135.5 661 c 128,-1,33
 152 678 152 678 176.5 678 c 128,-1,34
 201 678 201 678 217.5 661 c 128,-1,35
 234 644 234 644 234 620 c 128,-1,28
 234 596 234 596 217.5 579 c 128,-1,29
403.5 579 m 128,-1,37
 387 562 387 562 362.5 562 c 128,-1,38
 338 562 338 562 321.5 578.5 c 128,-1,39
 305 595 305 595 305 619.5 c 128,-1,40
 305 644 305 644 321.5 661 c 128,-1,41
 338 678 338 678 362.5 678 c 128,-1,42
 387 678 387 678 403.5 661 c 128,-1,43
 420 644 420 644 420 620 c 128,-1,36
 420 596 420 596 403.5 579 c 128,-1,37
EndSplineSet
EndChar

StartChar: dotlessi
Encoding: 305 305 192
Width: 294
GlyphClass: 2
Flags: W
LayerCount: 2
Fore
SplineSet
270 0 m 1,0,-1
 40 0 l 1,1,-1
 40 24 l 1,2,-1
 106 29 l 1,3,-1
 106 454 l 1,4,-1
 18 457 l 1,5,-1
 18 480 l 1,6,-1
 204 493 l 1,7,-1
 204 29 l 1,8,-1
 270 24 l 1,9,-1
 270 0 l 1,0,-1
EndSplineSet
EndChar

StartChar: OE
Encoding: 338 338 193
Width: 1029
GlyphClass: 2
Flags: W
LayerCount: 2
Fore
SplineSet
542 0 m 1,0,1
 490 -6 490 -6 432 -6 c 128,-1,2
 374 -6 374 -6 320.5 3 c 128,-1,3
 267 12 267 12 216 35 c 128,-1,4
 165 58 165 58 129.5 94 c 128,-1,5
 94 130 94 130 72.5 187.5 c 128,-1,6
 51 245 51 245 51 328 c 128,-1,7
 51 411 51 411 83.5 481.5 c 128,-1,8
 116 552 116 552 172 593 c 0,9,10
 283 675 283 675 436 675 c 0,11,12
 478 675 478 675 556 669 c 1,13,-1
 950 668 l 1,14,-1
 951 526 l 1,15,-1
 925 526 l 1,16,-1
 891 632 l 1,17,-1
 661 635 l 1,18,-1
 661 366 l 1,19,-1
 863 366 l 1,20,-1
 894 440 l 1,21,-1
 914 440 l 1,22,-1
 914 254 l 1,23,-1
 893 254 l 1,24,-1
 863 330 l 1,25,-1
 661 330 l 1,26,-1
 661 32 l 1,27,-1
 921 35 l 1,28,-1
 968 149 l 1,29,-1
 994 149 l 1,30,-1
 982 0 l 1,31,-1
 542 0 l 1,0,1
450 30 m 0,32,33
 509 30 509 30 558 42 c 1,34,-1
 558 624 l 1,35,36
 513 638 513 638 454 638 c 0,37,38
 333 638 333 638 253.5 558.5 c 128,-1,39
 174 479 174 479 174 327 c 128,-1,40
 174 175 174 175 251.5 102.5 c 128,-1,41
 329 30 329 30 450 30 c 0,32,33
EndSplineSet
EndChar

StartChar: oe
Encoding: 339 339 194
Width: 908
GlyphClass: 2
Flags: W
LayerCount: 2
Fore
SplineSet
484 81 m 1,0,1
 418 -11 418 -11 298.5 -11 c 128,-1,2
 179 -11 179 -11 112 61 c 128,-1,3
 45 133 45 133 45 244 c 128,-1,4
 45 355 45 355 112 427 c 128,-1,5
 179 499 179 499 299.5 499 c 128,-1,6
 420 499 420 499 485 405 c 1,7,8
 550 499 550 499 666 499 c 0,9,10
 763 499 763 499 813 453.5 c 128,-1,11
 863 408 863 408 863 327 c 0,12,13
 863 303 863 303 859 279 c 1,14,-1
 536 279 l 1,15,-1
 536 244 l 2,16,17
 536 132 536 132 568 74.5 c 128,-1,18
 600 17 600 17 673 17 c 0,19,20
 776 17 776 17 832 107 c 1,21,22
 854 100 854 100 854 86 c 0,23,24
 854 61 854 61 808 28 c 0,25,26
 786 12 786 12 746 0.5 c 128,-1,27
 706 -11 706 -11 657 -11 c 0,28,29
 544 -11 544 -11 484 81 c 1,0,1
154 244 m 0,30,31
 154 13 154 13 294.5 13 c 128,-1,32
 435 13 435 13 435 244 c 0,33,34
 435 356 435 356 403 415 c 128,-1,35
 371 474 371 474 295 474 c 128,-1,36
 219 474 219 474 186.5 415 c 128,-1,37
 154 356 154 356 154 244 c 0,30,31
768 348 m 0,38,39
 768 394 768 394 749 427 c 0,40,41
 723 471 723 471 665 471 c 0,42,43
 557 471 557 471 539 315 c 1,44,-1
 766 315 l 1,45,46
 768 332 768 332 768 348 c 0,38,39
EndSplineSet
EndChar

StartChar: Scaron
Encoding: 352 352 195
Width: 569
GlyphClass: 2
Flags: W
LayerCount: 2
Fore
SplineSet
486 521 m 1,0,-1
 455 521 l 1,1,-1
 421 635 l 1,2,3
 367 654 367 654 310 654 c 128,-1,4
 253 654 253 654 210 621.5 c 128,-1,5
 167 589 167 589 167 526 c 128,-1,6
 167 463 167 463 220 430 c 0,7,8
 249 412 249 412 267.5 404 c 128,-1,9
 286 396 286 396 325.5 381.5 c 128,-1,10
 365 367 365 367 408 348 c 0,11,12
 434 336 434 336 446.5 327 c 128,-1,13
 459 318 459 318 477 302 c 0,14,15
 526 258 526 258 526 181 c 0,16,17
 526 96 526 96 457 42 c 128,-1,18
 388 -12 388 -12 278 -12 c 0,19,20
 194 -12 194 -12 121 16 c 0,21,22
 85 29 85 29 62 52 c 128,-1,23
 39 75 39 75 39 105 c 0,24,25
 39 154 39 154 110 172 c 1,26,27
 121 112 121 112 152 75 c 128,-1,28
 183 38 183 38 216.5 26 c 128,-1,29
 250 14 250 14 298.5 14 c 128,-1,30
 347 14 347 14 390 45.5 c 128,-1,31
 433 77 433 77 433 149 c 0,32,33
 433 204 433 204 383 239 c 0,34,35
 357 257 357 257 332 269 c 128,-1,36
 307 281 307 281 266.5 297.5 c 128,-1,37
 226 314 226 314 206 322.5 c 128,-1,38
 186 331 186 331 154 350 c 0,39,40
 69 400 69 400 69 494 c 256,41,42
 69 588 69 588 136 636 c 128,-1,43
 203 684 203 684 321 684 c 0,44,45
 392 684 392 684 486 668 c 1,46,-1
 486 521 l 1,0,-1
452 910 m 1,47,-1
 315 724 l 1,48,-1
 265 724 l 1,49,-1
 129 910 l 1,50,-1
 160 929 l 1,51,-1
 290 803 l 1,52,-1
 421 929 l 1,53,-1
 452 910 l 1,47,-1
EndSplineSet
EndChar

StartChar: scaron
Encoding: 353 353 196
Width: 450
GlyphClass: 2
Flags: W
LayerCount: 2
Fore
SplineSet
226 14 m 0,0,1
 266 14 266 14 295.5 36 c 128,-1,2
 325 58 325 58 325 110 c 0,3,4
 325 145 325 145 293.5 168 c 128,-1,5
 262 191 262 191 215 209.5 c 128,-1,6
 168 228 168 228 151.5 235.5 c 128,-1,7
 135 243 135 243 108 260 c 0,8,9
 59 293 59 293 59 355 c 128,-1,10
 59 417 59 417 108 458 c 128,-1,11
 157 499 157 499 251 499 c 0,12,13
 311 499 311 499 353.5 472.5 c 128,-1,14
 396 446 396 446 396 409 c 128,-1,15
 396 372 396 372 368 358 c 0,16,17
 353 351 353 351 338.5 351 c 128,-1,18
 324 351 324 351 310 357 c 1,19,20
 314 375 314 375 314 396 c 128,-1,21
 314 417 314 417 304 438 c 0,22,23
 287 474 287 474 239 474 c 128,-1,24
 191 474 191 474 166 448 c 128,-1,25
 141 422 141 422 141 380 c 0,26,27
 141 337 141 337 177 316 c 1,28,29
 204 299 204 299 244 285 c 128,-1,30
 284 271 284 271 298.5 265.5 c 128,-1,31
 313 260 313 260 337 247 c 128,-1,32
 361 234 361 234 373 220 c 0,33,34
 404 186 404 186 404 128 c 128,-1,35
 404 70 404 70 352 29.5 c 128,-1,36
 300 -11 300 -11 225 -11 c 128,-1,37
 150 -11 150 -11 93.5 12 c 128,-1,38
 37 35 37 35 37 79 c 0,39,40
 37 120 37 120 98 133 c 1,41,42
 116 14 116 14 226 14 c 0,0,1
391 730 m 1,43,-1
 254 544 l 1,44,-1
 204 544 l 1,45,-1
 68 730 l 1,46,-1
 99 749 l 1,47,-1
 229 623 l 1,48,-1
 360 749 l 1,49,-1
 391 730 l 1,43,-1
EndSplineSet
EndChar

StartChar: Ydieresis
Encoding: 376 376 197
Width: 653
GlyphClass: 2
Flags: W
LayerCount: 2
Fore
SplineSet
658 668 m 1,0,-1
 658 644 l 1,1,-1
 582 620 l 1,2,-1
 383 295 l 1,3,-1
 383 33 l 1,4,-1
 470 24 l 1,5,-1
 470 0 l 1,6,-1
 193 0 l 1,7,-1
 193 24 l 1,8,-1
 280 33 l 1,9,-1
 280 287 l 1,10,-1
 44 635 l 1,11,-1
 -32 646 l 1,12,-1
 -32 668 l 1,13,-1
 238 668 l 1,14,-1
 238 647 l 1,15,-1
 161 636 l 1,16,-1
 359 339 l 1,17,-1
 530 621 l 1,18,-1
 455 644 l 1,19,-1
 455 668 l 1,20,-1
 658 668 l 1,0,-1
285.5 759 m 128,-1,22
 269 742 269 742 244.5 742 c 128,-1,23
 220 742 220 742 203.5 758.5 c 128,-1,24
 187 775 187 775 187 799.5 c 128,-1,25
 187 824 187 824 203.5 841 c 128,-1,26
 220 858 220 858 244.5 858 c 128,-1,27
 269 858 269 858 285.5 841 c 128,-1,28
 302 824 302 824 302 800 c 128,-1,21
 302 776 302 776 285.5 759 c 128,-1,22
471.5 759 m 128,-1,30
 455 742 455 742 430.5 742 c 128,-1,31
 406 742 406 742 389.5 758.5 c 128,-1,32
 373 775 373 775 373 799.5 c 128,-1,33
 373 824 373 824 389.5 841 c 128,-1,34
 406 858 406 858 430.5 858 c 128,-1,35
 455 858 455 858 471.5 841 c 128,-1,36
 488 824 488 824 488 800 c 128,-1,29
 488 776 488 776 471.5 759 c 128,-1,30
EndSplineSet
EndChar

StartChar: Zcaron
Encoding: 381 381 198
Width: 656
GlyphClass: 2
Flags: W
LayerCount: 2
Fore
SplineSet
606 159 m 1,0,-1
 606 13 l 1,1,-1
 43 11 l 1,2,-1
 43 39 l 1,3,-1
 479 630 l 1,4,-1
 114 632 l 1,5,-1
 80 521 l 1,6,-1
 54 521 l 1,7,-1
 54 668 l 1,8,-1
 609 670 l 1,9,-1
 609 639 l 1,10,-1
 177 51 l 1,11,-1
 546 49 l 1,12,-1
 580 159 l 1,13,-1
 606 159 l 1,0,-1
492 910 m 1,14,-1
 355 724 l 1,15,-1
 305 724 l 1,16,-1
 169 910 l 1,17,-1
 200 929 l 1,18,-1
 330 803 l 1,19,-1
 461 929 l 1,20,-1
 492 910 l 1,14,-1
EndSplineSet
EndChar

StartChar: zcaron
Encoding: 382 382 199
Width: 515
GlyphClass: 2
Flags: W
LayerCount: 2
Fore
SplineSet
45 23 m 1,0,-1
 361 456 l 1,1,-1
 109 453 l 1,2,-1
 75 347 l 1,3,-1
 49 348 l 1,4,-1
 50 489 l 1,5,-1
 471 491 l 1,6,-1
 471 467 l 1,7,-1
 158 34 l 1,8,-1
 402 37 l 1,9,-1
 442 142 l 1,10,-1
 468 142 l 1,11,-1
 461 1 l 1,12,-1
 45 -1 l 1,13,-1
 45 23 l 1,0,-1
422 730 m 1,14,-1
 285 544 l 1,15,-1
 235 544 l 1,16,-1
 99 730 l 1,17,-1
 130 749 l 1,18,-1
 260 623 l 1,19,-1
 391 749 l 1,20,-1
 422 730 l 1,14,-1
EndSplineSet
EndChar

StartChar: florin
Encoding: 402 402 200
Width: 773
GlyphClass: 2
Flags: W
LayerCount: 2
Fore
SplineSet
660 640 m 0,0,1
 660 703 660 703 599 703 c 0,2,3
 567 703 567 703 542.5 684.5 c 128,-1,4
 518 666 518 666 504.5 642 c 128,-1,5
 491 618 491 618 481 576 c 0,6,7
 469 526 469 526 459 443 c 1,8,-1
 458 440 l 1,9,-1
 580 440 l 1,10,-1
 580 414 l 1,11,-1
 456 414 l 1,12,-1
 410 -8 l 2,13,14
 395 -141 395 -141 332 -208 c 128,-1,15
 269 -275 269 -275 165 -275 c 0,16,17
 102 -275 102 -275 65.5 -253 c 128,-1,18
 29 -231 29 -231 29 -195 c 0,19,20
 29 -152 29 -152 64 -130 c 0,21,22
 80 -120 80 -120 95.5 -120 c 128,-1,23
 111 -120 111 -120 124 -126 c 1,24,25
 113 -155 113 -155 113 -183 c 0,26,27
 113 -246 113 -246 174 -246 c 0,28,29
 206 -246 206 -246 230.5 -227.5 c 128,-1,30
 255 -209 255 -209 268.5 -185.5 c 128,-1,31
 282 -162 282 -162 292 -120 c 0,32,33
 304 -70 304 -70 314 13 c 1,34,-1
 357 414 l 1,35,-1
 261 414 l 1,36,-1
 261 440 l 1,37,-1
 360 440 l 1,38,-1
 363 465 l 2,39,40
 378 598 378 598 441 665 c 128,-1,41
 504 732 504 732 608 732 c 0,42,43
 671 732 671 732 707.5 710 c 128,-1,44
 744 688 744 688 744 652 c 0,45,46
 744 609 744 609 710 588 c 0,47,48
 693 577 693 577 677.5 577 c 128,-1,49
 662 577 662 577 649 583 c 1,50,51
 660 612 660 612 660 640 c 0,0,1
EndSplineSet
EndChar

StartChar: circumflex
Encoding: 710 710 201
Width: 427
GlyphClass: 2
Flags: W
LayerCount: 2
Fore
SplineSet
49 555 m 1,0,-1
 186 741 l 1,1,-1
 236 741 l 1,2,-1
 372 555 l 1,3,-1
 341 536 l 1,4,-1
 211 662 l 1,5,-1
 80 536 l 1,6,-1
 49 555 l 1,0,-1
EndSplineSet
EndChar

StartChar: caron
Encoding: 711 711 202
Width: 523
GlyphClass: 2
Flags: W
LayerCount: 2
Fore
SplineSet
423 730 m 1,0,-1
 286 544 l 1,1,-1
 236 544 l 1,2,-1
 100 730 l 1,3,-1
 131 749 l 1,4,-1
 261 623 l 1,5,-1
 392 749 l 1,6,-1
 423 730 l 1,0,-1
EndSplineSet
EndChar

StartChar: breve
Encoding: 728 728 203
Width: 391
GlyphClass: 2
Flags: W
LayerCount: 2
Fore
SplineSet
60 669 m 1,0,-1
 77 669 l 1,1,2
 106 583 106 583 195.5 583 c 128,-1,3
 285 583 285 583 314 669 c 1,4,-1
 331 669 l 1,5,6
 331 600 331 600 294.5 560 c 128,-1,7
 258 520 258 520 196 520 c 128,-1,8
 134 520 134 520 97 560 c 128,-1,9
 60 600 60 600 60 669 c 1,0,-1
EndSplineSet
EndChar

StartChar: dotaccent
Encoding: 729 729 204
Width: 250
GlyphClass: 2
Flags: W
LayerCount: 2
Fore
SplineSet
173 609.5 m 128,-1,1
 156 592 156 592 130.5 592 c 128,-1,2
 105 592 105 592 88 609 c 128,-1,3
 71 626 71 626 71 651.5 c 128,-1,4
 71 677 71 677 88 694.5 c 128,-1,5
 105 712 105 712 130 712 c 128,-1,6
 155 712 155 712 172.5 694 c 128,-1,7
 190 676 190 676 190 651.5 c 128,-1,0
 190 627 190 627 173 609.5 c 128,-1,1
EndSplineSet
EndChar

StartChar: ring
Encoding: 730 730 205
Width: 362
GlyphClass: 2
Flags: W
LayerCount: 2
Fore
SplineSet
257 733 m 128,-1,1
 287 704 287 704 287 660 c 128,-1,2
 287 616 287 616 255.5 585.5 c 128,-1,3
 224 555 224 555 180 555 c 128,-1,4
 136 555 136 555 105.5 584 c 128,-1,5
 75 613 75 613 75 657 c 128,-1,6
 75 701 75 701 106.5 731.5 c 128,-1,7
 138 762 138 762 182.5 762 c 128,-1,0
 227 762 227 762 257 733 c 128,-1,1
221.5 613 m 128,-1,9
 238 630 238 630 238 656 c 128,-1,10
 238 682 238 682 221 700 c 128,-1,11
 204 718 204 718 180.5 718 c 128,-1,12
 157 718 157 718 140.5 701 c 128,-1,13
 124 684 124 684 124 657 c 128,-1,14
 124 630 124 630 140.5 613 c 128,-1,15
 157 596 157 596 181 596 c 128,-1,8
 205 596 205 596 221.5 613 c 128,-1,9
EndSplineSet
EndChar

StartChar: ogonek
Encoding: 731 731 206
Width: 283
GlyphClass: 2
Flags: W
LayerCount: 2
Fore
SplineSet
194 -204.5 m 128,-1,1
 163 -218 163 -218 129.5 -218 c 128,-1,2
 96 -218 96 -218 74 -200.5 c 128,-1,3
 52 -183 52 -183 52 -146 c 0,4,5
 52 -91 52 -91 102 -48.5 c 128,-1,6
 152 -6 152 -6 195 6 c 1,7,-1
 213 6 l 1,8,9
 122 -67 122 -67 122 -136 c 0,10,11
 122 -182 122 -182 171 -182 c 0,12,13
 209 -182 209 -182 231 -157 c 1,14,-1
 238 -172 l 1,15,0
 225 -191 225 -191 194 -204.5 c 128,-1,1
EndSplineSet
EndChar

StartChar: tilde
Encoding: 732 732 207
Width: 408
GlyphClass: 2
Flags: W
LayerCount: 2
Fore
SplineSet
344.5 590 m 128,-1,1
 316 560 316 560 278.5 560 c 128,-1,2
 241 560 241 560 193 589 c 1,3,4
 148 621 148 621 124.5 621 c 128,-1,5
 101 621 101 621 84.5 607 c 128,-1,6
 68 593 68 593 63 575 c 1,7,-1
 36 575 l 1,8,9
 42 620 42 620 70.5 649.5 c 128,-1,10
 99 679 99 679 139 679 c 128,-1,11
 179 679 179 679 226 649 c 1,12,13
 271 618 271 618 293 618 c 128,-1,14
 315 618 315 618 331 632.5 c 128,-1,15
 347 647 347 647 352 665 c 1,16,-1
 379 665 l 1,17,0
 373 620 373 620 344.5 590 c 128,-1,1
EndSplineSet
EndChar

StartChar: hungarumlaut
Encoding: 733 733 208
Width: 418
GlyphClass: 2
Flags: W
LayerCount: 2
Fore
SplineSet
32 512 m 1,0,1
 149 683 149 683 161 700 c 1,2,3
 219 663 219 663 214 638 c 0,4,5
 211 628 211 628 200 616 c 1,6,7
 121 543 121 543 54 491 c 1,8,9
 36 507 36 507 32 512 c 1,0,1
321 700 m 1,10,11
 374 666 374 666 374 642 c 0,12,13
 374 631 374 631 360 616 c 1,14,15
 281 543 281 543 214 491 c 1,16,17
 196 507 196 507 192 512 c 1,18,19
 309 683 309 683 321 700 c 1,10,11
EndSplineSet
EndChar

StartChar: endash
Encoding: 8211 8211 209
Width: 636
GlyphClass: 2
Flags: W
LayerCount: 2
Fore
SplineSet
565 293 m 1,0,-1
 565 237 l 1,1,-1
 71 237 l 1,2,-1
 71 293 l 1,3,-1
 565 293 l 1,0,-1
EndSplineSet
EndChar

StartChar: emdash
Encoding: 8212 8212 210
Width: 1144
GlyphClass: 2
Flags: W
LayerCount: 2
Fore
SplineSet
1073 293 m 1,0,-1
 1073 237 l 1,1,-1
 71 237 l 1,2,-1
 71 293 l 1,3,-1
 1073 293 l 1,0,-1
EndSplineSet
EndChar

StartChar: quoteleft
Encoding: 8216 8216 211
Width: 231
GlyphClass: 2
Flags: W
LayerCount: 2
Fore
SplineSet
51 521 m 0,0,1
 51 576 51 576 93 623 c 128,-1,2
 135 670 135 670 165 682 c 1,3,-1
 180 661 l 1,4,5
 150 645 150 645 129.5 615 c 128,-1,6
 109 585 109 585 106 553 c 1,7,8
 114 558 114 558 131.5 558 c 128,-1,9
 149 558 149 558 162 542.5 c 128,-1,10
 175 527 175 527 175 502 c 128,-1,11
 175 477 175 477 156.5 461.5 c 128,-1,12
 138 446 138 446 111 446 c 128,-1,13
 84 446 84 446 67.5 465 c 128,-1,14
 51 484 51 484 51 521 c 0,0,1
EndSplineSet
EndChar

StartChar: quoteright
Encoding: 8217 8217 212
Width: 230
GlyphClass: 2
Flags: W
LayerCount: 2
Fore
SplineSet
188 607 m 0,0,1
 188 552 188 552 146 505 c 128,-1,2
 104 458 104 458 74 446 c 1,3,-1
 59 467 l 1,4,5
 89 483 89 483 109.5 513 c 128,-1,6
 130 543 130 543 133 575 c 1,7,8
 125 570 125 570 107.5 570 c 128,-1,9
 90 570 90 570 77 585.5 c 128,-1,10
 64 601 64 601 64 626 c 128,-1,11
 64 651 64 651 82.5 666.5 c 128,-1,12
 101 682 101 682 128 682 c 128,-1,13
 155 682 155 682 171.5 663 c 128,-1,14
 188 644 188 644 188 607 c 0,0,1
EndSplineSet
EndChar

StartChar: quotesinglbase
Encoding: 8218 8218 213
Width: 240
GlyphClass: 2
Flags: W
LayerCount: 2
Fore
SplineSet
182 27 m 0,0,1
 182 -28 182 -28 140 -75 c 128,-1,2
 98 -122 98 -122 68 -134 c 1,3,-1
 53 -113 l 1,4,5
 83 -97 83 -97 103.5 -67 c 128,-1,6
 124 -37 124 -37 127 -5 c 1,7,8
 119 -10 119 -10 101.5 -10 c 128,-1,9
 84 -10 84 -10 71 5.5 c 128,-1,10
 58 21 58 21 58 46 c 128,-1,11
 58 71 58 71 76.5 86.5 c 128,-1,12
 95 102 95 102 122 102 c 128,-1,13
 149 102 149 102 165.5 83 c 128,-1,14
 182 64 182 64 182 27 c 0,0,1
EndSplineSet
EndChar

StartChar: quotedblleft
Encoding: 8220 8220 214
Width: 392
GlyphClass: 2
Flags: W
LayerCount: 2
Fore
SplineSet
212 521 m 0,0,1
 212 576 212 576 254 623 c 128,-1,2
 296 670 296 670 326 682 c 1,3,-1
 341 661 l 1,4,5
 311 645 311 645 290.5 615 c 128,-1,6
 270 585 270 585 267 553 c 1,7,8
 275 558 275 558 292.5 558 c 128,-1,9
 310 558 310 558 323 542.5 c 128,-1,10
 336 527 336 527 336 502 c 128,-1,11
 336 477 336 477 317.5 461.5 c 128,-1,12
 299 446 299 446 272 446 c 128,-1,13
 245 446 245 446 228.5 465 c 128,-1,14
 212 484 212 484 212 521 c 0,0,1
68 474 m 128,-1,16
 51 502 51 502 51 536 c 128,-1,17
 51 570 51 570 65 596.5 c 128,-1,18
 79 623 79 623 100 640 c 0,19,20
 140 672 140 672 165 682 c 1,21,-1
 180 661 l 1,22,23
 150 645 150 645 129.5 615 c 128,-1,24
 109 585 109 585 106 553 c 1,25,26
 114 558 114 558 131.5 558 c 128,-1,27
 149 558 149 558 162 542.5 c 128,-1,28
 175 527 175 527 175 502 c 128,-1,29
 175 477 175 477 156.5 461.5 c 128,-1,30
 138 446 138 446 111.5 446 c 128,-1,15
 85 446 85 446 68 474 c 128,-1,16
EndSplineSet
EndChar

StartChar: quotedblright
Encoding: 8221 8221 215
Width: 391
GlyphClass: 2
Flags: W
LayerCount: 2
Fore
SplineSet
188 607 m 0,0,1
 188 552 188 552 146 505 c 128,-1,2
 104 458 104 458 74 446 c 1,3,-1
 59 467 l 1,4,5
 89 483 89 483 109.5 513 c 128,-1,6
 130 543 130 543 133 575 c 1,7,8
 125 570 125 570 107.5 570 c 128,-1,9
 90 570 90 570 77 585.5 c 128,-1,10
 64 601 64 601 64 626 c 128,-1,11
 64 651 64 651 82.5 666.5 c 128,-1,12
 101 682 101 682 128 682 c 128,-1,13
 155 682 155 682 171.5 663 c 128,-1,14
 188 644 188 644 188 607 c 0,0,1
349 607 m 0,15,16
 349 552 349 552 307 505 c 128,-1,17
 265 458 265 458 235 446 c 1,18,-1
 220 467 l 1,19,20
 250 483 250 483 270.5 513 c 128,-1,21
 291 543 291 543 294 575 c 1,22,23
 286 570 286 570 268.5 570 c 128,-1,24
 251 570 251 570 238 585.5 c 128,-1,25
 225 601 225 601 225 626 c 128,-1,26
 225 651 225 651 243.5 666.5 c 128,-1,27
 262 682 262 682 289 682 c 128,-1,28
 316 682 316 682 332.5 663 c 128,-1,29
 349 644 349 644 349 607 c 0,15,16
EndSplineSet
EndChar

StartChar: quotedblbase
Encoding: 8222 8222 216
Width: 410
GlyphClass: 2
Flags: W
LayerCount: 2
Fore
SplineSet
182 27 m 0,0,1
 182 -28 182 -28 140 -75 c 128,-1,2
 98 -122 98 -122 68 -134 c 1,3,-1
 53 -113 l 1,4,5
 83 -97 83 -97 103.5 -67 c 128,-1,6
 124 -37 124 -37 127 -5 c 1,7,8
 119 -10 119 -10 101.5 -10 c 128,-1,9
 84 -10 84 -10 71 5.5 c 128,-1,10
 58 21 58 21 58 46 c 128,-1,11
 58 71 58 71 76.5 86.5 c 128,-1,12
 95 102 95 102 122 102 c 128,-1,13
 149 102 149 102 165.5 83 c 128,-1,14
 182 64 182 64 182 27 c 0,0,1
352 27 m 0,15,16
 352 -28 352 -28 310 -75 c 128,-1,17
 268 -122 268 -122 238 -134 c 1,18,-1
 223 -113 l 1,19,20
 253 -97 253 -97 273.5 -67 c 128,-1,21
 294 -37 294 -37 297 -5 c 1,22,23
 289 -10 289 -10 271.5 -10 c 128,-1,24
 254 -10 254 -10 241 5.5 c 128,-1,25
 228 21 228 21 228 46 c 128,-1,26
 228 71 228 71 246.5 86.5 c 128,-1,27
 265 102 265 102 292 102 c 128,-1,28
 319 102 319 102 335.5 83 c 128,-1,29
 352 64 352 64 352 27 c 0,15,16
EndSplineSet
EndChar

StartChar: dagger
Encoding: 8224 8224 217
Width: 454
GlyphClass: 2
Flags: W
LayerCount: 2
Fore
SplineSet
421 485 m 1,0,-1
 421 412 l 1,1,-1
 253 425 l 1,2,-1
 275 -270 l 1,3,-1
 179 -270 l 1,4,-1
 201 425 l 1,5,-1
 33 412 l 1,6,-1
 33 485 l 1,7,-1
 201 470 l 1,8,-1
 183 676 l 1,9,-1
 271 676 l 1,10,-1
 253 470 l 1,11,-1
 421 485 l 1,0,-1
EndSplineSet
EndChar

StartChar: daggerdbl
Encoding: 8225 8225 218
Width: 496
GlyphClass: 2
Flags: W
LayerCount: 2
Fore
SplineSet
222 -19 m 1,0,-1
 222 425 l 1,1,-1
 54 412 l 1,2,-1
 54 485 l 1,3,-1
 222 470 l 1,4,-1
 204 676 l 1,5,-1
 292 676 l 1,6,-1
 274 470 l 1,7,-1
 442 485 l 1,8,-1
 442 412 l 1,9,-1
 274 425 l 1,10,-1
 274 -19 l 1,11,-1
 442 -6 l 1,12,-1
 442 -79 l 1,13,-1
 274 -64 l 1,14,-1
 292 -270 l 1,15,-1
 204 -270 l 1,16,-1
 222 -64 l 1,17,-1
 54 -79 l 1,18,-1
 54 -6 l 1,19,-1
 222 -19 l 1,0,-1
EndSplineSet
EndChar

StartChar: bullet
Encoding: 8226 8226 219
Width: 449
GlyphClass: 2
Flags: W
LayerCount: 2
Fore
SplineSet
370 331 m 128,-1,1
 370 268 370 268 327.5 222.5 c 128,-1,2
 285 177 285 177 224 177 c 128,-1,3
 163 177 163 177 121 222.5 c 128,-1,4
 79 268 79 268 79 331.5 c 128,-1,5
 79 395 79 395 120.5 441 c 128,-1,6
 162 487 162 487 224 487 c 128,-1,7
 286 487 286 487 328 440.5 c 128,-1,0
 370 394 370 394 370 331 c 128,-1,1
EndSplineSet
EndChar

StartChar: ellipsis
Encoding: 8230 8230 220
Width: 711
GlyphClass: 2
Flags: W
LayerCount: 2
Fore
SplineSet
159 5.5 m 128,-1,1
 142 -12 142 -12 116.5 -12 c 128,-1,2
 91 -12 91 -12 74 5 c 128,-1,3
 57 22 57 22 57 47.5 c 128,-1,4
 57 73 57 73 74 90.5 c 128,-1,5
 91 108 91 108 116 108 c 128,-1,6
 141 108 141 108 158.5 90 c 128,-1,7
 176 72 176 72 176 47.5 c 128,-1,0
 176 23 176 23 159 5.5 c 128,-1,1
398 5.5 m 128,-1,9
 381 -12 381 -12 355.5 -12 c 128,-1,10
 330 -12 330 -12 313 5 c 128,-1,11
 296 22 296 22 296 47.5 c 128,-1,12
 296 73 296 73 313 90.5 c 128,-1,13
 330 108 330 108 355 108 c 128,-1,14
 380 108 380 108 397.5 90 c 128,-1,15
 415 72 415 72 415 47.5 c 128,-1,8
 415 23 415 23 398 5.5 c 128,-1,9
637 5.5 m 128,-1,17
 620 -12 620 -12 594.5 -12 c 128,-1,18
 569 -12 569 -12 552 5 c 128,-1,19
 535 22 535 22 535 47.5 c 128,-1,20
 535 73 535 73 552 90.5 c 128,-1,21
 569 108 569 108 594 108 c 128,-1,22
 619 108 619 108 636.5 90 c 128,-1,23
 654 72 654 72 654 47.5 c 128,-1,16
 654 23 654 23 637 5.5 c 128,-1,17
EndSplineSet
EndChar

StartChar: perthousand
Encoding: 8240 8240 221
Width: 1091
GlyphClass: 2
Flags: W
LayerCount: 2
Fore
SplineSet
41 517 m 128,-1,1
 41 579 41 579 85.5 623 c 128,-1,2
 130 667 130 667 192 667 c 128,-1,3
 254 667 254 667 298.5 623 c 128,-1,4
 343 579 343 579 343 517 c 128,-1,5
 343 455 343 455 298.5 411 c 128,-1,6
 254 367 254 367 192 367 c 128,-1,7
 130 367 130 367 85.5 411 c 128,-1,0
 41 455 41 455 41 517 c 128,-1,1
95 517 m 128,-1,9
 95 475 95 475 123.5 444.5 c 128,-1,10
 152 414 152 414 192 414 c 128,-1,11
 232 414 232 414 260.5 444.5 c 128,-1,12
 289 475 289 475 289 517 c 128,-1,13
 289 559 289 559 260.5 589.5 c 128,-1,14
 232 620 232 620 192 620 c 128,-1,15
 152 620 152 620 123.5 589.5 c 128,-1,8
 95 559 95 559 95 517 c 128,-1,9
109 1 m 1,16,-1
 580 682 l 1,17,-1
 619 655 l 1,18,-1
 166 1 l 1,19,-1
 109 1 l 1,16,-1
395 147 m 128,-1,21
 395 209 395 209 439.5 253 c 128,-1,22
 484 297 484 297 546 297 c 128,-1,23
 608 297 608 297 652.5 253 c 128,-1,24
 697 209 697 209 697 147 c 128,-1,25
 697 85 697 85 652.5 41 c 128,-1,26
 608 -3 608 -3 546 -3 c 128,-1,27
 484 -3 484 -3 439.5 41 c 128,-1,20
 395 85 395 85 395 147 c 128,-1,21
449 147 m 128,-1,29
 449 105 449 105 477.5 74.5 c 128,-1,30
 506 44 506 44 546 44 c 128,-1,31
 586 44 586 44 614.5 74.5 c 128,-1,32
 643 105 643 105 643 147 c 128,-1,33
 643 189 643 189 614.5 219.5 c 128,-1,34
 586 250 586 250 546 250 c 128,-1,35
 506 250 506 250 477.5 219.5 c 128,-1,28
 449 189 449 189 449 147 c 128,-1,29
755 147 m 128,-1,37
 755 209 755 209 799.5 253 c 128,-1,38
 844 297 844 297 906 297 c 128,-1,39
 968 297 968 297 1012.5 253 c 128,-1,40
 1057 209 1057 209 1057 147 c 128,-1,41
 1057 85 1057 85 1012.5 41 c 128,-1,42
 968 -3 968 -3 906 -3 c 128,-1,43
 844 -3 844 -3 799.5 41 c 128,-1,36
 755 85 755 85 755 147 c 128,-1,37
809 147 m 128,-1,45
 809 105 809 105 837.5 74.5 c 128,-1,46
 866 44 866 44 906 44 c 128,-1,47
 946 44 946 44 974.5 74.5 c 128,-1,48
 1003 105 1003 105 1003 147 c 128,-1,49
 1003 189 1003 189 974.5 219.5 c 128,-1,50
 946 250 946 250 906 250 c 128,-1,51
 866 250 866 250 837.5 219.5 c 128,-1,44
 809 189 809 189 809 147 c 128,-1,45
EndSplineSet
EndChar

StartChar: guilsinglleft
Encoding: 8249 8249 222
Width: 312
GlyphClass: 2
Flags: W
LayerCount: 2
Fore
SplineSet
223 421 m 1,0,1
 244 406 244 406 244 384 c 128,-1,2
 244 362 244 362 226 334.5 c 128,-1,3
 208 307 208 307 186.5 287 c 128,-1,4
 165 267 165 267 145 249.5 c 128,-1,5
 125 232 125 232 124 231 c 1,6,7
 164 205 164 205 202 157.5 c 128,-1,8
 240 110 240 110 240 83.5 c 128,-1,9
 240 57 240 57 211 43 c 1,10,11
 191 85 191 85 135 144 c 0,12,13
 100 181 100 181 52 218 c 1,14,-1
 36 231 l 1,15,16
 118 298 118 298 146 328 c 0,17,18
 193 379 193 379 215 410 c 2,19,-1
 223 421 l 1,0,1
EndSplineSet
EndChar

StartChar: guilsinglright
Encoding: 8250 8250 223
Width: 312
GlyphClass: 2
Flags: W
LayerCount: 2
Fore
SplineSet
101 43 m 1,0,1
 72 57 72 57 72 83.5 c 128,-1,2
 72 110 72 110 101 146 c 0,3,4
 148 205 148 205 188 231 c 1,5,6
 187 232 187 232 167 249.5 c 128,-1,7
 147 267 147 267 125.5 287 c 128,-1,8
 104 307 104 307 86 334.5 c 128,-1,9
 68 362 68 362 68 384 c 128,-1,10
 68 406 68 406 89 421 c 1,11,12
 141 348 141 348 202 294 c 0,13,14
 233 267 233 267 254 249 c 2,15,-1
 276 231 l 1,16,17
 184 161 184 161 133 92 c 0,18,19
 114 67 114 67 108 55 c 2,20,-1
 101 43 l 1,0,1
EndSplineSet
EndChar

StartChar: fraction
Encoding: 8260 8260 224
Width: 466
GlyphClass: 2
Flags: W
LayerCount: 2
Fore
SplineSet
462 667 m 1,0,-1
 56 -10 l 1,1,-1
 5 -10 l 1,2,-1
 412 667 l 1,3,-1
 462 667 l 1,0,-1
EndSplineSet
EndChar

StartChar: Euro
Encoding: 8364 8364 225
Width: 702
GlyphClass: 2
Flags: W
LayerCount: 2
Fore
SplineSet
223 354 m 1,0,-1
 223 329 l 2,1,2
 223 293 223 293 224 276 c 1,3,-1
 472 276 l 1,4,-1
 463 239 l 1,5,-1
 227 239 l 1,6,7
 238 129 238 129 282.5 76 c 128,-1,8
 327 23 327 23 417 23 c 0,9,10
 537 23 537 23 612 145 c 1,11,12
 613 144 613 144 616 143 c 128,-1,13
 619 142 619 142 621 141 c 128,-1,14
 623 140 623 140 625.5 138.5 c 128,-1,15
 628 137 628 137 629.5 136 c 128,-1,16
 631 135 631 135 633 133 c 128,-1,17
 635 131 635 131 636 130 c 0,18,19
 639 125 639 125 639 120 c 0,20,21
 639 83 639 83 573.5 36 c 128,-1,22
 508 -11 508 -11 395.5 -11 c 128,-1,23
 283 -11 283 -11 206.5 55.5 c 128,-1,24
 130 122 130 122 107 239 c 1,25,-1
 42 239 l 1,26,-1
 42 276 l 1,27,-1
 102 276 l 1,28,29
 99 302 99 302 99 329 c 2,30,-1
 99 354 l 1,31,-1
 42 354 l 1,32,-1
 42 390 l 1,33,-1
 103 390 l 1,34,35
 120 524 120 524 205 603 c 128,-1,36
 290 682 290 682 423 682 c 0,37,38
 496 682 496 682 564 650 c 0,39,40
 600 633 600 633 622.5 598.5 c 128,-1,41
 645 564 645 564 645 519 c 128,-1,42
 645 474 645 474 606 454 c 0,43,44
 587 444 587 444 568.5 444 c 128,-1,45
 550 444 550 444 533 456 c 1,46,47
 539 486 539 486 539 512 c 0,48,49
 539 565 539 565 515 600 c 0,50,51
 480 652 480 652 416 652 c 0,52,53
 241 652 241 652 224 390 c 1,54,-1
 502 390 l 1,55,-1
 493 354 l 1,56,-1
 223 354 l 1,0,-1
EndSplineSet
EndChar

StartChar: trademark
Encoding: 8482 8482 226
Width: 705
GlyphClass: 2
Flags: W
LayerCount: 2
Fore
SplineSet
299 615 m 1,0,-1
 288 615 l 1,1,-1
 272 656 l 1,2,-1
 213 657 l 1,3,-1
 213 441 l 1,4,-1
 247 438 l 1,5,-1
 247 429 l 1,6,-1
 132 429 l 1,7,-1
 132 438 l 1,8,-1
 166 441 l 1,9,-1
 166 657 l 1,10,-1
 108 656 l 1,11,-1
 91 615 l 1,12,-1
 80 615 l 1,13,-1
 80 669 l 1,14,-1
 190 670 l 1,15,-1
 299 669 l 1,16,-1
 299 615 l 1,0,-1
626 669 m 1,17,-1
 626 661 l 1,18,-1
 596 657 l 1,19,-1
 603 441 l 1,20,-1
 631 438 l 1,21,-1
 631 429 l 1,22,-1
 530 429 l 1,23,-1
 530 438 l 1,24,-1
 557 441 l 1,25,-1
 548 626 l 1,26,-1
 476 429 l 1,27,-1
 456 429 l 1,28,-1
 370 624 l 1,29,-1
 363 447 l 1,30,-1
 394 438 l 1,31,-1
 394 429 l 1,32,-1
 320 429 l 1,33,-1
 320 438 l 1,34,-1
 350 448 l 1,35,-1
 357 657 l 1,36,-1
 327 661 l 1,37,-1
 327 669 l 1,38,-1
 398 669 l 1,39,-1
 479 479 l 1,40,-1
 549 669 l 1,41,-1
 626 669 l 1,17,-1
EndSplineSet
EndChar

StartChar: minus
Encoding: 8722 8722 227
Width: 442
GlyphClass: 2
Flags: W
LayerCount: 2
Fore
SplineSet
366 301 m 1,0,-1
 366 235 l 1,1,-1
 76 235 l 1,2,-1
 76 301 l 1,3,-1
 366 301 l 1,0,-1
EndSplineSet
EndChar

StartChar: fi
Encoding: 64257 64257 228
Width: 616
GlyphClass: 2
Flags: W
LayerCount: 2
Fore
SplineSet
100 462 m 1,0,-1
 30 462 l 1,1,-1
 30 488 l 1,2,-1
 100 488 l 1,3,4
 100 772 100 772 345 772 c 0,5,6
 410 772 410 772 452.5 748.5 c 128,-1,7
 495 725 495 725 495 686 c 128,-1,8
 495 647 495 647 465 628 c 0,9,10
 448 617 448 617 431 617 c 128,-1,11
 414 617 414 617 399 623 c 1,12,13
 406 650 406 650 406 676 c 128,-1,14
 406 702 406 702 386 722.5 c 128,-1,15
 366 743 366 743 328 743 c 0,16,17
 198 743 198 743 198 488 c 1,18,-1
 359 488 l 1,19,-1
 526 497 l 1,20,-1
 526 29 l 1,21,-1
 592 24 l 1,22,-1
 592 0 l 1,23,-1
 362 0 l 1,24,-1
 362 24 l 1,25,-1
 428 29 l 1,26,-1
 428 462 l 1,27,-1
 198 462 l 1,28,-1
 198 29 l 1,29,-1
 272 24 l 1,30,-1
 272 0 l 1,31,-1
 33 0 l 1,32,-1
 33 24 l 1,33,-1
 100 28 l 1,34,-1
 100 462 l 1,0,-1
EndSplineSet
EndChar

StartChar: fl
Encoding: 64258 64258 229
Width: 626
GlyphClass: 2
Flags: W
LayerCount: 2
Fore
SplineSet
339 743 m 0,0,1
 302 743 302 743 274.5 725.5 c 128,-1,2
 247 708 247 708 233 683.5 c 128,-1,3
 219 659 219 659 210 622 c 1,4,5
 198 566 198 566 198 488 c 1,6,-1
 347 488 l 1,7,-1
 347 462 l 1,8,-1
 198 462 l 1,9,-1
 198 29 l 1,10,-1
 272 24 l 1,11,-1
 272 0 l 1,12,-1
 33 0 l 1,13,-1
 33 24 l 1,14,-1
 100 28 l 1,15,-1
 100 462 l 1,16,-1
 30 462 l 1,17,-1
 30 488 l 1,18,-1
 100 488 l 1,19,20
 100 772 100 772 345 772 c 0,21,22
 395 772 395 772 438 754 c 1,23,-1
 531 769 l 1,24,-1
 531 31 l 1,25,-1
 600 24 l 1,26,-1
 600 0 l 1,27,-1
 368 0 l 1,28,-1
 368 24 l 1,29,-1
 433 29 l 1,30,-1
 434 621 l 2,31,32
 434 688 434 688 415 715.5 c 128,-1,33
 396 743 396 743 339 743 c 0,0,1
EndSplineSet
EndChar

StartChar: gravemayuscula
Encoding: 65540 -1 231
Width: 390
GlyphClass: 2
Flags: W
LayerCount: 2
Fore
SplineSet
114 815 m 1,0,1
 96 829 96 829 96 839 c 0,2,3
 96 866 96 866 137 904 c 1,4,5
 180 863 180 863 298 743 c 1,6,-1
 281 718 l 1,7,8
 209 755 209 755 114 815 c 1,0,1
EndSplineSet
EndChar

StartChar: acutemayuscula
Encoding: 65541 -1 232
Width: 390
GlyphClass: 2
Flags: W
LayerCount: 2
Fore
SplineSet
250 904 m 1,0,1
 291 866 291 866 291 841 c 0,2,3
 291 829 291 829 273 815 c 1,4,5
 178 755 178 755 106 718 c 1,6,-1
 89 743 l 1,7,8
 207 863 207 863 250 904 c 1,0,1
EndSplineSet
EndChar

